%FSLAX45Y45*%
G04 Gerber Fmt 4.5, Leading zero omitted, Abs format (unit mm)*
G04 Created by KiCad (PCBNEW 5.1.12-84ad8e8a86~92~ubuntu18.04.1) date 2022-05-14 09:19:43*
%MOMM*%
%LPD*%
G01*
G04 APERTURE LIST*
%TA.AperFunction,Profile*%
%ADD10C,0.100000*%
%TD*%
%ADD11C,0.200000*%
%ADD12C,0.300000*%
G04 APERTURE END LIST*
D10*
X16911320Y-3190240D02*
X16911320Y-11130280D01*
X3799840Y-3190240D02*
X16911320Y-3190240D01*
X3799840Y-11130280D02*
X3799840Y-3190240D01*
X16911320Y-11130280D02*
X3799840Y-11130280D01*
D11*
X4882200Y-10038400D02*
X4922200Y-10078400D01*
X4922200Y-10038400D02*
X4882200Y-10078400D01*
X4922840Y-5689920D02*
X4962840Y-5729920D01*
X4962840Y-5689920D02*
X4922840Y-5729920D01*
X5227640Y-5573080D02*
X5267640Y-5613080D01*
X5267640Y-5573080D02*
X5227640Y-5613080D01*
X5349560Y-6203000D02*
X5389560Y-6243000D01*
X5389560Y-6203000D02*
X5349560Y-6243000D01*
X5486720Y-9352600D02*
X5526720Y-9392600D01*
X5526720Y-9352600D02*
X5486720Y-9392600D01*
X5583240Y-6680520D02*
X5623240Y-6720520D01*
X5623240Y-6680520D02*
X5583240Y-6720520D01*
X5593400Y-8128320D02*
X5633400Y-8168320D01*
X5633400Y-8128320D02*
X5593400Y-8168320D01*
X5816920Y-9425100D02*
X5856920Y-9465100D01*
X5856920Y-9425100D02*
X5816920Y-9465100D01*
X6309680Y-4216720D02*
X6349680Y-4256720D01*
X6349680Y-4216720D02*
X6309680Y-4256720D01*
X6341303Y-4121851D02*
X6381303Y-4161851D01*
X6381303Y-4121851D02*
X6341303Y-4161851D01*
X6426520Y-9764080D02*
X6466520Y-9804080D01*
X6466520Y-9764080D02*
X6426520Y-9804080D01*
X6441760Y-5588320D02*
X6481760Y-5628320D01*
X6481760Y-5588320D02*
X6441760Y-5628320D01*
X6660200Y-5253040D02*
X6700200Y-5293040D01*
X6700200Y-5253040D02*
X6660200Y-5293040D01*
X6708880Y-5832160D02*
X6748880Y-5872160D01*
X6748880Y-5832160D02*
X6708880Y-5872160D01*
X6709126Y-5547525D02*
X6749126Y-5587525D01*
X6749126Y-5547525D02*
X6709126Y-5587525D01*
X6751640Y-5107100D02*
X6791640Y-5147100D01*
X6791640Y-5107100D02*
X6751640Y-5147100D01*
X6766880Y-9642160D02*
X6806880Y-9682160D01*
X6806880Y-9642160D02*
X6766880Y-9682160D01*
X6868480Y-5466400D02*
X6908480Y-5506400D01*
X6908480Y-5466400D02*
X6868480Y-5506400D01*
X6919280Y-7188520D02*
X6959280Y-7228520D01*
X6959280Y-7188520D02*
X6919280Y-7228520D01*
X7010720Y-6004880D02*
X7050720Y-6044880D01*
X7050720Y-6004880D02*
X7010720Y-6044880D01*
X7015800Y-6771960D02*
X7055800Y-6811960D01*
X7055800Y-6771960D02*
X7015800Y-6811960D01*
X7137720Y-9517920D02*
X7177720Y-9557920D01*
X7177720Y-9517920D02*
X7137720Y-9557920D01*
X7249480Y-9875840D02*
X7289480Y-9915840D01*
X7289480Y-9875840D02*
X7249480Y-9915840D01*
X7264720Y-5542600D02*
X7304720Y-5582600D01*
X7304720Y-5542600D02*
X7264720Y-5582600D01*
X7396800Y-3321260D02*
X7436800Y-3361260D01*
X7436800Y-3321260D02*
X7396800Y-3361260D01*
X7401880Y-5287960D02*
X7441880Y-5327960D01*
X7441880Y-5287960D02*
X7401880Y-5327960D01*
X7437440Y-9941880D02*
X7477440Y-9981880D01*
X7477440Y-9941880D02*
X7437440Y-9981880D01*
X7528880Y-5432960D02*
X7568880Y-5472960D01*
X7568880Y-5432960D02*
X7528880Y-5472960D01*
X7635560Y-3947480D02*
X7675560Y-3987480D01*
X7675560Y-3947480D02*
X7635560Y-3987480D01*
X7635560Y-5287960D02*
X7675560Y-5327960D01*
X7675560Y-5287960D02*
X7635560Y-5327960D01*
X7640640Y-4110040D02*
X7680640Y-4150040D01*
X7680640Y-4110040D02*
X7640640Y-4150040D01*
X7767640Y-6030280D02*
X7807640Y-6070280D01*
X7807640Y-6030280D02*
X7767640Y-6070280D01*
X7793040Y-10648000D02*
X7833040Y-10688000D01*
X7833040Y-10648000D02*
X7793040Y-10688000D01*
X7874320Y-8666800D02*
X7914320Y-8706800D01*
X7914320Y-8666800D02*
X7874320Y-8706800D01*
X7884480Y-8326440D02*
X7924480Y-8366440D01*
X7924480Y-8326440D02*
X7884480Y-8366440D01*
X7949880Y-8790766D02*
X7989880Y-8830766D01*
X7989880Y-8790766D02*
X7949880Y-8830766D01*
X8094880Y-8641400D02*
X8134880Y-8681400D01*
X8134880Y-8641400D02*
X8094880Y-8681400D01*
X8153720Y-8346760D02*
X8193720Y-8386760D01*
X8193720Y-8346760D02*
X8153720Y-8386760D01*
X8163880Y-9845360D02*
X8203880Y-9885360D01*
X8203880Y-9845360D02*
X8163880Y-9885360D01*
X8168960Y-3248760D02*
X8208960Y-3288760D01*
X8208960Y-3248760D02*
X8168960Y-3288760D01*
X8168960Y-6568760D02*
X8208960Y-6608760D01*
X8208960Y-6568760D02*
X8168960Y-6608760D01*
X8290880Y-7285040D02*
X8330880Y-7325040D01*
X8330880Y-7285040D02*
X8290880Y-7325040D01*
X8301393Y-6748018D02*
X8341393Y-6788018D01*
X8341393Y-6748018D02*
X8301393Y-6788018D01*
X8407720Y-8689519D02*
X8447720Y-8729519D01*
X8447720Y-8689519D02*
X8407720Y-8729519D01*
X8417880Y-7884480D02*
X8457880Y-7924480D01*
X8457880Y-7884480D02*
X8417880Y-7924480D01*
X8600396Y-4304460D02*
X8640396Y-4344460D01*
X8640396Y-4304460D02*
X8600396Y-4344460D01*
X8636320Y-9159560D02*
X8676320Y-9199560D01*
X8676320Y-9159560D02*
X8636320Y-9199560D01*
X8646480Y-9372920D02*
X8686480Y-9412920D01*
X8686480Y-9372920D02*
X8646480Y-9412920D01*
X8666800Y-7381560D02*
X8706800Y-7421560D01*
X8706800Y-7381560D02*
X8666800Y-7421560D01*
X8671880Y-5542600D02*
X8711880Y-5582600D01*
X8711880Y-5542600D02*
X8671880Y-5582600D01*
X8676960Y-6015040D02*
X8716960Y-6055040D01*
X8716960Y-6015040D02*
X8676960Y-6055040D01*
X8814120Y-7843840D02*
X8854120Y-7883840D01*
X8854120Y-7843840D02*
X8814120Y-7883840D01*
X8905560Y-5836600D02*
X8945560Y-5876600D01*
X8945560Y-5836600D02*
X8905560Y-5876600D01*
X8905560Y-7605080D02*
X8945560Y-7645080D01*
X8945560Y-7605080D02*
X8905560Y-7645080D01*
X8920800Y-6797360D02*
X8960800Y-6837360D01*
X8960800Y-6797360D02*
X8920800Y-6837360D01*
X9017320Y-5766120D02*
X9057320Y-5806120D01*
X9057320Y-5766120D02*
X9017320Y-5806120D01*
X9068120Y-3947480D02*
X9108120Y-3987480D01*
X9108120Y-3947480D02*
X9068120Y-3987480D01*
X9073200Y-10642920D02*
X9113200Y-10682920D01*
X9113200Y-10642920D02*
X9073200Y-10682920D01*
X9169720Y-4338640D02*
X9209720Y-4378640D01*
X9209720Y-4338640D02*
X9169720Y-4378640D01*
X9174800Y-5607260D02*
X9214800Y-5647260D01*
X9214800Y-5607260D02*
X9174800Y-5647260D01*
X9215440Y-10846120D02*
X9255440Y-10886120D01*
X9255440Y-10846120D02*
X9215440Y-10886120D01*
X9311960Y-5287960D02*
X9351960Y-5327960D01*
X9351960Y-5287960D02*
X9311960Y-5327960D01*
X9332280Y-5065080D02*
X9372280Y-5105080D01*
X9372280Y-5065080D02*
X9332280Y-5105080D01*
X9403400Y-6822760D02*
X9443400Y-6862760D01*
X9443400Y-6822760D02*
X9403400Y-6862760D01*
X9438960Y-6106480D02*
X9478960Y-6146480D01*
X9478960Y-6106480D02*
X9438960Y-6146480D01*
X9667560Y-5432960D02*
X9707560Y-5472960D01*
X9707560Y-5432960D02*
X9667560Y-5472960D01*
X9761646Y-6583209D02*
X9801646Y-6623209D01*
X9801646Y-6583209D02*
X9761646Y-6623209D01*
X9835200Y-4673920D02*
X9875200Y-4713920D01*
X9875200Y-4673920D02*
X9835200Y-4713920D01*
X9936800Y-7473000D02*
X9976800Y-7513000D01*
X9976800Y-7473000D02*
X9936800Y-7513000D01*
X9941880Y-6111560D02*
X9981880Y-6151560D01*
X9981880Y-6111560D02*
X9941880Y-6151560D01*
X9952040Y-5918520D02*
X9992040Y-5958520D01*
X9992040Y-5918520D02*
X9952040Y-5958520D01*
X10114600Y-10551480D02*
X10154600Y-10591480D01*
X10154600Y-10551480D02*
X10114600Y-10591480D01*
X10140000Y-7610160D02*
X10180000Y-7650160D01*
X10180000Y-7610160D02*
X10140000Y-7650160D01*
X10185720Y-5951020D02*
X10225720Y-5991020D01*
X10225720Y-5951020D02*
X10185720Y-5991020D01*
X10200960Y-6873560D02*
X10240960Y-6913560D01*
X10240960Y-6873560D02*
X10200960Y-6913560D01*
X10343200Y-10678480D02*
X10383200Y-10718480D01*
X10383200Y-10678480D02*
X10343200Y-10718480D01*
X10378760Y-9936800D02*
X10418760Y-9976800D01*
X10418760Y-9936800D02*
X10378760Y-9976800D01*
X10407165Y-6977235D02*
X10447165Y-7017235D01*
X10447165Y-6977235D02*
X10407165Y-7017235D01*
X10429560Y-3957640D02*
X10469560Y-3997640D01*
X10469560Y-3957640D02*
X10429560Y-3997640D01*
X10495600Y-8758240D02*
X10535600Y-8798240D01*
X10535600Y-8758240D02*
X10495600Y-8798240D01*
X10505020Y-6857580D02*
X10545020Y-6897580D01*
X10545020Y-6857580D02*
X10505020Y-6897580D01*
X10546400Y-9875840D02*
X10586400Y-9915840D01*
X10586400Y-9875840D02*
X10546400Y-9915840D01*
X10622600Y-5507040D02*
X10662600Y-5547040D01*
X10662600Y-5507040D02*
X10622600Y-5547040D01*
X10627680Y-8697280D02*
X10667680Y-8737280D01*
X10667680Y-8697280D02*
X10627680Y-8737280D01*
X10632760Y-3393760D02*
X10672760Y-3433760D01*
X10672760Y-3393760D02*
X10632760Y-3433760D01*
X10658160Y-6980240D02*
X10698160Y-7020240D01*
X10698160Y-6980240D02*
X10658160Y-7020240D01*
X10729280Y-5679760D02*
X10769280Y-5719760D01*
X10769280Y-5679760D02*
X10729280Y-5719760D01*
X10775000Y-9836580D02*
X10815000Y-9876580D01*
X10815000Y-9836580D02*
X10775000Y-9876580D01*
X10830880Y-5176840D02*
X10870880Y-5216840D01*
X10870880Y-5176840D02*
X10830880Y-5216840D01*
X11008680Y-7212540D02*
X11048680Y-7252540D01*
X11048680Y-7212540D02*
X11008680Y-7252540D01*
X11034080Y-8316280D02*
X11074080Y-8356280D01*
X11074080Y-8316280D02*
X11034080Y-8356280D01*
X11049320Y-3358200D02*
X11089320Y-3398200D01*
X11089320Y-3358200D02*
X11049320Y-3398200D01*
X11135680Y-5197160D02*
X11175680Y-5237160D01*
X11175680Y-5197160D02*
X11135680Y-5237160D01*
X11354120Y-6121720D02*
X11394120Y-6161720D01*
X11394120Y-6121720D02*
X11354120Y-6161720D01*
X11369360Y-9149400D02*
X11409360Y-9189400D01*
X11409360Y-9149400D02*
X11369360Y-9189400D01*
X11537000Y-8697280D02*
X11577000Y-8737280D01*
X11577000Y-8697280D02*
X11537000Y-8737280D01*
X11552240Y-4105460D02*
X11592240Y-4145460D01*
X11592240Y-4105460D02*
X11552240Y-4145460D01*
X11760520Y-7574600D02*
X11800520Y-7614600D01*
X11800520Y-7574600D02*
X11760520Y-7614600D01*
X11780840Y-5197160D02*
X11820840Y-5237160D01*
X11820840Y-5197160D02*
X11780840Y-5237160D01*
X11801160Y-4988880D02*
X11841160Y-5028880D01*
X11841160Y-4988880D02*
X11801160Y-5028880D01*
X11927520Y-5471480D02*
X11967520Y-5511480D01*
X11967520Y-5471480D02*
X11927520Y-5511480D01*
X11994940Y-5360460D02*
X12034940Y-5400460D01*
X12034940Y-5360460D02*
X11994940Y-5400460D01*
X12195719Y-4715291D02*
X12235719Y-4755291D01*
X12235719Y-4715291D02*
X12195719Y-4755291D01*
X12268520Y-9322120D02*
X12308520Y-9362120D01*
X12308520Y-9322120D02*
X12268520Y-9362120D01*
X12512360Y-7914960D02*
X12552360Y-7954960D01*
X12552360Y-7914960D02*
X12512360Y-7954960D01*
X12522520Y-7117400D02*
X12562520Y-7157400D01*
X12562520Y-7117400D02*
X12522520Y-7157400D01*
X12522520Y-7376480D02*
X12562520Y-7416480D01*
X12562520Y-7376480D02*
X12522520Y-7416480D01*
X12776520Y-9505000D02*
X12816520Y-9545000D01*
X12816520Y-9505000D02*
X12776520Y-9545000D01*
X12786680Y-8763320D02*
X12826680Y-8803320D01*
X12826680Y-8763320D02*
X12786680Y-8803320D01*
X12899820Y-9836580D02*
X12939820Y-9876580D01*
X12939820Y-9836580D02*
X12899820Y-9876580D01*
X13000040Y-9642160D02*
X13040040Y-9682160D01*
X13040040Y-9642160D02*
X13000040Y-9682160D01*
X13081320Y-7188520D02*
X13121320Y-7228520D01*
X13121320Y-7188520D02*
X13081320Y-7228520D01*
X13088106Y-9712973D02*
X13128106Y-9752973D01*
X13128106Y-9712973D02*
X13088106Y-9752973D01*
X13132120Y-8001320D02*
X13172120Y-8041320D01*
X13172120Y-8001320D02*
X13132120Y-8041320D01*
X13147360Y-9281480D02*
X13187360Y-9321480D01*
X13187360Y-9281480D02*
X13147360Y-9321480D01*
X13167680Y-9545640D02*
X13207680Y-9585640D01*
X13207680Y-9545640D02*
X13167680Y-9585640D01*
X13269280Y-10338120D02*
X13309280Y-10378120D01*
X13309280Y-10338120D02*
X13269280Y-10378120D01*
X13299760Y-9713280D02*
X13339760Y-9753280D01*
X13339760Y-9713280D02*
X13299760Y-9753280D01*
X13335320Y-4008440D02*
X13375320Y-4048440D01*
X13375320Y-4008440D02*
X13335320Y-4048440D01*
X13406920Y-5994720D02*
X13446920Y-6034720D01*
X13446920Y-5994720D02*
X13406920Y-6034720D01*
X13411520Y-9433880D02*
X13451520Y-9473880D01*
X13451520Y-9433880D02*
X13411520Y-9473880D01*
X13513120Y-5222560D02*
X13553120Y-5262560D01*
X13553120Y-5222560D02*
X13513120Y-5262560D01*
X13574080Y-7391720D02*
X13614080Y-7431720D01*
X13614080Y-7391720D02*
X13574080Y-7431720D01*
X13919520Y-9510080D02*
X13959520Y-9550080D01*
X13959520Y-9510080D02*
X13919520Y-9550080D01*
X13955080Y-4206560D02*
X13995080Y-4246560D01*
X13995080Y-4206560D02*
X13955080Y-4246560D01*
X13965240Y-7071680D02*
X14005240Y-7111680D01*
X14005240Y-7071680D02*
X13965240Y-7111680D01*
X14016040Y-5824960D02*
X14056040Y-5864960D01*
X14056040Y-5824960D02*
X14016040Y-5864960D01*
X14031280Y-7325680D02*
X14071280Y-7365680D01*
X14071280Y-7325680D02*
X14031280Y-7365680D01*
X14122720Y-4699960D02*
X14162720Y-4739960D01*
X14162720Y-4699960D02*
X14122720Y-4739960D01*
X14163360Y-9322120D02*
X14203360Y-9362120D01*
X14203360Y-9322120D02*
X14163360Y-9362120D01*
X14366560Y-4282760D02*
X14406560Y-4322760D01*
X14406560Y-4282760D02*
X14366560Y-4322760D01*
X14524040Y-8041960D02*
X14564040Y-8081960D01*
X14564040Y-8041960D02*
X14524040Y-8081960D01*
X14600240Y-4046960D02*
X14640240Y-4086960D01*
X14640240Y-4046960D02*
X14600240Y-4086960D01*
X14717080Y-6802440D02*
X14757080Y-6842440D01*
X14757080Y-6802440D02*
X14717080Y-6842440D01*
X14722160Y-4785680D02*
X14762160Y-4825680D01*
X14762160Y-4785680D02*
X14722160Y-4825680D01*
X14818645Y-3993200D02*
X14858645Y-4033200D01*
X14858645Y-3993200D02*
X14818645Y-4033200D01*
X14931145Y-3327023D02*
X14971145Y-3367023D01*
X14971145Y-3327023D02*
X14931145Y-3367023D01*
X15001560Y-5062960D02*
X15041560Y-5102960D01*
X15041560Y-5062960D02*
X15001560Y-5102960D01*
X15021880Y-4013520D02*
X15061880Y-4053520D01*
X15061880Y-4013520D02*
X15021880Y-4053520D01*
X15074060Y-5532440D02*
X15114060Y-5572440D01*
X15114060Y-5532440D02*
X15074060Y-5572440D01*
X15336840Y-9858280D02*
X15376840Y-9898280D01*
X15376840Y-9858280D02*
X15336840Y-9898280D01*
X15494320Y-3576640D02*
X15534320Y-3616640D01*
X15534320Y-3576640D02*
X15494320Y-3616640D01*
X15667040Y-6538280D02*
X15707040Y-6578280D01*
X15707040Y-6538280D02*
X15667040Y-6578280D01*
X15706940Y-8519480D02*
X15746940Y-8559480D01*
X15746940Y-8519480D02*
X15706940Y-8559480D01*
X15728000Y-6050600D02*
X15768000Y-6090600D01*
X15768000Y-6050600D02*
X15728000Y-6090600D01*
X15819440Y-6269040D02*
X15859440Y-6309040D01*
X15859440Y-6269040D02*
X15819440Y-6309040D01*
X15875320Y-9393240D02*
X15915320Y-9433240D01*
X15915320Y-9393240D02*
X15875320Y-9433240D01*
X15976920Y-8778560D02*
X16016920Y-8818560D01*
X16016920Y-8778560D02*
X15976920Y-8818560D01*
X16042960Y-6746560D02*
X16082960Y-6786560D01*
X16082960Y-6746560D02*
X16042960Y-6786560D01*
X16119160Y-8478840D02*
X16159160Y-8518840D01*
X16159160Y-8478840D02*
X16119160Y-8518840D01*
X16154720Y-5755960D02*
X16194720Y-5795960D01*
X16194720Y-5755960D02*
X16154720Y-5795960D01*
X16357920Y-5527360D02*
X16397920Y-5567360D01*
X16397920Y-5527360D02*
X16357920Y-5567360D01*
X16383320Y-8229920D02*
X16423320Y-8269920D01*
X16423320Y-8229920D02*
X16383320Y-8269920D01*
X4444440Y-9062720D02*
G75*
G03*
X4444440Y-9062720I-35000J0D01*
G01*
X4952440Y-9062720D02*
G75*
G03*
X4952440Y-9062720I-35000J0D01*
G01*
X5155640Y-9062720D02*
G75*
G03*
X5155640Y-9062720I-35000J0D01*
G01*
X5663640Y-9062720D02*
G75*
G03*
X5663640Y-9062720I-35000J0D01*
G01*
X5882080Y-4378960D02*
G75*
G03*
X5882080Y-4378960I-35000J0D01*
G01*
X5882080Y-4592320D02*
G75*
G03*
X5882080Y-4592320I-35000J0D01*
G01*
X6390080Y-4378960D02*
G75*
G03*
X6390080Y-4378960I-35000J0D01*
G01*
X6390080Y-4592320D02*
G75*
G03*
X6390080Y-4592320I-35000J0D01*
G01*
X6440880Y-6680200D02*
G75*
G03*
X6440880Y-6680200I-35000J0D01*
G01*
X6948880Y-6680200D02*
G75*
G03*
X6948880Y-6680200I-35000J0D01*
G01*
X7456880Y-6685280D02*
G75*
G03*
X7456880Y-6685280I-35000J0D01*
G01*
X7964880Y-6685280D02*
G75*
G03*
X7964880Y-6685280I-35000J0D01*
G01*
X13491920Y-7396480D02*
G75*
G03*
X13491920Y-7396480I-35000J0D01*
G01*
X13491920Y-7904480D02*
G75*
G03*
X13491920Y-7904480I-35000J0D01*
G01*
X13491920Y-8122920D02*
G75*
G03*
X13491920Y-8122920I-35000J0D01*
G01*
X13491920Y-8630920D02*
G75*
G03*
X13491920Y-8630920I-35000J0D01*
G01*
X14579040Y-3429000D02*
G75*
G03*
X14579040Y-3429000I-35000J0D01*
G01*
X15087040Y-3429000D02*
G75*
G03*
X15087040Y-3429000I-35000J0D01*
G01*
X15310560Y-3429000D02*
G75*
G03*
X15310560Y-3429000I-35000J0D01*
G01*
X15818560Y-3429000D02*
G75*
G03*
X15818560Y-3429000I-35000J0D01*
G01*
X4155440Y-5221800D02*
X4155440Y-5301800D01*
X4115440Y-5261800D02*
X4195440Y-5261800D01*
X4155440Y-5471800D02*
X4155440Y-5551800D01*
X4115440Y-5511800D02*
X4195440Y-5511800D01*
X4312920Y-6437000D02*
X4312920Y-6517000D01*
X4272920Y-6477000D02*
X4352920Y-6477000D01*
X4312920Y-6691000D02*
X4312920Y-6771000D01*
X4272920Y-6731000D02*
X4352920Y-6731000D01*
X4312920Y-6945000D02*
X4312920Y-7025000D01*
X4272920Y-6985000D02*
X4352920Y-6985000D01*
X4312920Y-7199000D02*
X4312920Y-7279000D01*
X4272920Y-7239000D02*
X4352920Y-7239000D01*
X4312920Y-7453000D02*
X4312920Y-7533000D01*
X4272920Y-7493000D02*
X4352920Y-7493000D01*
X4312920Y-7707000D02*
X4312920Y-7787000D01*
X4272920Y-7747000D02*
X4352920Y-7747000D01*
X4312920Y-7961000D02*
X4312920Y-8041000D01*
X4272920Y-8001000D02*
X4352920Y-8001000D01*
X4312920Y-8215000D02*
X4312920Y-8295000D01*
X4272920Y-8255000D02*
X4352920Y-8255000D01*
X4312920Y-8469000D02*
X4312920Y-8549000D01*
X4272920Y-8509000D02*
X4352920Y-8509000D01*
X4312920Y-8723000D02*
X4312920Y-8803000D01*
X4272920Y-8763000D02*
X4352920Y-8763000D01*
X4526280Y-3648080D02*
X4526280Y-3728080D01*
X4486280Y-3688080D02*
X4566280Y-3688080D01*
X4622800Y-5014600D02*
X4622800Y-5094600D01*
X4582800Y-5054600D02*
X4662800Y-5054600D01*
X4622800Y-5776600D02*
X4622800Y-5856600D01*
X4582800Y-5816600D02*
X4662800Y-5816600D01*
X4759960Y-6528440D02*
X4759960Y-6608440D01*
X4719960Y-6568440D02*
X4799960Y-6568440D01*
X4759960Y-6778440D02*
X4759960Y-6858440D01*
X4719960Y-6818440D02*
X4799960Y-6818440D01*
X5026280Y-3648080D02*
X5026280Y-3728080D01*
X4986280Y-3688080D02*
X5066280Y-3688080D01*
X5074920Y-6437000D02*
X5074920Y-6517000D01*
X5034920Y-6477000D02*
X5114920Y-6477000D01*
X5074920Y-6691000D02*
X5074920Y-6771000D01*
X5034920Y-6731000D02*
X5114920Y-6731000D01*
X5074920Y-6945000D02*
X5074920Y-7025000D01*
X5034920Y-6985000D02*
X5114920Y-6985000D01*
X5074920Y-7199000D02*
X5074920Y-7279000D01*
X5034920Y-7239000D02*
X5114920Y-7239000D01*
X5074920Y-7453000D02*
X5074920Y-7533000D01*
X5034920Y-7493000D02*
X5114920Y-7493000D01*
X5074920Y-7707000D02*
X5074920Y-7787000D01*
X5034920Y-7747000D02*
X5114920Y-7747000D01*
X5074920Y-7961000D02*
X5074920Y-8041000D01*
X5034920Y-8001000D02*
X5114920Y-8001000D01*
X5074920Y-8215000D02*
X5074920Y-8295000D01*
X5034920Y-8255000D02*
X5114920Y-8255000D01*
X5074920Y-8469000D02*
X5074920Y-8549000D01*
X5034920Y-8509000D02*
X5114920Y-8509000D01*
X5074920Y-8723000D02*
X5074920Y-8803000D01*
X5034920Y-8763000D02*
X5114920Y-8763000D01*
X5364480Y-6437000D02*
X5364480Y-6517000D01*
X5324480Y-6477000D02*
X5404480Y-6477000D01*
X5364480Y-6691000D02*
X5364480Y-6771000D01*
X5324480Y-6731000D02*
X5404480Y-6731000D01*
X5364480Y-6945000D02*
X5364480Y-7025000D01*
X5324480Y-6985000D02*
X5404480Y-6985000D01*
X5364480Y-7199000D02*
X5364480Y-7279000D01*
X5324480Y-7239000D02*
X5404480Y-7239000D01*
X5364480Y-7453000D02*
X5364480Y-7533000D01*
X5324480Y-7493000D02*
X5404480Y-7493000D01*
X5364480Y-7707000D02*
X5364480Y-7787000D01*
X5324480Y-7747000D02*
X5404480Y-7747000D01*
X5364480Y-7961000D02*
X5364480Y-8041000D01*
X5324480Y-8001000D02*
X5404480Y-8001000D01*
X5364480Y-8215000D02*
X5364480Y-8295000D01*
X5324480Y-8255000D02*
X5404480Y-8255000D01*
X5364480Y-8469000D02*
X5364480Y-8549000D01*
X5324480Y-8509000D02*
X5404480Y-8509000D01*
X5364480Y-8723000D02*
X5364480Y-8803000D01*
X5324480Y-8763000D02*
X5404480Y-8763000D01*
X5765800Y-9566280D02*
X5765800Y-9646280D01*
X5725800Y-9606280D02*
X5805800Y-9606280D01*
X5786120Y-6533520D02*
X5786120Y-6613520D01*
X5746120Y-6573520D02*
X5826120Y-6573520D01*
X5786120Y-6783520D02*
X5786120Y-6863520D01*
X5746120Y-6823520D02*
X5826120Y-6823520D01*
X6015800Y-9566280D02*
X6015800Y-9646280D01*
X5975800Y-9606280D02*
X6055800Y-9606280D01*
X6126480Y-6437000D02*
X6126480Y-6517000D01*
X6086480Y-6477000D02*
X6166480Y-6477000D01*
X6126480Y-6691000D02*
X6126480Y-6771000D01*
X6086480Y-6731000D02*
X6166480Y-6731000D01*
X6126480Y-6945000D02*
X6126480Y-7025000D01*
X6086480Y-6985000D02*
X6166480Y-6985000D01*
X6126480Y-7199000D02*
X6126480Y-7279000D01*
X6086480Y-7239000D02*
X6166480Y-7239000D01*
X6126480Y-7453000D02*
X6126480Y-7533000D01*
X6086480Y-7493000D02*
X6166480Y-7493000D01*
X6126480Y-7707000D02*
X6126480Y-7787000D01*
X6086480Y-7747000D02*
X6166480Y-7747000D01*
X6126480Y-7961000D02*
X6126480Y-8041000D01*
X6086480Y-8001000D02*
X6166480Y-8001000D01*
X6126480Y-8215000D02*
X6126480Y-8295000D01*
X6086480Y-8255000D02*
X6166480Y-8255000D01*
X6126480Y-8469000D02*
X6126480Y-8549000D01*
X6086480Y-8509000D02*
X6166480Y-8509000D01*
X6126480Y-8723000D02*
X6126480Y-8803000D01*
X6086480Y-8763000D02*
X6166480Y-8763000D01*
X6146800Y-5014600D02*
X6146800Y-5094600D01*
X6106800Y-5054600D02*
X6186800Y-5054600D01*
X6146800Y-5776600D02*
X6146800Y-5856600D01*
X6106800Y-5816600D02*
X6186800Y-5816600D01*
X6649720Y-8900800D02*
X6649720Y-8980800D01*
X6609720Y-8940800D02*
X6689720Y-8940800D01*
X6649720Y-10424800D02*
X6649720Y-10504800D01*
X6609720Y-10464800D02*
X6689720Y-10464800D01*
X6654800Y-6960240D02*
X6654800Y-7040240D01*
X6614800Y-7000240D02*
X6694800Y-7000240D01*
X6654800Y-8484240D02*
X6654800Y-8564240D01*
X6614800Y-8524240D02*
X6694800Y-8524240D01*
X6659880Y-4841880D02*
X6659880Y-4921880D01*
X6619880Y-4881880D02*
X6699880Y-4881880D01*
X6659880Y-6365880D02*
X6659880Y-6445880D01*
X6619880Y-6405880D02*
X6699880Y-6405880D01*
X6664960Y-3739520D02*
X6664960Y-3819520D01*
X6624960Y-3779520D02*
X6704960Y-3779520D01*
X6664960Y-4501520D02*
X6664960Y-4581520D01*
X6624960Y-4541520D02*
X6704960Y-4541520D01*
X6675120Y-3495680D02*
X6675120Y-3575680D01*
X6635120Y-3535680D02*
X6715120Y-3535680D01*
X6903720Y-8900800D02*
X6903720Y-8980800D01*
X6863720Y-8940800D02*
X6943720Y-8940800D01*
X6903720Y-10424800D02*
X6903720Y-10504800D01*
X6863720Y-10464800D02*
X6943720Y-10464800D01*
X6908800Y-6960240D02*
X6908800Y-7040240D01*
X6868800Y-7000240D02*
X6948800Y-7000240D01*
X6908800Y-8484240D02*
X6908800Y-8564240D01*
X6868800Y-8524240D02*
X6948800Y-8524240D01*
X6913880Y-4841880D02*
X6913880Y-4921880D01*
X6873880Y-4881880D02*
X6953880Y-4881880D01*
X6913880Y-6365880D02*
X6913880Y-6445880D01*
X6873880Y-6405880D02*
X6953880Y-6405880D01*
X6918960Y-3739520D02*
X6918960Y-3819520D01*
X6878960Y-3779520D02*
X6958960Y-3779520D01*
X6918960Y-4501520D02*
X6918960Y-4581520D01*
X6878960Y-4541520D02*
X6958960Y-4541520D01*
X6925120Y-3495680D02*
X6925120Y-3575680D01*
X6885120Y-3535680D02*
X6965120Y-3535680D01*
X7157720Y-8900800D02*
X7157720Y-8980800D01*
X7117720Y-8940800D02*
X7197720Y-8940800D01*
X7157720Y-10424800D02*
X7157720Y-10504800D01*
X7117720Y-10464800D02*
X7197720Y-10464800D01*
X7162800Y-6960240D02*
X7162800Y-7040240D01*
X7122800Y-7000240D02*
X7202800Y-7000240D01*
X7162800Y-8484240D02*
X7162800Y-8564240D01*
X7122800Y-8524240D02*
X7202800Y-8524240D01*
X7167880Y-4841880D02*
X7167880Y-4921880D01*
X7127880Y-4881880D02*
X7207880Y-4881880D01*
X7167880Y-6365880D02*
X7167880Y-6445880D01*
X7127880Y-6405880D02*
X7207880Y-6405880D01*
X7172960Y-3739520D02*
X7172960Y-3819520D01*
X7132960Y-3779520D02*
X7212960Y-3779520D01*
X7172960Y-4501520D02*
X7172960Y-4581520D01*
X7132960Y-4541520D02*
X7212960Y-4541520D01*
X7411720Y-8900800D02*
X7411720Y-8980800D01*
X7371720Y-8940800D02*
X7451720Y-8940800D01*
X7411720Y-10424800D02*
X7411720Y-10504800D01*
X7371720Y-10464800D02*
X7451720Y-10464800D01*
X7416800Y-6960240D02*
X7416800Y-7040240D01*
X7376800Y-7000240D02*
X7456800Y-7000240D01*
X7416800Y-8484240D02*
X7416800Y-8564240D01*
X7376800Y-8524240D02*
X7456800Y-8524240D01*
X7421880Y-4841880D02*
X7421880Y-4921880D01*
X7381880Y-4881880D02*
X7461880Y-4881880D01*
X7421880Y-6365880D02*
X7421880Y-6445880D01*
X7381880Y-6405880D02*
X7461880Y-6405880D01*
X7426960Y-3739520D02*
X7426960Y-3819520D01*
X7386960Y-3779520D02*
X7466960Y-3779520D01*
X7426960Y-4501520D02*
X7426960Y-4581520D01*
X7386960Y-4541520D02*
X7466960Y-4541520D01*
X7665720Y-8900800D02*
X7665720Y-8980800D01*
X7625720Y-8940800D02*
X7705720Y-8940800D01*
X7665720Y-10424800D02*
X7665720Y-10504800D01*
X7625720Y-10464800D02*
X7705720Y-10464800D01*
X7670800Y-6960240D02*
X7670800Y-7040240D01*
X7630800Y-7000240D02*
X7710800Y-7000240D01*
X7670800Y-8484240D02*
X7670800Y-8564240D01*
X7630800Y-8524240D02*
X7710800Y-8524240D01*
X7675880Y-4841880D02*
X7675880Y-4921880D01*
X7635880Y-4881880D02*
X7715880Y-4881880D01*
X7675880Y-6365880D02*
X7675880Y-6445880D01*
X7635880Y-6405880D02*
X7715880Y-6405880D01*
X7680960Y-3739520D02*
X7680960Y-3819520D01*
X7640960Y-3779520D02*
X7720960Y-3779520D01*
X7680960Y-4501520D02*
X7680960Y-4581520D01*
X7640960Y-4541520D02*
X7720960Y-4541520D01*
X7919720Y-8900800D02*
X7919720Y-8980800D01*
X7879720Y-8940800D02*
X7959720Y-8940800D01*
X7919720Y-10424800D02*
X7919720Y-10504800D01*
X7879720Y-10464800D02*
X7959720Y-10464800D01*
X7924800Y-6960240D02*
X7924800Y-7040240D01*
X7884800Y-7000240D02*
X7964800Y-7000240D01*
X7924800Y-8484240D02*
X7924800Y-8564240D01*
X7884800Y-8524240D02*
X7964800Y-8524240D01*
X7929880Y-4841880D02*
X7929880Y-4921880D01*
X7889880Y-4881880D02*
X7969880Y-4881880D01*
X7929880Y-6365880D02*
X7929880Y-6445880D01*
X7889880Y-6405880D02*
X7969880Y-6405880D01*
X7934960Y-3739520D02*
X7934960Y-3819520D01*
X7894960Y-3779520D02*
X7974960Y-3779520D01*
X7934960Y-4501520D02*
X7934960Y-4581520D01*
X7894960Y-4541520D02*
X7974960Y-4541520D01*
X8173720Y-8900800D02*
X8173720Y-8980800D01*
X8133720Y-8940800D02*
X8213720Y-8940800D01*
X8173720Y-10424800D02*
X8173720Y-10504800D01*
X8133720Y-10464800D02*
X8213720Y-10464800D01*
X8178800Y-6960240D02*
X8178800Y-7040240D01*
X8138800Y-7000240D02*
X8218800Y-7000240D01*
X8178800Y-8484240D02*
X8178800Y-8564240D01*
X8138800Y-8524240D02*
X8218800Y-8524240D01*
X8183880Y-4841880D02*
X8183880Y-4921880D01*
X8143880Y-4881880D02*
X8223880Y-4881880D01*
X8183880Y-6365880D02*
X8183880Y-6445880D01*
X8143880Y-6405880D02*
X8223880Y-6405880D01*
X8188960Y-3739520D02*
X8188960Y-3819520D01*
X8148960Y-3779520D02*
X8228960Y-3779520D01*
X8188960Y-4501520D02*
X8188960Y-4581520D01*
X8148960Y-4541520D02*
X8228960Y-4541520D01*
X8427720Y-8900800D02*
X8427720Y-8980800D01*
X8387720Y-8940800D02*
X8467720Y-8940800D01*
X8427720Y-10424800D02*
X8427720Y-10504800D01*
X8387720Y-10464800D02*
X8467720Y-10464800D01*
X8432800Y-6960240D02*
X8432800Y-7040240D01*
X8392800Y-7000240D02*
X8472800Y-7000240D01*
X8432800Y-8484240D02*
X8432800Y-8564240D01*
X8392800Y-8524240D02*
X8472800Y-8524240D01*
X8437880Y-4841880D02*
X8437880Y-4921880D01*
X8397880Y-4881880D02*
X8477880Y-4881880D01*
X8437880Y-6365880D02*
X8437880Y-6445880D01*
X8397880Y-6405880D02*
X8477880Y-6405880D01*
X8437880Y-6650360D02*
X8437880Y-6730360D01*
X8397880Y-6690360D02*
X8477880Y-6690360D01*
X8681720Y-3500760D02*
X8681720Y-3580760D01*
X8641720Y-3540760D02*
X8721720Y-3540760D01*
X8681720Y-8900800D02*
X8681720Y-8980800D01*
X8641720Y-8940800D02*
X8721720Y-8940800D01*
X8681720Y-10424800D02*
X8681720Y-10504800D01*
X8641720Y-10464800D02*
X8721720Y-10464800D01*
X8686800Y-3744600D02*
X8686800Y-3824600D01*
X8646800Y-3784600D02*
X8726800Y-3784600D01*
X8686800Y-4506600D02*
X8686800Y-4586600D01*
X8646800Y-4546600D02*
X8726800Y-4546600D01*
X8686800Y-6960240D02*
X8686800Y-7040240D01*
X8646800Y-7000240D02*
X8726800Y-7000240D01*
X8686800Y-8484240D02*
X8686800Y-8564240D01*
X8646800Y-8524240D02*
X8726800Y-8524240D01*
X8687880Y-6650360D02*
X8687880Y-6730360D01*
X8647880Y-6690360D02*
X8727880Y-6690360D01*
X8691880Y-4841880D02*
X8691880Y-4921880D01*
X8651880Y-4881880D02*
X8731880Y-4881880D01*
X8691880Y-6365880D02*
X8691880Y-6445880D01*
X8651880Y-6405880D02*
X8731880Y-6405880D01*
X8931720Y-3500760D02*
X8931720Y-3580760D01*
X8891720Y-3540760D02*
X8971720Y-3540760D01*
X8935720Y-8900800D02*
X8935720Y-8980800D01*
X8895720Y-8940800D02*
X8975720Y-8940800D01*
X8935720Y-10424800D02*
X8935720Y-10504800D01*
X8895720Y-10464800D02*
X8975720Y-10464800D01*
X8940800Y-3744600D02*
X8940800Y-3824600D01*
X8900800Y-3784600D02*
X8980800Y-3784600D01*
X8940800Y-4506600D02*
X8940800Y-4586600D01*
X8900800Y-4546600D02*
X8980800Y-4546600D01*
X8940800Y-6960240D02*
X8940800Y-7040240D01*
X8900800Y-7000240D02*
X8980800Y-7000240D01*
X8940800Y-8484240D02*
X8940800Y-8564240D01*
X8900800Y-8524240D02*
X8980800Y-8524240D01*
X8945880Y-4841880D02*
X8945880Y-4921880D01*
X8905880Y-4881880D02*
X8985880Y-4881880D01*
X8945880Y-6365880D02*
X8945880Y-6445880D01*
X8905880Y-6405880D02*
X8985880Y-6405880D01*
X9189720Y-8900800D02*
X9189720Y-8980800D01*
X9149720Y-8940800D02*
X9229720Y-8940800D01*
X9189720Y-10424800D02*
X9189720Y-10504800D01*
X9149720Y-10464800D02*
X9229720Y-10464800D01*
X9194800Y-3744600D02*
X9194800Y-3824600D01*
X9154800Y-3784600D02*
X9234800Y-3784600D01*
X9194800Y-4506600D02*
X9194800Y-4586600D01*
X9154800Y-4546600D02*
X9234800Y-4546600D01*
X9194800Y-6960240D02*
X9194800Y-7040240D01*
X9154800Y-7000240D02*
X9234800Y-7000240D01*
X9194800Y-8484240D02*
X9194800Y-8564240D01*
X9154800Y-8524240D02*
X9234800Y-8524240D01*
X9199880Y-4841880D02*
X9199880Y-4921880D01*
X9159880Y-4881880D02*
X9239880Y-4881880D01*
X9199880Y-6365880D02*
X9199880Y-6445880D01*
X9159880Y-6405880D02*
X9239880Y-6405880D01*
X9443720Y-8900800D02*
X9443720Y-8980800D01*
X9403720Y-8940800D02*
X9483720Y-8940800D01*
X9443720Y-10424800D02*
X9443720Y-10504800D01*
X9403720Y-10464800D02*
X9483720Y-10464800D01*
X9448800Y-3744600D02*
X9448800Y-3824600D01*
X9408800Y-3784600D02*
X9488800Y-3784600D01*
X9448800Y-4506600D02*
X9448800Y-4586600D01*
X9408800Y-4546600D02*
X9488800Y-4546600D01*
X9448800Y-6960240D02*
X9448800Y-7040240D01*
X9408800Y-7000240D02*
X9488800Y-7000240D01*
X9448800Y-8484240D02*
X9448800Y-8564240D01*
X9408800Y-8524240D02*
X9488800Y-8524240D01*
X9453880Y-4841880D02*
X9453880Y-4921880D01*
X9413880Y-4881880D02*
X9493880Y-4881880D01*
X9453880Y-6365880D02*
X9453880Y-6445880D01*
X9413880Y-6405880D02*
X9493880Y-6405880D01*
X9513760Y-8108320D02*
X9513760Y-8188320D01*
X9473760Y-8148320D02*
X9553760Y-8148320D01*
X9513760Y-10008240D02*
X9513760Y-10088240D01*
X9473760Y-10048240D02*
X9553760Y-10048240D01*
X9697720Y-8900800D02*
X9697720Y-8980800D01*
X9657720Y-8940800D02*
X9737720Y-8940800D01*
X9697720Y-10424800D02*
X9697720Y-10504800D01*
X9657720Y-10464800D02*
X9737720Y-10464800D01*
X9702800Y-3744600D02*
X9702800Y-3824600D01*
X9662800Y-3784600D02*
X9742800Y-3784600D01*
X9702800Y-4506600D02*
X9702800Y-4586600D01*
X9662800Y-4546600D02*
X9742800Y-4546600D01*
X9702800Y-6960240D02*
X9702800Y-7040240D01*
X9662800Y-7000240D02*
X9742800Y-7000240D01*
X9702800Y-8484240D02*
X9702800Y-8564240D01*
X9662800Y-8524240D02*
X9742800Y-8524240D01*
X9707880Y-4841880D02*
X9707880Y-4921880D01*
X9667880Y-4881880D02*
X9747880Y-4881880D01*
X9707880Y-6365880D02*
X9707880Y-6445880D01*
X9667880Y-6405880D02*
X9747880Y-6405880D01*
X9763760Y-8108320D02*
X9763760Y-8188320D01*
X9723760Y-8148320D02*
X9803760Y-8148320D01*
X9763760Y-10008240D02*
X9763760Y-10088240D01*
X9723760Y-10048240D02*
X9803760Y-10048240D01*
X9849040Y-6685920D02*
X9849040Y-6765920D01*
X9809040Y-6725920D02*
X9889040Y-6725920D01*
X9951720Y-8900800D02*
X9951720Y-8980800D01*
X9911720Y-8940800D02*
X9991720Y-8940800D01*
X9951720Y-10424800D02*
X9951720Y-10504800D01*
X9911720Y-10464800D02*
X9991720Y-10464800D01*
X9956800Y-3744600D02*
X9956800Y-3824600D01*
X9916800Y-3784600D02*
X9996800Y-3784600D01*
X9956800Y-4506600D02*
X9956800Y-4586600D01*
X9916800Y-4546600D02*
X9996800Y-4546600D01*
X9956800Y-6960240D02*
X9956800Y-7040240D01*
X9916800Y-7000240D02*
X9996800Y-7000240D01*
X9956800Y-8484240D02*
X9956800Y-8564240D01*
X9916800Y-8524240D02*
X9996800Y-8524240D01*
X9961880Y-4841880D02*
X9961880Y-4921880D01*
X9921880Y-4881880D02*
X10001880Y-4881880D01*
X9961880Y-6365880D02*
X9961880Y-6445880D01*
X9921880Y-6405880D02*
X10001880Y-6405880D01*
X10099040Y-6685920D02*
X10099040Y-6765920D01*
X10059040Y-6725920D02*
X10139040Y-6725920D01*
X10210800Y-3744600D02*
X10210800Y-3824600D01*
X10170800Y-3784600D02*
X10250800Y-3784600D01*
X10210800Y-4506600D02*
X10210800Y-4586600D01*
X10170800Y-4546600D02*
X10250800Y-4546600D01*
X10215880Y-4841880D02*
X10215880Y-4921880D01*
X10175880Y-4881880D02*
X10255880Y-4881880D01*
X10215880Y-6365880D02*
X10215880Y-6445880D01*
X10175880Y-6405880D02*
X10255880Y-6405880D01*
X10373360Y-7732400D02*
X10373360Y-7812400D01*
X10333360Y-7772400D02*
X10413360Y-7772400D01*
X10373360Y-8494400D02*
X10373360Y-8574400D01*
X10333360Y-8534400D02*
X10413360Y-8534400D01*
X10373360Y-8900800D02*
X10373360Y-8980800D01*
X10333360Y-8940800D02*
X10413360Y-8940800D01*
X10373360Y-10424800D02*
X10373360Y-10504800D01*
X10333360Y-10464800D02*
X10413360Y-10464800D01*
X10383520Y-6670680D02*
X10383520Y-6750680D01*
X10343520Y-6710680D02*
X10423520Y-6710680D01*
X10383520Y-7432680D02*
X10383520Y-7512680D01*
X10343520Y-7472680D02*
X10423520Y-7472680D01*
X10469880Y-4841880D02*
X10469880Y-4921880D01*
X10429880Y-4881880D02*
X10509880Y-4881880D01*
X10469880Y-6365880D02*
X10469880Y-6445880D01*
X10429880Y-6405880D02*
X10509880Y-6405880D01*
X10627360Y-7732400D02*
X10627360Y-7812400D01*
X10587360Y-7772400D02*
X10667360Y-7772400D01*
X10627360Y-8494400D02*
X10627360Y-8574400D01*
X10587360Y-8534400D02*
X10667360Y-8534400D01*
X10627360Y-8900800D02*
X10627360Y-8980800D01*
X10587360Y-8940800D02*
X10667360Y-8940800D01*
X10627360Y-10424800D02*
X10627360Y-10504800D01*
X10587360Y-10464800D02*
X10667360Y-10464800D01*
X10637520Y-6670680D02*
X10637520Y-6750680D01*
X10597520Y-6710680D02*
X10677520Y-6710680D01*
X10637520Y-7432680D02*
X10637520Y-7512680D01*
X10597520Y-7472680D02*
X10677520Y-7472680D01*
X10723880Y-4841880D02*
X10723880Y-4921880D01*
X10683880Y-4881880D02*
X10763880Y-4881880D01*
X10723880Y-6365880D02*
X10723880Y-6445880D01*
X10683880Y-6405880D02*
X10763880Y-6405880D01*
X10820400Y-3744600D02*
X10820400Y-3824600D01*
X10780400Y-3784600D02*
X10860400Y-3784600D01*
X10820400Y-4506600D02*
X10820400Y-4586600D01*
X10780400Y-4546600D02*
X10860400Y-4546600D01*
X10881360Y-7732400D02*
X10881360Y-7812400D01*
X10841360Y-7772400D02*
X10921360Y-7772400D01*
X10881360Y-8494400D02*
X10881360Y-8574400D01*
X10841360Y-8534400D02*
X10921360Y-8534400D01*
X10881360Y-8900800D02*
X10881360Y-8980800D01*
X10841360Y-8940800D02*
X10921360Y-8940800D01*
X10881360Y-10424800D02*
X10881360Y-10504800D01*
X10841360Y-10464800D02*
X10921360Y-10464800D01*
X10891520Y-6670680D02*
X10891520Y-6750680D01*
X10851520Y-6710680D02*
X10931520Y-6710680D01*
X10891520Y-7432680D02*
X10891520Y-7512680D01*
X10851520Y-7472680D02*
X10931520Y-7472680D01*
X10977880Y-4841880D02*
X10977880Y-4921880D01*
X10937880Y-4881880D02*
X11017880Y-4881880D01*
X10977880Y-6365880D02*
X10977880Y-6445880D01*
X10937880Y-6405880D02*
X11017880Y-6405880D01*
X11074400Y-3744600D02*
X11074400Y-3824600D01*
X11034400Y-3784600D02*
X11114400Y-3784600D01*
X11074400Y-4506600D02*
X11074400Y-4586600D01*
X11034400Y-4546600D02*
X11114400Y-4546600D01*
X11135360Y-7732400D02*
X11135360Y-7812400D01*
X11095360Y-7772400D02*
X11175360Y-7772400D01*
X11135360Y-8494400D02*
X11135360Y-8574400D01*
X11095360Y-8534400D02*
X11175360Y-8534400D01*
X11135360Y-8900800D02*
X11135360Y-8980800D01*
X11095360Y-8940800D02*
X11175360Y-8940800D01*
X11135360Y-10424800D02*
X11135360Y-10504800D01*
X11095360Y-10464800D02*
X11175360Y-10464800D01*
X11145520Y-6670680D02*
X11145520Y-6750680D01*
X11105520Y-6710680D02*
X11185520Y-6710680D01*
X11145520Y-7432680D02*
X11145520Y-7512680D01*
X11105520Y-7472680D02*
X11185520Y-7472680D01*
X11231880Y-4841880D02*
X11231880Y-4921880D01*
X11191880Y-4881880D02*
X11271880Y-4881880D01*
X11231880Y-6365880D02*
X11231880Y-6445880D01*
X11191880Y-6405880D02*
X11271880Y-6405880D01*
X11328400Y-3744600D02*
X11328400Y-3824600D01*
X11288400Y-3784600D02*
X11368400Y-3784600D01*
X11328400Y-4506600D02*
X11328400Y-4586600D01*
X11288400Y-4546600D02*
X11368400Y-4546600D01*
X11389360Y-7732400D02*
X11389360Y-7812400D01*
X11349360Y-7772400D02*
X11429360Y-7772400D01*
X11389360Y-8494400D02*
X11389360Y-8574400D01*
X11349360Y-8534400D02*
X11429360Y-8534400D01*
X11389360Y-8900800D02*
X11389360Y-8980800D01*
X11349360Y-8940800D02*
X11429360Y-8940800D01*
X11389360Y-10424800D02*
X11389360Y-10504800D01*
X11349360Y-10464800D02*
X11429360Y-10464800D01*
X11399520Y-6670680D02*
X11399520Y-6750680D01*
X11359520Y-6710680D02*
X11439520Y-6710680D01*
X11399520Y-7432680D02*
X11399520Y-7512680D01*
X11359520Y-7472680D02*
X11439520Y-7472680D01*
X11485880Y-4841880D02*
X11485880Y-4921880D01*
X11445880Y-4881880D02*
X11525880Y-4881880D01*
X11485880Y-6365880D02*
X11485880Y-6445880D01*
X11445880Y-6405880D02*
X11525880Y-6405880D01*
X11582400Y-3744600D02*
X11582400Y-3824600D01*
X11542400Y-3784600D02*
X11622400Y-3784600D01*
X11582400Y-4506600D02*
X11582400Y-4586600D01*
X11542400Y-4546600D02*
X11622400Y-4546600D01*
X11643360Y-7732400D02*
X11643360Y-7812400D01*
X11603360Y-7772400D02*
X11683360Y-7772400D01*
X11643360Y-8494400D02*
X11643360Y-8574400D01*
X11603360Y-8534400D02*
X11683360Y-8534400D01*
X11643360Y-8900800D02*
X11643360Y-8980800D01*
X11603360Y-8940800D02*
X11683360Y-8940800D01*
X11643360Y-10424800D02*
X11643360Y-10504800D01*
X11603360Y-10464800D02*
X11683360Y-10464800D01*
X11653520Y-6670680D02*
X11653520Y-6750680D01*
X11613520Y-6710680D02*
X11693520Y-6710680D01*
X11653520Y-7432680D02*
X11653520Y-7512680D01*
X11613520Y-7472680D02*
X11693520Y-7472680D01*
X11836400Y-3744600D02*
X11836400Y-3824600D01*
X11796400Y-3784600D02*
X11876400Y-3784600D01*
X11836400Y-4506600D02*
X11836400Y-4586600D01*
X11796400Y-4546600D02*
X11876400Y-4546600D01*
X11897360Y-7732400D02*
X11897360Y-7812400D01*
X11857360Y-7772400D02*
X11937360Y-7772400D01*
X11897360Y-8494400D02*
X11897360Y-8574400D01*
X11857360Y-8534400D02*
X11937360Y-8534400D01*
X11897360Y-8900800D02*
X11897360Y-8980800D01*
X11857360Y-8940800D02*
X11937360Y-8940800D01*
X11897360Y-10424800D02*
X11897360Y-10504800D01*
X11857360Y-10464800D02*
X11937360Y-10464800D01*
X11907520Y-6670680D02*
X11907520Y-6750680D01*
X11867520Y-6710680D02*
X11947520Y-6710680D01*
X11907520Y-7432680D02*
X11907520Y-7512680D01*
X11867520Y-7472680D02*
X11947520Y-7472680D01*
X12090400Y-3744600D02*
X12090400Y-3824600D01*
X12050400Y-3784600D02*
X12130400Y-3784600D01*
X12090400Y-4506600D02*
X12090400Y-4586600D01*
X12050400Y-4546600D02*
X12130400Y-4546600D01*
X12151360Y-7732400D02*
X12151360Y-7812400D01*
X12111360Y-7772400D02*
X12191360Y-7772400D01*
X12151360Y-8494400D02*
X12151360Y-8574400D01*
X12111360Y-8534400D02*
X12191360Y-8534400D01*
X12151360Y-8900800D02*
X12151360Y-8980800D01*
X12111360Y-8940800D02*
X12191360Y-8940800D01*
X12151360Y-10424800D02*
X12151360Y-10504800D01*
X12111360Y-10464800D02*
X12191360Y-10464800D01*
X12161520Y-6670680D02*
X12161520Y-6750680D01*
X12121520Y-6710680D02*
X12201520Y-6710680D01*
X12161520Y-7432680D02*
X12161520Y-7512680D01*
X12121520Y-7472680D02*
X12201520Y-7472680D01*
X12256960Y-8143880D02*
X12256960Y-8223880D01*
X12216960Y-8183880D02*
X12296960Y-8183880D01*
X12344400Y-3744600D02*
X12344400Y-3824600D01*
X12304400Y-3784600D02*
X12384400Y-3784600D01*
X12344400Y-4506600D02*
X12344400Y-4586600D01*
X12304400Y-4546600D02*
X12384400Y-4546600D01*
X12344400Y-4750440D02*
X12344400Y-4830440D01*
X12304400Y-4790440D02*
X12384400Y-4790440D01*
X12405360Y-7732400D02*
X12405360Y-7812400D01*
X12365360Y-7772400D02*
X12445360Y-7772400D01*
X12405360Y-8494400D02*
X12405360Y-8574400D01*
X12365360Y-8534400D02*
X12445360Y-8534400D01*
X12405360Y-8900800D02*
X12405360Y-8980800D01*
X12365360Y-8940800D02*
X12445360Y-8940800D01*
X12405360Y-10424800D02*
X12405360Y-10504800D01*
X12365360Y-10464800D02*
X12445360Y-10464800D01*
X12415520Y-6670680D02*
X12415520Y-6750680D01*
X12375520Y-6710680D02*
X12455520Y-6710680D01*
X12415520Y-7432680D02*
X12415520Y-7512680D01*
X12375520Y-7472680D02*
X12455520Y-7472680D01*
X12506960Y-8143880D02*
X12506960Y-8223880D01*
X12466960Y-8183880D02*
X12546960Y-8183880D01*
X12594400Y-4750440D02*
X12594400Y-4830440D01*
X12554400Y-4790440D02*
X12634400Y-4790440D01*
X12659360Y-7732400D02*
X12659360Y-7812400D01*
X12619360Y-7772400D02*
X12699360Y-7772400D01*
X12659360Y-8494400D02*
X12659360Y-8574400D01*
X12619360Y-8534400D02*
X12699360Y-8534400D01*
X12659360Y-8900800D02*
X12659360Y-8980800D01*
X12619360Y-8940800D02*
X12699360Y-8940800D01*
X12659360Y-10424800D02*
X12659360Y-10504800D01*
X12619360Y-10464800D02*
X12699360Y-10464800D01*
X12669520Y-6670680D02*
X12669520Y-6750680D01*
X12629520Y-6710680D02*
X12709520Y-6710680D01*
X12669520Y-7432680D02*
X12669520Y-7512680D01*
X12629520Y-7472680D02*
X12709520Y-7472680D01*
X12913360Y-8900800D02*
X12913360Y-8980800D01*
X12873360Y-8940800D02*
X12953360Y-8940800D01*
X12913360Y-10424800D02*
X12913360Y-10504800D01*
X12873360Y-10464800D02*
X12953360Y-10464800D01*
X13167360Y-8900800D02*
X13167360Y-8980800D01*
X13127360Y-8940800D02*
X13207360Y-8940800D01*
X13167360Y-10424800D02*
X13167360Y-10504800D01*
X13127360Y-10464800D02*
X13207360Y-10464800D01*
X13202920Y-8330760D02*
X13202920Y-8410760D01*
X13162920Y-8370760D02*
X13242920Y-8370760D01*
X13202920Y-8580760D02*
X13202920Y-8660760D01*
X13162920Y-8620760D02*
X13242920Y-8620760D01*
X13421360Y-8900800D02*
X13421360Y-8980800D01*
X13381360Y-8940800D02*
X13461360Y-8940800D01*
X13421360Y-10424800D02*
X13421360Y-10504800D01*
X13381360Y-10464800D02*
X13461360Y-10464800D01*
X13675360Y-8900800D02*
X13675360Y-8980800D01*
X13635360Y-8940800D02*
X13715360Y-8940800D01*
X13675360Y-10424800D02*
X13675360Y-10504800D01*
X13635360Y-10464800D02*
X13715360Y-10464800D01*
X13710920Y-3703960D02*
X13710920Y-3783960D01*
X13670920Y-3743960D02*
X13750920Y-3743960D01*
X13710920Y-3957960D02*
X13710920Y-4037960D01*
X13670920Y-3997960D02*
X13750920Y-3997960D01*
X13710920Y-4211960D02*
X13710920Y-4291960D01*
X13670920Y-4251960D02*
X13750920Y-4251960D01*
X13710920Y-4465960D02*
X13710920Y-4545960D01*
X13670920Y-4505960D02*
X13750920Y-4505960D01*
X13710920Y-4719960D02*
X13710920Y-4799960D01*
X13670920Y-4759960D02*
X13750920Y-4759960D01*
X13710920Y-4973960D02*
X13710920Y-5053960D01*
X13670920Y-5013960D02*
X13750920Y-5013960D01*
X13710920Y-5227960D02*
X13710920Y-5307960D01*
X13670920Y-5267960D02*
X13750920Y-5267960D01*
X13710920Y-5481960D02*
X13710920Y-5561960D01*
X13670920Y-5521960D02*
X13750920Y-5521960D01*
X13710920Y-5735960D02*
X13710920Y-5815960D01*
X13670920Y-5775960D02*
X13750920Y-5775960D01*
X13710920Y-5989960D02*
X13710920Y-6069960D01*
X13670920Y-6029960D02*
X13750920Y-6029960D01*
X13710920Y-6243960D02*
X13710920Y-6323960D01*
X13670920Y-6283960D02*
X13750920Y-6283960D01*
X13710920Y-6497960D02*
X13710920Y-6577960D01*
X13670920Y-6537960D02*
X13750920Y-6537960D01*
X13710920Y-6751960D02*
X13710920Y-6831960D01*
X13670920Y-6791960D02*
X13750920Y-6791960D01*
X13710920Y-7005960D02*
X13710920Y-7085960D01*
X13670920Y-7045960D02*
X13750920Y-7045960D01*
X13710920Y-7259960D02*
X13710920Y-7339960D01*
X13670920Y-7299960D02*
X13750920Y-7299960D01*
X13710920Y-7513960D02*
X13710920Y-7593960D01*
X13670920Y-7553960D02*
X13750920Y-7553960D01*
X13710920Y-7767960D02*
X13710920Y-7847960D01*
X13670920Y-7807960D02*
X13750920Y-7807960D01*
X13710920Y-8021960D02*
X13710920Y-8101960D01*
X13670920Y-8061960D02*
X13750920Y-8061960D01*
X13710920Y-8275960D02*
X13710920Y-8355960D01*
X13670920Y-8315960D02*
X13750920Y-8315960D01*
X13710920Y-8529960D02*
X13710920Y-8609960D01*
X13670920Y-8569960D02*
X13750920Y-8569960D01*
X13929360Y-8900800D02*
X13929360Y-8980800D01*
X13889360Y-8940800D02*
X13969360Y-8940800D01*
X13929360Y-10424800D02*
X13929360Y-10504800D01*
X13889360Y-10464800D02*
X13969360Y-10464800D01*
X14183360Y-8900800D02*
X14183360Y-8980800D01*
X14143360Y-8940800D02*
X14223360Y-8940800D01*
X14183360Y-10424800D02*
X14183360Y-10504800D01*
X14143360Y-10464800D02*
X14223360Y-10464800D01*
X14437360Y-8900800D02*
X14437360Y-8980800D01*
X14397360Y-8940800D02*
X14477360Y-8940800D01*
X14437360Y-10424800D02*
X14437360Y-10504800D01*
X14397360Y-10464800D02*
X14477360Y-10464800D01*
X14691360Y-8900800D02*
X14691360Y-8980800D01*
X14651360Y-8940800D02*
X14731360Y-8940800D01*
X14691360Y-10424800D02*
X14691360Y-10504800D01*
X14651360Y-10464800D02*
X14731360Y-10464800D01*
X14786800Y-9993000D02*
X14786800Y-10073000D01*
X14746800Y-10033000D02*
X14826800Y-10033000D01*
X14945360Y-8900800D02*
X14945360Y-8980800D01*
X14905360Y-8940800D02*
X14985360Y-8940800D01*
X14945360Y-10424800D02*
X14945360Y-10504800D01*
X14905360Y-10464800D02*
X14985360Y-10464800D01*
X15036800Y-9993000D02*
X15036800Y-10073000D01*
X14996800Y-10033000D02*
X15076800Y-10033000D01*
X15199360Y-8900800D02*
X15199360Y-8980800D01*
X15159360Y-8940800D02*
X15239360Y-8940800D01*
X15199360Y-10424800D02*
X15199360Y-10504800D01*
X15159360Y-10464800D02*
X15239360Y-10464800D01*
X15234920Y-3703960D02*
X15234920Y-3783960D01*
X15194920Y-3743960D02*
X15274920Y-3743960D01*
X15234920Y-3957960D02*
X15234920Y-4037960D01*
X15194920Y-3997960D02*
X15274920Y-3997960D01*
X15234920Y-4211960D02*
X15234920Y-4291960D01*
X15194920Y-4251960D02*
X15274920Y-4251960D01*
X15234920Y-4465960D02*
X15234920Y-4545960D01*
X15194920Y-4505960D02*
X15274920Y-4505960D01*
X15234920Y-4719960D02*
X15234920Y-4799960D01*
X15194920Y-4759960D02*
X15274920Y-4759960D01*
X15234920Y-4973960D02*
X15234920Y-5053960D01*
X15194920Y-5013960D02*
X15274920Y-5013960D01*
X15234920Y-5227960D02*
X15234920Y-5307960D01*
X15194920Y-5267960D02*
X15274920Y-5267960D01*
X15234920Y-5481960D02*
X15234920Y-5561960D01*
X15194920Y-5521960D02*
X15274920Y-5521960D01*
X15234920Y-5735960D02*
X15234920Y-5815960D01*
X15194920Y-5775960D02*
X15274920Y-5775960D01*
X15234920Y-5989960D02*
X15234920Y-6069960D01*
X15194920Y-6029960D02*
X15274920Y-6029960D01*
X15234920Y-6243960D02*
X15234920Y-6323960D01*
X15194920Y-6283960D02*
X15274920Y-6283960D01*
X15234920Y-6497960D02*
X15234920Y-6577960D01*
X15194920Y-6537960D02*
X15274920Y-6537960D01*
X15234920Y-6751960D02*
X15234920Y-6831960D01*
X15194920Y-6791960D02*
X15274920Y-6791960D01*
X15234920Y-7005960D02*
X15234920Y-7085960D01*
X15194920Y-7045960D02*
X15274920Y-7045960D01*
X15234920Y-7259960D02*
X15234920Y-7339960D01*
X15194920Y-7299960D02*
X15274920Y-7299960D01*
X15234920Y-7513960D02*
X15234920Y-7593960D01*
X15194920Y-7553960D02*
X15274920Y-7553960D01*
X15234920Y-7767960D02*
X15234920Y-7847960D01*
X15194920Y-7807960D02*
X15274920Y-7807960D01*
X15234920Y-8021960D02*
X15234920Y-8101960D01*
X15194920Y-8061960D02*
X15274920Y-8061960D01*
X15234920Y-8275960D02*
X15234920Y-8355960D01*
X15194920Y-8315960D02*
X15274920Y-8315960D01*
X15234920Y-8529960D02*
X15234920Y-8609960D01*
X15194920Y-8569960D02*
X15274920Y-8569960D01*
X15687040Y-10104760D02*
X15687040Y-10184760D01*
X15647040Y-10144760D02*
X15727040Y-10144760D01*
X15702280Y-4084960D02*
X15702280Y-4164960D01*
X15662280Y-4124960D02*
X15742280Y-4124960D01*
X16187040Y-10104760D02*
X16187040Y-10184760D01*
X16147040Y-10144760D02*
X16227040Y-10144760D01*
X16202280Y-4084960D02*
X16202280Y-4164960D01*
X16162280Y-4124960D02*
X16242280Y-4124960D01*
X5159845Y-10041725D02*
X5159845Y-9973475D01*
X5091595Y-9973475D01*
X5091595Y-10041725D01*
X5159845Y-10041725D01*
X5159845Y-10290645D02*
X5159845Y-10222395D01*
X5091595Y-10222395D01*
X5091595Y-10290645D01*
X5159845Y-10290645D01*
X5327485Y-10290645D02*
X5327485Y-10222395D01*
X5259235Y-10222395D01*
X5259235Y-10290645D01*
X5327485Y-10290645D01*
X5495125Y-10290645D02*
X5495125Y-10222395D01*
X5426875Y-10222395D01*
X5426875Y-10290645D01*
X5495125Y-10290645D01*
X5662765Y-10041725D02*
X5662765Y-9973475D01*
X5594515Y-9973475D01*
X5594515Y-10041725D01*
X5662765Y-10041725D01*
X5662765Y-10290645D02*
X5662765Y-10222395D01*
X5594515Y-10222395D01*
X5594515Y-10290645D01*
X5662765Y-10290645D01*
X4043680Y-3479000D02*
X4093680Y-3429000D01*
X4043680Y-3379000D01*
X3993680Y-3429000D01*
X4043680Y-3479000D01*
X4043680Y-3733000D02*
X4093680Y-3683000D01*
X4043680Y-3633000D01*
X3993680Y-3683000D01*
X4043680Y-3733000D01*
X4043680Y-3987000D02*
X4093680Y-3937000D01*
X4043680Y-3887000D01*
X3993680Y-3937000D01*
X4043680Y-3987000D01*
X4043680Y-4241000D02*
X4093680Y-4191000D01*
X4043680Y-4141000D01*
X3993680Y-4191000D01*
X4043680Y-4241000D01*
X4043680Y-4495000D02*
X4093680Y-4445000D01*
X4043680Y-4395000D01*
X3993680Y-4445000D01*
X4043680Y-4495000D01*
X4043680Y-9849320D02*
X4093680Y-9799320D01*
X4043680Y-9749320D01*
X3993680Y-9799320D01*
X4043680Y-9849320D01*
X4043680Y-10103320D02*
X4093680Y-10053320D01*
X4043680Y-10003320D01*
X3993680Y-10053320D01*
X4043680Y-10103320D01*
X4043680Y-10357320D02*
X4093680Y-10307320D01*
X4043680Y-10257320D01*
X3993680Y-10307320D01*
X4043680Y-10357320D01*
X4043680Y-10611320D02*
X4093680Y-10561320D01*
X4043680Y-10511320D01*
X3993680Y-10561320D01*
X4043680Y-10611320D01*
X4043680Y-10865320D02*
X4093680Y-10815320D01*
X4043680Y-10765320D01*
X3993680Y-10815320D01*
X4043680Y-10865320D01*
X5532360Y-3539960D02*
X5582360Y-3489960D01*
X5532360Y-3439960D01*
X5482360Y-3489960D01*
X5532360Y-3539960D01*
X5532360Y-3989960D02*
X5582360Y-3939960D01*
X5532360Y-3889960D01*
X5482360Y-3939960D01*
X5532360Y-3989960D01*
X6182360Y-3539960D02*
X6232360Y-3489960D01*
X6182360Y-3439960D01*
X6132360Y-3489960D01*
X6182360Y-3539960D01*
X6182360Y-3989960D02*
X6232360Y-3939960D01*
X6182360Y-3889960D01*
X6132360Y-3939960D01*
X6182360Y-3989960D01*
X10632440Y-10860240D02*
X10682440Y-10810240D01*
X10632440Y-10760240D01*
X10582440Y-10810240D01*
X10632440Y-10860240D01*
X10886440Y-10860240D02*
X10936440Y-10810240D01*
X10886440Y-10760240D01*
X10836440Y-10810240D01*
X10886440Y-10860240D01*
X11140440Y-10860240D02*
X11190440Y-10810240D01*
X11140440Y-10760240D01*
X11090440Y-10810240D01*
X11140440Y-10860240D01*
X11394440Y-10860240D02*
X11444440Y-10810240D01*
X11394440Y-10760240D01*
X11344440Y-10810240D01*
X11394440Y-10860240D01*
X11648440Y-10860240D02*
X11698440Y-10810240D01*
X11648440Y-10760240D01*
X11598440Y-10810240D01*
X11648440Y-10860240D01*
X11902440Y-10860240D02*
X11952440Y-10810240D01*
X11902440Y-10760240D01*
X11852440Y-10810240D01*
X11902440Y-10860240D01*
X12156440Y-10860240D02*
X12206440Y-10810240D01*
X12156440Y-10760240D01*
X12106440Y-10810240D01*
X12156440Y-10860240D01*
X12252960Y-3448520D02*
X12302960Y-3398520D01*
X12252960Y-3348520D01*
X12202960Y-3398520D01*
X12252960Y-3448520D01*
X12410440Y-10860240D02*
X12460440Y-10810240D01*
X12410440Y-10760240D01*
X12360440Y-10810240D01*
X12410440Y-10860240D01*
X12506960Y-3448520D02*
X12556960Y-3398520D01*
X12506960Y-3348520D01*
X12456960Y-3398520D01*
X12506960Y-3448520D01*
X12664440Y-10860240D02*
X12714440Y-10810240D01*
X12664440Y-10760240D01*
X12614440Y-10810240D01*
X12664440Y-10860240D01*
X12760960Y-3448520D02*
X12810960Y-3398520D01*
X12760960Y-3348520D01*
X12710960Y-3398520D01*
X12760960Y-3448520D01*
X12918440Y-10860240D02*
X12968440Y-10810240D01*
X12918440Y-10760240D01*
X12868440Y-10810240D01*
X12918440Y-10860240D01*
X13014960Y-3448520D02*
X13064960Y-3398520D01*
X13014960Y-3348520D01*
X12964960Y-3398520D01*
X13014960Y-3448520D01*
X13172440Y-10860240D02*
X13222440Y-10810240D01*
X13172440Y-10760240D01*
X13122440Y-10810240D01*
X13172440Y-10860240D01*
X13268960Y-3448520D02*
X13318960Y-3398520D01*
X13268960Y-3348520D01*
X13218960Y-3398520D01*
X13268960Y-3448520D01*
X13426440Y-10860240D02*
X13476440Y-10810240D01*
X13426440Y-10760240D01*
X13376440Y-10810240D01*
X13426440Y-10860240D01*
X13680440Y-10860240D02*
X13730440Y-10810240D01*
X13680440Y-10760240D01*
X13630440Y-10810240D01*
X13680440Y-10860240D01*
X13934440Y-10860240D02*
X13984440Y-10810240D01*
X13934440Y-10760240D01*
X13884440Y-10810240D01*
X13934440Y-10860240D01*
X14188440Y-10860240D02*
X14238440Y-10810240D01*
X14188440Y-10760240D01*
X14138440Y-10810240D01*
X14188440Y-10860240D01*
X14442440Y-10860240D02*
X14492440Y-10810240D01*
X14442440Y-10760240D01*
X14392440Y-10810240D01*
X14442440Y-10860240D01*
X16677640Y-4047960D02*
X16727640Y-3997960D01*
X16677640Y-3947960D01*
X16627640Y-3997960D01*
X16677640Y-4047960D01*
X16677640Y-4301960D02*
X16727640Y-4251960D01*
X16677640Y-4201960D01*
X16627640Y-4251960D01*
X16677640Y-4301960D01*
X16677640Y-4555960D02*
X16727640Y-4505960D01*
X16677640Y-4455960D01*
X16627640Y-4505960D01*
X16677640Y-4555960D01*
X16677640Y-4809960D02*
X16727640Y-4759960D01*
X16677640Y-4709960D01*
X16627640Y-4759960D01*
X16677640Y-4809960D01*
X16677640Y-5063960D02*
X16727640Y-5013960D01*
X16677640Y-4963960D01*
X16627640Y-5013960D01*
X16677640Y-5063960D01*
X16677640Y-5317960D02*
X16727640Y-5267960D01*
X16677640Y-5217960D01*
X16627640Y-5267960D01*
X16677640Y-5317960D01*
X16677640Y-5571960D02*
X16727640Y-5521960D01*
X16677640Y-5471960D01*
X16627640Y-5521960D01*
X16677640Y-5571960D01*
X16677640Y-5825960D02*
X16727640Y-5775960D01*
X16677640Y-5725960D01*
X16627640Y-5775960D01*
X16677640Y-5825960D01*
X16677640Y-6079960D02*
X16727640Y-6029960D01*
X16677640Y-5979960D01*
X16627640Y-6029960D01*
X16677640Y-6079960D01*
X16677640Y-6333960D02*
X16727640Y-6283960D01*
X16677640Y-6233960D01*
X16627640Y-6283960D01*
X16677640Y-6333960D01*
X16677640Y-6587960D02*
X16727640Y-6537960D01*
X16677640Y-6487960D01*
X16627640Y-6537960D01*
X16677640Y-6587960D01*
X16677640Y-6841960D02*
X16727640Y-6791960D01*
X16677640Y-6741960D01*
X16627640Y-6791960D01*
X16677640Y-6841960D01*
X16677640Y-7095960D02*
X16727640Y-7045960D01*
X16677640Y-6995960D01*
X16627640Y-7045960D01*
X16677640Y-7095960D01*
X16677640Y-7349960D02*
X16727640Y-7299960D01*
X16677640Y-7249960D01*
X16627640Y-7299960D01*
X16677640Y-7349960D01*
X16677640Y-7603960D02*
X16727640Y-7553960D01*
X16677640Y-7503960D01*
X16627640Y-7553960D01*
X16677640Y-7603960D01*
X16677640Y-7857960D02*
X16727640Y-7807960D01*
X16677640Y-7757960D01*
X16627640Y-7807960D01*
X16677640Y-7857960D01*
X16677640Y-9915360D02*
X16727640Y-9865360D01*
X16677640Y-9815360D01*
X16627640Y-9865360D01*
X16677640Y-9915360D01*
X16677640Y-10169360D02*
X16727640Y-10119360D01*
X16677640Y-10069360D01*
X16627640Y-10119360D01*
X16677640Y-10169360D01*
X16677640Y-10423360D02*
X16727640Y-10373360D01*
X16677640Y-10323360D01*
X16627640Y-10373360D01*
X16677640Y-10423360D01*
X16677640Y-10677360D02*
X16727640Y-10627360D01*
X16677640Y-10577360D01*
X16627640Y-10627360D01*
X16677640Y-10677360D01*
X16677640Y-10931360D02*
X16727640Y-10881360D01*
X16677640Y-10831360D01*
X16627640Y-10881360D01*
X16677640Y-10931360D01*
X4583430Y-10438130D02*
X4819650Y-10674350D01*
X4819650Y-10438130D02*
X4583430Y-10674350D01*
X4819650Y-10556240D02*
G75*
G03*
X4819650Y-10556240I-118110J0D01*
G01*
X5259070Y-10519410D02*
X5495290Y-10755630D01*
X5495290Y-10519410D02*
X5259070Y-10755630D01*
X5495290Y-10637520D02*
G75*
G03*
X5495290Y-10637520I-118110J0D01*
G01*
X5934710Y-10438130D02*
X6170930Y-10674350D01*
X6170930Y-10438130D02*
X5934710Y-10674350D01*
X6170930Y-10556240D02*
G75*
G03*
X6170930Y-10556240I-118110J0D01*
G01*
D12*
X4081268Y-11600994D02*
X4081268Y-11300994D01*
X4152697Y-11300994D01*
X4195554Y-11315280D01*
X4224126Y-11343851D01*
X4238411Y-11372423D01*
X4252697Y-11429566D01*
X4252697Y-11472423D01*
X4238411Y-11529566D01*
X4224126Y-11558137D01*
X4195554Y-11586709D01*
X4152697Y-11600994D01*
X4081268Y-11600994D01*
X4381268Y-11600994D02*
X4381268Y-11400994D01*
X4381268Y-11458137D02*
X4395554Y-11429566D01*
X4409840Y-11415280D01*
X4438411Y-11400994D01*
X4466983Y-11400994D01*
X4566983Y-11600994D02*
X4566983Y-11400994D01*
X4566983Y-11300994D02*
X4552697Y-11315280D01*
X4566983Y-11329566D01*
X4581268Y-11315280D01*
X4566983Y-11300994D01*
X4566983Y-11329566D01*
X4752697Y-11600994D02*
X4724126Y-11586709D01*
X4709840Y-11558137D01*
X4709840Y-11300994D01*
X4909840Y-11600994D02*
X4881268Y-11586709D01*
X4866983Y-11558137D01*
X4866983Y-11300994D01*
X5252697Y-11600994D02*
X5252697Y-11300994D01*
X5352697Y-11515280D01*
X5452697Y-11300994D01*
X5452697Y-11600994D01*
X5724126Y-11600994D02*
X5724126Y-11443851D01*
X5709840Y-11415280D01*
X5681268Y-11400994D01*
X5624126Y-11400994D01*
X5595554Y-11415280D01*
X5724126Y-11586709D02*
X5695554Y-11600994D01*
X5624126Y-11600994D01*
X5595554Y-11586709D01*
X5581268Y-11558137D01*
X5581268Y-11529566D01*
X5595554Y-11500994D01*
X5624126Y-11486709D01*
X5695554Y-11486709D01*
X5724126Y-11472423D01*
X5866983Y-11400994D02*
X5866983Y-11700994D01*
X5866983Y-11415280D02*
X5895554Y-11400994D01*
X5952697Y-11400994D01*
X5981268Y-11415280D01*
X5995554Y-11429566D01*
X6009840Y-11458137D01*
X6009840Y-11543851D01*
X5995554Y-11572423D01*
X5981268Y-11586709D01*
X5952697Y-11600994D01*
X5895554Y-11600994D01*
X5866983Y-11586709D01*
X6138411Y-11572423D02*
X6152697Y-11586709D01*
X6138411Y-11600994D01*
X6124126Y-11586709D01*
X6138411Y-11572423D01*
X6138411Y-11600994D01*
X6138411Y-11415280D02*
X6152697Y-11429566D01*
X6138411Y-11443851D01*
X6124126Y-11429566D01*
X6138411Y-11415280D01*
X6138411Y-11443851D01*
X3754840Y-12075280D02*
X3794840Y-12115280D01*
X3794840Y-12075280D02*
X3754840Y-12115280D01*
X4138411Y-11930994D02*
X4166983Y-11930994D01*
X4195554Y-11945280D01*
X4209840Y-11959566D01*
X4224126Y-11988137D01*
X4238411Y-12045280D01*
X4238411Y-12116709D01*
X4224126Y-12173851D01*
X4209840Y-12202423D01*
X4195554Y-12216709D01*
X4166983Y-12230994D01*
X4138411Y-12230994D01*
X4109840Y-12216709D01*
X4095554Y-12202423D01*
X4081268Y-12173851D01*
X4066983Y-12116709D01*
X4066983Y-12045280D01*
X4081268Y-11988137D01*
X4095554Y-11959566D01*
X4109840Y-11945280D01*
X4138411Y-11930994D01*
X4366983Y-12202423D02*
X4381268Y-12216709D01*
X4366983Y-12230994D01*
X4352697Y-12216709D01*
X4366983Y-12202423D01*
X4366983Y-12230994D01*
X4638411Y-12030994D02*
X4638411Y-12230994D01*
X4566983Y-11916709D02*
X4495554Y-12130994D01*
X4681268Y-12130994D01*
X4852697Y-11930994D02*
X4881268Y-11930994D01*
X4909840Y-11945280D01*
X4924126Y-11959566D01*
X4938411Y-11988137D01*
X4952697Y-12045280D01*
X4952697Y-12116709D01*
X4938411Y-12173851D01*
X4924126Y-12202423D01*
X4909840Y-12216709D01*
X4881268Y-12230994D01*
X4852697Y-12230994D01*
X4824126Y-12216709D01*
X4809840Y-12202423D01*
X4795554Y-12173851D01*
X4781268Y-12116709D01*
X4781268Y-12045280D01*
X4795554Y-11988137D01*
X4809840Y-11959566D01*
X4824126Y-11945280D01*
X4852697Y-11930994D01*
X5138411Y-11930994D02*
X5166983Y-11930994D01*
X5195554Y-11945280D01*
X5209840Y-11959566D01*
X5224126Y-11988137D01*
X5238411Y-12045280D01*
X5238411Y-12116709D01*
X5224126Y-12173851D01*
X5209840Y-12202423D01*
X5195554Y-12216709D01*
X5166983Y-12230994D01*
X5138411Y-12230994D01*
X5109840Y-12216709D01*
X5095554Y-12202423D01*
X5081268Y-12173851D01*
X5066983Y-12116709D01*
X5066983Y-12045280D01*
X5081268Y-11988137D01*
X5095554Y-11959566D01*
X5109840Y-11945280D01*
X5138411Y-11930994D01*
X5366983Y-12230994D02*
X5366983Y-12030994D01*
X5366983Y-12059566D02*
X5381268Y-12045280D01*
X5409840Y-12030994D01*
X5452697Y-12030994D01*
X5481268Y-12045280D01*
X5495554Y-12073851D01*
X5495554Y-12230994D01*
X5495554Y-12073851D02*
X5509840Y-12045280D01*
X5538411Y-12030994D01*
X5581268Y-12030994D01*
X5609840Y-12045280D01*
X5624126Y-12073851D01*
X5624126Y-12230994D01*
X5766983Y-12230994D02*
X5766983Y-12030994D01*
X5766983Y-12059566D02*
X5781268Y-12045280D01*
X5809840Y-12030994D01*
X5852697Y-12030994D01*
X5881268Y-12045280D01*
X5895554Y-12073851D01*
X5895554Y-12230994D01*
X5895554Y-12073851D02*
X5909840Y-12045280D01*
X5938411Y-12030994D01*
X5981268Y-12030994D01*
X6009840Y-12045280D01*
X6024126Y-12073851D01*
X6024126Y-12230994D01*
X6609840Y-11916709D02*
X6352697Y-12302423D01*
X6995554Y-11930994D02*
X7024126Y-11930994D01*
X7052697Y-11945280D01*
X7066983Y-11959566D01*
X7081268Y-11988137D01*
X7095554Y-12045280D01*
X7095554Y-12116709D01*
X7081268Y-12173851D01*
X7066983Y-12202423D01*
X7052697Y-12216709D01*
X7024126Y-12230994D01*
X6995554Y-12230994D01*
X6966983Y-12216709D01*
X6952697Y-12202423D01*
X6938411Y-12173851D01*
X6924126Y-12116709D01*
X6924126Y-12045280D01*
X6938411Y-11988137D01*
X6952697Y-11959566D01*
X6966983Y-11945280D01*
X6995554Y-11930994D01*
X7224126Y-12202423D02*
X7238411Y-12216709D01*
X7224126Y-12230994D01*
X7209840Y-12216709D01*
X7224126Y-12202423D01*
X7224126Y-12230994D01*
X7424126Y-11930994D02*
X7452697Y-11930994D01*
X7481268Y-11945280D01*
X7495554Y-11959566D01*
X7509840Y-11988137D01*
X7524126Y-12045280D01*
X7524126Y-12116709D01*
X7509840Y-12173851D01*
X7495554Y-12202423D01*
X7481268Y-12216709D01*
X7452697Y-12230994D01*
X7424126Y-12230994D01*
X7395554Y-12216709D01*
X7381268Y-12202423D01*
X7366983Y-12173851D01*
X7352697Y-12116709D01*
X7352697Y-12045280D01*
X7366983Y-11988137D01*
X7381268Y-11959566D01*
X7395554Y-11945280D01*
X7424126Y-11930994D01*
X7809840Y-12230994D02*
X7638411Y-12230994D01*
X7724126Y-12230994D02*
X7724126Y-11930994D01*
X7695554Y-11973851D01*
X7666983Y-12002423D01*
X7638411Y-12016709D01*
X8081268Y-11930994D02*
X7938411Y-11930994D01*
X7924126Y-12073851D01*
X7938411Y-12059566D01*
X7966983Y-12045280D01*
X8038411Y-12045280D01*
X8066983Y-12059566D01*
X8081268Y-12073851D01*
X8095554Y-12102423D01*
X8095554Y-12173851D01*
X8081268Y-12202423D01*
X8066983Y-12216709D01*
X8038411Y-12230994D01*
X7966983Y-12230994D01*
X7938411Y-12216709D01*
X7924126Y-12202423D01*
X8195554Y-11930994D02*
X8395554Y-11930994D01*
X8266983Y-12230994D01*
X8495554Y-11930994D02*
X8495554Y-11988137D01*
X8609840Y-11930994D02*
X8609840Y-11988137D01*
X9052697Y-12345280D02*
X9038411Y-12330994D01*
X9009840Y-12288137D01*
X8995554Y-12259566D01*
X8981268Y-12216709D01*
X8966983Y-12145280D01*
X8966983Y-12088137D01*
X8981268Y-12016709D01*
X8995554Y-11973851D01*
X9009840Y-11945280D01*
X9038411Y-11902423D01*
X9052697Y-11888137D01*
X9324126Y-12230994D02*
X9152697Y-12230994D01*
X9238411Y-12230994D02*
X9238411Y-11930994D01*
X9209840Y-11973851D01*
X9181268Y-12002423D01*
X9152697Y-12016709D01*
X9595554Y-11930994D02*
X9452697Y-11930994D01*
X9438411Y-12073851D01*
X9452697Y-12059566D01*
X9481268Y-12045280D01*
X9552697Y-12045280D01*
X9581268Y-12059566D01*
X9595554Y-12073851D01*
X9609840Y-12102423D01*
X9609840Y-12173851D01*
X9595554Y-12202423D01*
X9581268Y-12216709D01*
X9552697Y-12230994D01*
X9481268Y-12230994D01*
X9452697Y-12216709D01*
X9438411Y-12202423D01*
X9709840Y-11930994D02*
X9895554Y-11930994D01*
X9795554Y-12045280D01*
X9838411Y-12045280D01*
X9866983Y-12059566D01*
X9881268Y-12073851D01*
X9895554Y-12102423D01*
X9895554Y-12173851D01*
X9881268Y-12202423D01*
X9866983Y-12216709D01*
X9838411Y-12230994D01*
X9752697Y-12230994D01*
X9724126Y-12216709D01*
X9709840Y-12202423D01*
X10252697Y-12230994D02*
X10252697Y-11930994D01*
X10381268Y-12230994D02*
X10381268Y-12073851D01*
X10366983Y-12045280D01*
X10338411Y-12030994D01*
X10295554Y-12030994D01*
X10266983Y-12045280D01*
X10252697Y-12059566D01*
X10566983Y-12230994D02*
X10538411Y-12216709D01*
X10524126Y-12202423D01*
X10509840Y-12173851D01*
X10509840Y-12088137D01*
X10524126Y-12059566D01*
X10538411Y-12045280D01*
X10566983Y-12030994D01*
X10609840Y-12030994D01*
X10638411Y-12045280D01*
X10652697Y-12059566D01*
X10666983Y-12088137D01*
X10666983Y-12173851D01*
X10652697Y-12202423D01*
X10638411Y-12216709D01*
X10609840Y-12230994D01*
X10566983Y-12230994D01*
X10838411Y-12230994D02*
X10809840Y-12216709D01*
X10795554Y-12188137D01*
X10795554Y-11930994D01*
X11066983Y-12216709D02*
X11038411Y-12230994D01*
X10981268Y-12230994D01*
X10952697Y-12216709D01*
X10938411Y-12188137D01*
X10938411Y-12073851D01*
X10952697Y-12045280D01*
X10981268Y-12030994D01*
X11038411Y-12030994D01*
X11066983Y-12045280D01*
X11081268Y-12073851D01*
X11081268Y-12102423D01*
X10938411Y-12130994D01*
X11195554Y-12216709D02*
X11224126Y-12230994D01*
X11281268Y-12230994D01*
X11309840Y-12216709D01*
X11324126Y-12188137D01*
X11324126Y-12173851D01*
X11309840Y-12145280D01*
X11281268Y-12130994D01*
X11238411Y-12130994D01*
X11209840Y-12116709D01*
X11195554Y-12088137D01*
X11195554Y-12073851D01*
X11209840Y-12045280D01*
X11238411Y-12030994D01*
X11281268Y-12030994D01*
X11309840Y-12045280D01*
X11424126Y-12345280D02*
X11438411Y-12330994D01*
X11466983Y-12288137D01*
X11481268Y-12259566D01*
X11495554Y-12216709D01*
X11509840Y-12145280D01*
X11509840Y-12088137D01*
X11495554Y-12016709D01*
X11481268Y-11973851D01*
X11466983Y-11945280D01*
X11438411Y-11902423D01*
X11424126Y-11888137D01*
X3794840Y-12491280D02*
G75*
G03*
X3794840Y-12491280I-35000J0D01*
G01*
X4138411Y-12326994D02*
X4166983Y-12326994D01*
X4195554Y-12341280D01*
X4209840Y-12355566D01*
X4224126Y-12384137D01*
X4238411Y-12441280D01*
X4238411Y-12512709D01*
X4224126Y-12569851D01*
X4209840Y-12598423D01*
X4195554Y-12612709D01*
X4166983Y-12626994D01*
X4138411Y-12626994D01*
X4109840Y-12612709D01*
X4095554Y-12598423D01*
X4081268Y-12569851D01*
X4066983Y-12512709D01*
X4066983Y-12441280D01*
X4081268Y-12384137D01*
X4095554Y-12355566D01*
X4109840Y-12341280D01*
X4138411Y-12326994D01*
X4366983Y-12598423D02*
X4381268Y-12612709D01*
X4366983Y-12626994D01*
X4352697Y-12612709D01*
X4366983Y-12598423D01*
X4366983Y-12626994D01*
X4481268Y-12326994D02*
X4681268Y-12326994D01*
X4552697Y-12626994D01*
X4852697Y-12326994D02*
X4881268Y-12326994D01*
X4909840Y-12341280D01*
X4924126Y-12355566D01*
X4938411Y-12384137D01*
X4952697Y-12441280D01*
X4952697Y-12512709D01*
X4938411Y-12569851D01*
X4924126Y-12598423D01*
X4909840Y-12612709D01*
X4881268Y-12626994D01*
X4852697Y-12626994D01*
X4824126Y-12612709D01*
X4809840Y-12598423D01*
X4795554Y-12569851D01*
X4781268Y-12512709D01*
X4781268Y-12441280D01*
X4795554Y-12384137D01*
X4809840Y-12355566D01*
X4824126Y-12341280D01*
X4852697Y-12326994D01*
X5138411Y-12326994D02*
X5166983Y-12326994D01*
X5195554Y-12341280D01*
X5209840Y-12355566D01*
X5224126Y-12384137D01*
X5238411Y-12441280D01*
X5238411Y-12512709D01*
X5224126Y-12569851D01*
X5209840Y-12598423D01*
X5195554Y-12612709D01*
X5166983Y-12626994D01*
X5138411Y-12626994D01*
X5109840Y-12612709D01*
X5095554Y-12598423D01*
X5081268Y-12569851D01*
X5066983Y-12512709D01*
X5066983Y-12441280D01*
X5081268Y-12384137D01*
X5095554Y-12355566D01*
X5109840Y-12341280D01*
X5138411Y-12326994D01*
X5366983Y-12626994D02*
X5366983Y-12426994D01*
X5366983Y-12455566D02*
X5381268Y-12441280D01*
X5409840Y-12426994D01*
X5452697Y-12426994D01*
X5481268Y-12441280D01*
X5495554Y-12469851D01*
X5495554Y-12626994D01*
X5495554Y-12469851D02*
X5509840Y-12441280D01*
X5538411Y-12426994D01*
X5581268Y-12426994D01*
X5609840Y-12441280D01*
X5624126Y-12469851D01*
X5624126Y-12626994D01*
X5766983Y-12626994D02*
X5766983Y-12426994D01*
X5766983Y-12455566D02*
X5781268Y-12441280D01*
X5809840Y-12426994D01*
X5852697Y-12426994D01*
X5881268Y-12441280D01*
X5895554Y-12469851D01*
X5895554Y-12626994D01*
X5895554Y-12469851D02*
X5909840Y-12441280D01*
X5938411Y-12426994D01*
X5981268Y-12426994D01*
X6009840Y-12441280D01*
X6024126Y-12469851D01*
X6024126Y-12626994D01*
X6609840Y-12312709D02*
X6352697Y-12698423D01*
X6995554Y-12326994D02*
X7024126Y-12326994D01*
X7052697Y-12341280D01*
X7066983Y-12355566D01*
X7081268Y-12384137D01*
X7095554Y-12441280D01*
X7095554Y-12512709D01*
X7081268Y-12569851D01*
X7066983Y-12598423D01*
X7052697Y-12612709D01*
X7024126Y-12626994D01*
X6995554Y-12626994D01*
X6966983Y-12612709D01*
X6952697Y-12598423D01*
X6938411Y-12569851D01*
X6924126Y-12512709D01*
X6924126Y-12441280D01*
X6938411Y-12384137D01*
X6952697Y-12355566D01*
X6966983Y-12341280D01*
X6995554Y-12326994D01*
X7224126Y-12598423D02*
X7238411Y-12612709D01*
X7224126Y-12626994D01*
X7209840Y-12612709D01*
X7224126Y-12598423D01*
X7224126Y-12626994D01*
X7424126Y-12326994D02*
X7452697Y-12326994D01*
X7481268Y-12341280D01*
X7495554Y-12355566D01*
X7509840Y-12384137D01*
X7524126Y-12441280D01*
X7524126Y-12512709D01*
X7509840Y-12569851D01*
X7495554Y-12598423D01*
X7481268Y-12612709D01*
X7452697Y-12626994D01*
X7424126Y-12626994D01*
X7395554Y-12612709D01*
X7381268Y-12598423D01*
X7366983Y-12569851D01*
X7352697Y-12512709D01*
X7352697Y-12441280D01*
X7366983Y-12384137D01*
X7381268Y-12355566D01*
X7395554Y-12341280D01*
X7424126Y-12326994D01*
X7638411Y-12355566D02*
X7652697Y-12341280D01*
X7681268Y-12326994D01*
X7752697Y-12326994D01*
X7781268Y-12341280D01*
X7795554Y-12355566D01*
X7809840Y-12384137D01*
X7809840Y-12412709D01*
X7795554Y-12455566D01*
X7624126Y-12626994D01*
X7809840Y-12626994D01*
X7909840Y-12326994D02*
X8109840Y-12326994D01*
X7981268Y-12626994D01*
X8352697Y-12326994D02*
X8295554Y-12326994D01*
X8266983Y-12341280D01*
X8252697Y-12355566D01*
X8224126Y-12398423D01*
X8209840Y-12455566D01*
X8209840Y-12569851D01*
X8224126Y-12598423D01*
X8238411Y-12612709D01*
X8266983Y-12626994D01*
X8324126Y-12626994D01*
X8352697Y-12612709D01*
X8366983Y-12598423D01*
X8381268Y-12569851D01*
X8381268Y-12498423D01*
X8366983Y-12469851D01*
X8352697Y-12455566D01*
X8324126Y-12441280D01*
X8266983Y-12441280D01*
X8238411Y-12455566D01*
X8224126Y-12469851D01*
X8209840Y-12498423D01*
X8495554Y-12326994D02*
X8495554Y-12384137D01*
X8609840Y-12326994D02*
X8609840Y-12384137D01*
X9052697Y-12741280D02*
X9038411Y-12726994D01*
X9009840Y-12684137D01*
X8995554Y-12655566D01*
X8981268Y-12612709D01*
X8966983Y-12541280D01*
X8966983Y-12484137D01*
X8981268Y-12412709D01*
X8995554Y-12369851D01*
X9009840Y-12341280D01*
X9038411Y-12298423D01*
X9052697Y-12284137D01*
X9152697Y-12355566D02*
X9166983Y-12341280D01*
X9195554Y-12326994D01*
X9266983Y-12326994D01*
X9295554Y-12341280D01*
X9309840Y-12355566D01*
X9324126Y-12384137D01*
X9324126Y-12412709D01*
X9309840Y-12455566D01*
X9138411Y-12626994D01*
X9324126Y-12626994D01*
X9509840Y-12326994D02*
X9538411Y-12326994D01*
X9566983Y-12341280D01*
X9581268Y-12355566D01*
X9595554Y-12384137D01*
X9609840Y-12441280D01*
X9609840Y-12512709D01*
X9595554Y-12569851D01*
X9581268Y-12598423D01*
X9566983Y-12612709D01*
X9538411Y-12626994D01*
X9509840Y-12626994D01*
X9481268Y-12612709D01*
X9466983Y-12598423D01*
X9452697Y-12569851D01*
X9438411Y-12512709D01*
X9438411Y-12441280D01*
X9452697Y-12384137D01*
X9466983Y-12355566D01*
X9481268Y-12341280D01*
X9509840Y-12326994D01*
X9966983Y-12626994D02*
X9966983Y-12326994D01*
X10095554Y-12626994D02*
X10095554Y-12469851D01*
X10081268Y-12441280D01*
X10052697Y-12426994D01*
X10009840Y-12426994D01*
X9981268Y-12441280D01*
X9966983Y-12455566D01*
X10281268Y-12626994D02*
X10252697Y-12612709D01*
X10238411Y-12598423D01*
X10224126Y-12569851D01*
X10224126Y-12484137D01*
X10238411Y-12455566D01*
X10252697Y-12441280D01*
X10281268Y-12426994D01*
X10324126Y-12426994D01*
X10352697Y-12441280D01*
X10366983Y-12455566D01*
X10381268Y-12484137D01*
X10381268Y-12569851D01*
X10366983Y-12598423D01*
X10352697Y-12612709D01*
X10324126Y-12626994D01*
X10281268Y-12626994D01*
X10552697Y-12626994D02*
X10524126Y-12612709D01*
X10509840Y-12584137D01*
X10509840Y-12326994D01*
X10781268Y-12612709D02*
X10752697Y-12626994D01*
X10695554Y-12626994D01*
X10666983Y-12612709D01*
X10652697Y-12584137D01*
X10652697Y-12469851D01*
X10666983Y-12441280D01*
X10695554Y-12426994D01*
X10752697Y-12426994D01*
X10781268Y-12441280D01*
X10795554Y-12469851D01*
X10795554Y-12498423D01*
X10652697Y-12526994D01*
X10909840Y-12612709D02*
X10938411Y-12626994D01*
X10995554Y-12626994D01*
X11024126Y-12612709D01*
X11038411Y-12584137D01*
X11038411Y-12569851D01*
X11024126Y-12541280D01*
X10995554Y-12526994D01*
X10952697Y-12526994D01*
X10924126Y-12512709D01*
X10909840Y-12484137D01*
X10909840Y-12469851D01*
X10924126Y-12441280D01*
X10952697Y-12426994D01*
X10995554Y-12426994D01*
X11024126Y-12441280D01*
X11138411Y-12741280D02*
X11152697Y-12726994D01*
X11181268Y-12684137D01*
X11195554Y-12655566D01*
X11209840Y-12612709D01*
X11224126Y-12541280D01*
X11224126Y-12484137D01*
X11209840Y-12412709D01*
X11195554Y-12369851D01*
X11181268Y-12341280D01*
X11152697Y-12298423D01*
X11138411Y-12284137D01*
X3754840Y-12847280D02*
X3754840Y-12927280D01*
X3714840Y-12887280D02*
X3794840Y-12887280D01*
X4138411Y-12722994D02*
X4166983Y-12722994D01*
X4195554Y-12737280D01*
X4209840Y-12751566D01*
X4224126Y-12780137D01*
X4238411Y-12837280D01*
X4238411Y-12908709D01*
X4224126Y-12965851D01*
X4209840Y-12994423D01*
X4195554Y-13008709D01*
X4166983Y-13022994D01*
X4138411Y-13022994D01*
X4109840Y-13008709D01*
X4095554Y-12994423D01*
X4081268Y-12965851D01*
X4066983Y-12908709D01*
X4066983Y-12837280D01*
X4081268Y-12780137D01*
X4095554Y-12751566D01*
X4109840Y-12737280D01*
X4138411Y-12722994D01*
X4366983Y-12994423D02*
X4381268Y-13008709D01*
X4366983Y-13022994D01*
X4352697Y-13008709D01*
X4366983Y-12994423D01*
X4366983Y-13022994D01*
X4552697Y-12851566D02*
X4524126Y-12837280D01*
X4509840Y-12822994D01*
X4495554Y-12794423D01*
X4495554Y-12780137D01*
X4509840Y-12751566D01*
X4524126Y-12737280D01*
X4552697Y-12722994D01*
X4609840Y-12722994D01*
X4638411Y-12737280D01*
X4652697Y-12751566D01*
X4666983Y-12780137D01*
X4666983Y-12794423D01*
X4652697Y-12822994D01*
X4638411Y-12837280D01*
X4609840Y-12851566D01*
X4552697Y-12851566D01*
X4524126Y-12865851D01*
X4509840Y-12880137D01*
X4495554Y-12908709D01*
X4495554Y-12965851D01*
X4509840Y-12994423D01*
X4524126Y-13008709D01*
X4552697Y-13022994D01*
X4609840Y-13022994D01*
X4638411Y-13008709D01*
X4652697Y-12994423D01*
X4666983Y-12965851D01*
X4666983Y-12908709D01*
X4652697Y-12880137D01*
X4638411Y-12865851D01*
X4609840Y-12851566D01*
X4852697Y-12722994D02*
X4881268Y-12722994D01*
X4909840Y-12737280D01*
X4924126Y-12751566D01*
X4938411Y-12780137D01*
X4952697Y-12837280D01*
X4952697Y-12908709D01*
X4938411Y-12965851D01*
X4924126Y-12994423D01*
X4909840Y-13008709D01*
X4881268Y-13022994D01*
X4852697Y-13022994D01*
X4824126Y-13008709D01*
X4809840Y-12994423D01*
X4795554Y-12965851D01*
X4781268Y-12908709D01*
X4781268Y-12837280D01*
X4795554Y-12780137D01*
X4809840Y-12751566D01*
X4824126Y-12737280D01*
X4852697Y-12722994D01*
X5138411Y-12722994D02*
X5166983Y-12722994D01*
X5195554Y-12737280D01*
X5209840Y-12751566D01*
X5224126Y-12780137D01*
X5238411Y-12837280D01*
X5238411Y-12908709D01*
X5224126Y-12965851D01*
X5209840Y-12994423D01*
X5195554Y-13008709D01*
X5166983Y-13022994D01*
X5138411Y-13022994D01*
X5109840Y-13008709D01*
X5095554Y-12994423D01*
X5081268Y-12965851D01*
X5066983Y-12908709D01*
X5066983Y-12837280D01*
X5081268Y-12780137D01*
X5095554Y-12751566D01*
X5109840Y-12737280D01*
X5138411Y-12722994D01*
X5366983Y-13022994D02*
X5366983Y-12822994D01*
X5366983Y-12851566D02*
X5381268Y-12837280D01*
X5409840Y-12822994D01*
X5452697Y-12822994D01*
X5481268Y-12837280D01*
X5495554Y-12865851D01*
X5495554Y-13022994D01*
X5495554Y-12865851D02*
X5509840Y-12837280D01*
X5538411Y-12822994D01*
X5581268Y-12822994D01*
X5609840Y-12837280D01*
X5624126Y-12865851D01*
X5624126Y-13022994D01*
X5766983Y-13022994D02*
X5766983Y-12822994D01*
X5766983Y-12851566D02*
X5781268Y-12837280D01*
X5809840Y-12822994D01*
X5852697Y-12822994D01*
X5881268Y-12837280D01*
X5895554Y-12865851D01*
X5895554Y-13022994D01*
X5895554Y-12865851D02*
X5909840Y-12837280D01*
X5938411Y-12822994D01*
X5981268Y-12822994D01*
X6009840Y-12837280D01*
X6024126Y-12865851D01*
X6024126Y-13022994D01*
X6609840Y-12708709D02*
X6352697Y-13094423D01*
X6995554Y-12722994D02*
X7024126Y-12722994D01*
X7052697Y-12737280D01*
X7066983Y-12751566D01*
X7081268Y-12780137D01*
X7095554Y-12837280D01*
X7095554Y-12908709D01*
X7081268Y-12965851D01*
X7066983Y-12994423D01*
X7052697Y-13008709D01*
X7024126Y-13022994D01*
X6995554Y-13022994D01*
X6966983Y-13008709D01*
X6952697Y-12994423D01*
X6938411Y-12965851D01*
X6924126Y-12908709D01*
X6924126Y-12837280D01*
X6938411Y-12780137D01*
X6952697Y-12751566D01*
X6966983Y-12737280D01*
X6995554Y-12722994D01*
X7224126Y-12994423D02*
X7238411Y-13008709D01*
X7224126Y-13022994D01*
X7209840Y-13008709D01*
X7224126Y-12994423D01*
X7224126Y-13022994D01*
X7424126Y-12722994D02*
X7452697Y-12722994D01*
X7481268Y-12737280D01*
X7495554Y-12751566D01*
X7509840Y-12780137D01*
X7524126Y-12837280D01*
X7524126Y-12908709D01*
X7509840Y-12965851D01*
X7495554Y-12994423D01*
X7481268Y-13008709D01*
X7452697Y-13022994D01*
X7424126Y-13022994D01*
X7395554Y-13008709D01*
X7381268Y-12994423D01*
X7366983Y-12965851D01*
X7352697Y-12908709D01*
X7352697Y-12837280D01*
X7366983Y-12780137D01*
X7381268Y-12751566D01*
X7395554Y-12737280D01*
X7424126Y-12722994D01*
X7624126Y-12722994D02*
X7809840Y-12722994D01*
X7709840Y-12837280D01*
X7752697Y-12837280D01*
X7781268Y-12851566D01*
X7795554Y-12865851D01*
X7809840Y-12894423D01*
X7809840Y-12965851D01*
X7795554Y-12994423D01*
X7781268Y-13008709D01*
X7752697Y-13022994D01*
X7666983Y-13022994D01*
X7638411Y-13008709D01*
X7624126Y-12994423D01*
X8095554Y-13022994D02*
X7924126Y-13022994D01*
X8009840Y-13022994D02*
X8009840Y-12722994D01*
X7981268Y-12765851D01*
X7952697Y-12794423D01*
X7924126Y-12808709D01*
X8366983Y-12722994D02*
X8224126Y-12722994D01*
X8209840Y-12865851D01*
X8224126Y-12851566D01*
X8252697Y-12837280D01*
X8324126Y-12837280D01*
X8352697Y-12851566D01*
X8366983Y-12865851D01*
X8381268Y-12894423D01*
X8381268Y-12965851D01*
X8366983Y-12994423D01*
X8352697Y-13008709D01*
X8324126Y-13022994D01*
X8252697Y-13022994D01*
X8224126Y-13008709D01*
X8209840Y-12994423D01*
X8495554Y-12722994D02*
X8495554Y-12780137D01*
X8609840Y-12722994D02*
X8609840Y-12780137D01*
X9052697Y-13137280D02*
X9038411Y-13122994D01*
X9009840Y-13080137D01*
X8995554Y-13051566D01*
X8981268Y-13008709D01*
X8966983Y-12937280D01*
X8966983Y-12880137D01*
X8981268Y-12808709D01*
X8995554Y-12765851D01*
X9009840Y-12737280D01*
X9038411Y-12694423D01*
X9052697Y-12680137D01*
X9138411Y-12722994D02*
X9324126Y-12722994D01*
X9224126Y-12837280D01*
X9266983Y-12837280D01*
X9295554Y-12851566D01*
X9309840Y-12865851D01*
X9324126Y-12894423D01*
X9324126Y-12965851D01*
X9309840Y-12994423D01*
X9295554Y-13008709D01*
X9266983Y-13022994D01*
X9181268Y-13022994D01*
X9152697Y-13008709D01*
X9138411Y-12994423D01*
X9424126Y-12722994D02*
X9609840Y-12722994D01*
X9509840Y-12837280D01*
X9552697Y-12837280D01*
X9581268Y-12851566D01*
X9595554Y-12865851D01*
X9609840Y-12894423D01*
X9609840Y-12965851D01*
X9595554Y-12994423D01*
X9581268Y-13008709D01*
X9552697Y-13022994D01*
X9466983Y-13022994D01*
X9438411Y-13008709D01*
X9424126Y-12994423D01*
X9866983Y-12722994D02*
X9809840Y-12722994D01*
X9781268Y-12737280D01*
X9766983Y-12751566D01*
X9738411Y-12794423D01*
X9724126Y-12851566D01*
X9724126Y-12965851D01*
X9738411Y-12994423D01*
X9752697Y-13008709D01*
X9781268Y-13022994D01*
X9838411Y-13022994D01*
X9866983Y-13008709D01*
X9881268Y-12994423D01*
X9895554Y-12965851D01*
X9895554Y-12894423D01*
X9881268Y-12865851D01*
X9866983Y-12851566D01*
X9838411Y-12837280D01*
X9781268Y-12837280D01*
X9752697Y-12851566D01*
X9738411Y-12865851D01*
X9724126Y-12894423D01*
X10252697Y-13022994D02*
X10252697Y-12722994D01*
X10381268Y-13022994D02*
X10381268Y-12865851D01*
X10366983Y-12837280D01*
X10338411Y-12822994D01*
X10295554Y-12822994D01*
X10266983Y-12837280D01*
X10252697Y-12851566D01*
X10566983Y-13022994D02*
X10538411Y-13008709D01*
X10524126Y-12994423D01*
X10509840Y-12965851D01*
X10509840Y-12880137D01*
X10524126Y-12851566D01*
X10538411Y-12837280D01*
X10566983Y-12822994D01*
X10609840Y-12822994D01*
X10638411Y-12837280D01*
X10652697Y-12851566D01*
X10666983Y-12880137D01*
X10666983Y-12965851D01*
X10652697Y-12994423D01*
X10638411Y-13008709D01*
X10609840Y-13022994D01*
X10566983Y-13022994D01*
X10838411Y-13022994D02*
X10809840Y-13008709D01*
X10795554Y-12980137D01*
X10795554Y-12722994D01*
X11066983Y-13008709D02*
X11038411Y-13022994D01*
X10981268Y-13022994D01*
X10952697Y-13008709D01*
X10938411Y-12980137D01*
X10938411Y-12865851D01*
X10952697Y-12837280D01*
X10981268Y-12822994D01*
X11038411Y-12822994D01*
X11066983Y-12837280D01*
X11081268Y-12865851D01*
X11081268Y-12894423D01*
X10938411Y-12922994D01*
X11195554Y-13008709D02*
X11224126Y-13022994D01*
X11281268Y-13022994D01*
X11309840Y-13008709D01*
X11324126Y-12980137D01*
X11324126Y-12965851D01*
X11309840Y-12937280D01*
X11281268Y-12922994D01*
X11238411Y-12922994D01*
X11209840Y-12908709D01*
X11195554Y-12880137D01*
X11195554Y-12865851D01*
X11209840Y-12837280D01*
X11238411Y-12822994D01*
X11281268Y-12822994D01*
X11309840Y-12837280D01*
X11424126Y-13137280D02*
X11438411Y-13122994D01*
X11466983Y-13080137D01*
X11481268Y-13051566D01*
X11495554Y-13008709D01*
X11509840Y-12937280D01*
X11509840Y-12880137D01*
X11495554Y-12808709D01*
X11481268Y-12765851D01*
X11466983Y-12737280D01*
X11438411Y-12694423D01*
X11424126Y-12680137D01*
X3780705Y-13317405D02*
X3780705Y-13249155D01*
X3712455Y-13249155D01*
X3712455Y-13317405D01*
X3780705Y-13317405D01*
X4138411Y-13118994D02*
X4166983Y-13118994D01*
X4195554Y-13133280D01*
X4209840Y-13147566D01*
X4224126Y-13176137D01*
X4238411Y-13233280D01*
X4238411Y-13304709D01*
X4224126Y-13361851D01*
X4209840Y-13390423D01*
X4195554Y-13404709D01*
X4166983Y-13418994D01*
X4138411Y-13418994D01*
X4109840Y-13404709D01*
X4095554Y-13390423D01*
X4081268Y-13361851D01*
X4066983Y-13304709D01*
X4066983Y-13233280D01*
X4081268Y-13176137D01*
X4095554Y-13147566D01*
X4109840Y-13133280D01*
X4138411Y-13118994D01*
X4366983Y-13390423D02*
X4381268Y-13404709D01*
X4366983Y-13418994D01*
X4352697Y-13404709D01*
X4366983Y-13390423D01*
X4366983Y-13418994D01*
X4524126Y-13418994D02*
X4581268Y-13418994D01*
X4609840Y-13404709D01*
X4624126Y-13390423D01*
X4652697Y-13347566D01*
X4666983Y-13290423D01*
X4666983Y-13176137D01*
X4652697Y-13147566D01*
X4638411Y-13133280D01*
X4609840Y-13118994D01*
X4552697Y-13118994D01*
X4524126Y-13133280D01*
X4509840Y-13147566D01*
X4495554Y-13176137D01*
X4495554Y-13247566D01*
X4509840Y-13276137D01*
X4524126Y-13290423D01*
X4552697Y-13304709D01*
X4609840Y-13304709D01*
X4638411Y-13290423D01*
X4652697Y-13276137D01*
X4666983Y-13247566D01*
X4924126Y-13118994D02*
X4866983Y-13118994D01*
X4838411Y-13133280D01*
X4824126Y-13147566D01*
X4795554Y-13190423D01*
X4781268Y-13247566D01*
X4781268Y-13361851D01*
X4795554Y-13390423D01*
X4809840Y-13404709D01*
X4838411Y-13418994D01*
X4895554Y-13418994D01*
X4924126Y-13404709D01*
X4938411Y-13390423D01*
X4952697Y-13361851D01*
X4952697Y-13290423D01*
X4938411Y-13261851D01*
X4924126Y-13247566D01*
X4895554Y-13233280D01*
X4838411Y-13233280D01*
X4809840Y-13247566D01*
X4795554Y-13261851D01*
X4781268Y-13290423D01*
X5224126Y-13118994D02*
X5081268Y-13118994D01*
X5066983Y-13261851D01*
X5081268Y-13247566D01*
X5109840Y-13233280D01*
X5181268Y-13233280D01*
X5209840Y-13247566D01*
X5224126Y-13261851D01*
X5238411Y-13290423D01*
X5238411Y-13361851D01*
X5224126Y-13390423D01*
X5209840Y-13404709D01*
X5181268Y-13418994D01*
X5109840Y-13418994D01*
X5081268Y-13404709D01*
X5066983Y-13390423D01*
X5366983Y-13418994D02*
X5366983Y-13218994D01*
X5366983Y-13247566D02*
X5381268Y-13233280D01*
X5409840Y-13218994D01*
X5452697Y-13218994D01*
X5481268Y-13233280D01*
X5495554Y-13261851D01*
X5495554Y-13418994D01*
X5495554Y-13261851D02*
X5509840Y-13233280D01*
X5538411Y-13218994D01*
X5581268Y-13218994D01*
X5609840Y-13233280D01*
X5624126Y-13261851D01*
X5624126Y-13418994D01*
X5766983Y-13418994D02*
X5766983Y-13218994D01*
X5766983Y-13247566D02*
X5781268Y-13233280D01*
X5809840Y-13218994D01*
X5852697Y-13218994D01*
X5881268Y-13233280D01*
X5895554Y-13261851D01*
X5895554Y-13418994D01*
X5895554Y-13261851D02*
X5909840Y-13233280D01*
X5938411Y-13218994D01*
X5981268Y-13218994D01*
X6009840Y-13233280D01*
X6024126Y-13261851D01*
X6024126Y-13418994D01*
X6609840Y-13104709D02*
X6352697Y-13490423D01*
X6995554Y-13118994D02*
X7024126Y-13118994D01*
X7052697Y-13133280D01*
X7066983Y-13147566D01*
X7081268Y-13176137D01*
X7095554Y-13233280D01*
X7095554Y-13304709D01*
X7081268Y-13361851D01*
X7066983Y-13390423D01*
X7052697Y-13404709D01*
X7024126Y-13418994D01*
X6995554Y-13418994D01*
X6966983Y-13404709D01*
X6952697Y-13390423D01*
X6938411Y-13361851D01*
X6924126Y-13304709D01*
X6924126Y-13233280D01*
X6938411Y-13176137D01*
X6952697Y-13147566D01*
X6966983Y-13133280D01*
X6995554Y-13118994D01*
X7224126Y-13390423D02*
X7238411Y-13404709D01*
X7224126Y-13418994D01*
X7209840Y-13404709D01*
X7224126Y-13390423D01*
X7224126Y-13418994D01*
X7424126Y-13118994D02*
X7452697Y-13118994D01*
X7481268Y-13133280D01*
X7495554Y-13147566D01*
X7509840Y-13176137D01*
X7524126Y-13233280D01*
X7524126Y-13304709D01*
X7509840Y-13361851D01*
X7495554Y-13390423D01*
X7481268Y-13404709D01*
X7452697Y-13418994D01*
X7424126Y-13418994D01*
X7395554Y-13404709D01*
X7381268Y-13390423D01*
X7366983Y-13361851D01*
X7352697Y-13304709D01*
X7352697Y-13233280D01*
X7366983Y-13176137D01*
X7381268Y-13147566D01*
X7395554Y-13133280D01*
X7424126Y-13118994D01*
X7624126Y-13118994D02*
X7809840Y-13118994D01*
X7709840Y-13233280D01*
X7752697Y-13233280D01*
X7781268Y-13247566D01*
X7795554Y-13261851D01*
X7809840Y-13290423D01*
X7809840Y-13361851D01*
X7795554Y-13390423D01*
X7781268Y-13404709D01*
X7752697Y-13418994D01*
X7666983Y-13418994D01*
X7638411Y-13404709D01*
X7624126Y-13390423D01*
X7981268Y-13247566D02*
X7952697Y-13233280D01*
X7938411Y-13218994D01*
X7924126Y-13190423D01*
X7924126Y-13176137D01*
X7938411Y-13147566D01*
X7952697Y-13133280D01*
X7981268Y-13118994D01*
X8038411Y-13118994D01*
X8066983Y-13133280D01*
X8081268Y-13147566D01*
X8095554Y-13176137D01*
X8095554Y-13190423D01*
X8081268Y-13218994D01*
X8066983Y-13233280D01*
X8038411Y-13247566D01*
X7981268Y-13247566D01*
X7952697Y-13261851D01*
X7938411Y-13276137D01*
X7924126Y-13304709D01*
X7924126Y-13361851D01*
X7938411Y-13390423D01*
X7952697Y-13404709D01*
X7981268Y-13418994D01*
X8038411Y-13418994D01*
X8066983Y-13404709D01*
X8081268Y-13390423D01*
X8095554Y-13361851D01*
X8095554Y-13304709D01*
X8081268Y-13276137D01*
X8066983Y-13261851D01*
X8038411Y-13247566D01*
X8281268Y-13118994D02*
X8309840Y-13118994D01*
X8338411Y-13133280D01*
X8352697Y-13147566D01*
X8366983Y-13176137D01*
X8381268Y-13233280D01*
X8381268Y-13304709D01*
X8366983Y-13361851D01*
X8352697Y-13390423D01*
X8338411Y-13404709D01*
X8309840Y-13418994D01*
X8281268Y-13418994D01*
X8252697Y-13404709D01*
X8238411Y-13390423D01*
X8224126Y-13361851D01*
X8209840Y-13304709D01*
X8209840Y-13233280D01*
X8224126Y-13176137D01*
X8238411Y-13147566D01*
X8252697Y-13133280D01*
X8281268Y-13118994D01*
X8495554Y-13118994D02*
X8495554Y-13176137D01*
X8609840Y-13118994D02*
X8609840Y-13176137D01*
X9052697Y-13533280D02*
X9038411Y-13518994D01*
X9009840Y-13476137D01*
X8995554Y-13447566D01*
X8981268Y-13404709D01*
X8966983Y-13333280D01*
X8966983Y-13276137D01*
X8981268Y-13204709D01*
X8995554Y-13161851D01*
X9009840Y-13133280D01*
X9038411Y-13090423D01*
X9052697Y-13076137D01*
X9295554Y-13118994D02*
X9238411Y-13118994D01*
X9209840Y-13133280D01*
X9195554Y-13147566D01*
X9166983Y-13190423D01*
X9152697Y-13247566D01*
X9152697Y-13361851D01*
X9166983Y-13390423D01*
X9181268Y-13404709D01*
X9209840Y-13418994D01*
X9266983Y-13418994D01*
X9295554Y-13404709D01*
X9309840Y-13390423D01*
X9324126Y-13361851D01*
X9324126Y-13290423D01*
X9309840Y-13261851D01*
X9295554Y-13247566D01*
X9266983Y-13233280D01*
X9209840Y-13233280D01*
X9181268Y-13247566D01*
X9166983Y-13261851D01*
X9152697Y-13290423D01*
X9681268Y-13418994D02*
X9681268Y-13118994D01*
X9809840Y-13418994D02*
X9809840Y-13261851D01*
X9795554Y-13233280D01*
X9766983Y-13218994D01*
X9724126Y-13218994D01*
X9695554Y-13233280D01*
X9681268Y-13247566D01*
X9995554Y-13418994D02*
X9966983Y-13404709D01*
X9952697Y-13390423D01*
X9938411Y-13361851D01*
X9938411Y-13276137D01*
X9952697Y-13247566D01*
X9966983Y-13233280D01*
X9995554Y-13218994D01*
X10038411Y-13218994D01*
X10066983Y-13233280D01*
X10081268Y-13247566D01*
X10095554Y-13276137D01*
X10095554Y-13361851D01*
X10081268Y-13390423D01*
X10066983Y-13404709D01*
X10038411Y-13418994D01*
X9995554Y-13418994D01*
X10266983Y-13418994D02*
X10238411Y-13404709D01*
X10224126Y-13376137D01*
X10224126Y-13118994D01*
X10495554Y-13404709D02*
X10466983Y-13418994D01*
X10409840Y-13418994D01*
X10381268Y-13404709D01*
X10366983Y-13376137D01*
X10366983Y-13261851D01*
X10381268Y-13233280D01*
X10409840Y-13218994D01*
X10466983Y-13218994D01*
X10495554Y-13233280D01*
X10509840Y-13261851D01*
X10509840Y-13290423D01*
X10366983Y-13318994D01*
X10624126Y-13404709D02*
X10652697Y-13418994D01*
X10709840Y-13418994D01*
X10738411Y-13404709D01*
X10752697Y-13376137D01*
X10752697Y-13361851D01*
X10738411Y-13333280D01*
X10709840Y-13318994D01*
X10666983Y-13318994D01*
X10638411Y-13304709D01*
X10624126Y-13276137D01*
X10624126Y-13261851D01*
X10638411Y-13233280D01*
X10666983Y-13218994D01*
X10709840Y-13218994D01*
X10738411Y-13233280D01*
X10852697Y-13533280D02*
X10866983Y-13518994D01*
X10895554Y-13476137D01*
X10909840Y-13447566D01*
X10924126Y-13404709D01*
X10938411Y-13333280D01*
X10938411Y-13276137D01*
X10924126Y-13204709D01*
X10909840Y-13161851D01*
X10895554Y-13133280D01*
X10866983Y-13090423D01*
X10852697Y-13076137D01*
X3744840Y-13729280D02*
X3794840Y-13679280D01*
X3744840Y-13629280D01*
X3694840Y-13679280D01*
X3744840Y-13729280D01*
X4238411Y-13814994D02*
X4066983Y-13814994D01*
X4152697Y-13814994D02*
X4152697Y-13514994D01*
X4124126Y-13557851D01*
X4095554Y-13586423D01*
X4066983Y-13600709D01*
X4366983Y-13786423D02*
X4381268Y-13800709D01*
X4366983Y-13814994D01*
X4352697Y-13800709D01*
X4366983Y-13786423D01*
X4366983Y-13814994D01*
X4566983Y-13514994D02*
X4595554Y-13514994D01*
X4624126Y-13529280D01*
X4638411Y-13543566D01*
X4652697Y-13572137D01*
X4666983Y-13629280D01*
X4666983Y-13700709D01*
X4652697Y-13757851D01*
X4638411Y-13786423D01*
X4624126Y-13800709D01*
X4595554Y-13814994D01*
X4566983Y-13814994D01*
X4538411Y-13800709D01*
X4524126Y-13786423D01*
X4509840Y-13757851D01*
X4495554Y-13700709D01*
X4495554Y-13629280D01*
X4509840Y-13572137D01*
X4524126Y-13543566D01*
X4538411Y-13529280D01*
X4566983Y-13514994D01*
X4852697Y-13514994D02*
X4881268Y-13514994D01*
X4909840Y-13529280D01*
X4924126Y-13543566D01*
X4938411Y-13572137D01*
X4952697Y-13629280D01*
X4952697Y-13700709D01*
X4938411Y-13757851D01*
X4924126Y-13786423D01*
X4909840Y-13800709D01*
X4881268Y-13814994D01*
X4852697Y-13814994D01*
X4824126Y-13800709D01*
X4809840Y-13786423D01*
X4795554Y-13757851D01*
X4781268Y-13700709D01*
X4781268Y-13629280D01*
X4795554Y-13572137D01*
X4809840Y-13543566D01*
X4824126Y-13529280D01*
X4852697Y-13514994D01*
X5138411Y-13514994D02*
X5166983Y-13514994D01*
X5195554Y-13529280D01*
X5209840Y-13543566D01*
X5224126Y-13572137D01*
X5238411Y-13629280D01*
X5238411Y-13700709D01*
X5224126Y-13757851D01*
X5209840Y-13786423D01*
X5195554Y-13800709D01*
X5166983Y-13814994D01*
X5138411Y-13814994D01*
X5109840Y-13800709D01*
X5095554Y-13786423D01*
X5081268Y-13757851D01*
X5066983Y-13700709D01*
X5066983Y-13629280D01*
X5081268Y-13572137D01*
X5095554Y-13543566D01*
X5109840Y-13529280D01*
X5138411Y-13514994D01*
X5366983Y-13814994D02*
X5366983Y-13614994D01*
X5366983Y-13643566D02*
X5381268Y-13629280D01*
X5409840Y-13614994D01*
X5452697Y-13614994D01*
X5481268Y-13629280D01*
X5495554Y-13657851D01*
X5495554Y-13814994D01*
X5495554Y-13657851D02*
X5509840Y-13629280D01*
X5538411Y-13614994D01*
X5581268Y-13614994D01*
X5609840Y-13629280D01*
X5624126Y-13657851D01*
X5624126Y-13814994D01*
X5766983Y-13814994D02*
X5766983Y-13614994D01*
X5766983Y-13643566D02*
X5781268Y-13629280D01*
X5809840Y-13614994D01*
X5852697Y-13614994D01*
X5881268Y-13629280D01*
X5895554Y-13657851D01*
X5895554Y-13814994D01*
X5895554Y-13657851D02*
X5909840Y-13629280D01*
X5938411Y-13614994D01*
X5981268Y-13614994D01*
X6009840Y-13629280D01*
X6024126Y-13657851D01*
X6024126Y-13814994D01*
X6609840Y-13500709D02*
X6352697Y-13886423D01*
X6995554Y-13514994D02*
X7024126Y-13514994D01*
X7052697Y-13529280D01*
X7066983Y-13543566D01*
X7081268Y-13572137D01*
X7095554Y-13629280D01*
X7095554Y-13700709D01*
X7081268Y-13757851D01*
X7066983Y-13786423D01*
X7052697Y-13800709D01*
X7024126Y-13814994D01*
X6995554Y-13814994D01*
X6966983Y-13800709D01*
X6952697Y-13786423D01*
X6938411Y-13757851D01*
X6924126Y-13700709D01*
X6924126Y-13629280D01*
X6938411Y-13572137D01*
X6952697Y-13543566D01*
X6966983Y-13529280D01*
X6995554Y-13514994D01*
X7224126Y-13786423D02*
X7238411Y-13800709D01*
X7224126Y-13814994D01*
X7209840Y-13800709D01*
X7224126Y-13786423D01*
X7224126Y-13814994D01*
X7424126Y-13514994D02*
X7452697Y-13514994D01*
X7481268Y-13529280D01*
X7495554Y-13543566D01*
X7509840Y-13572137D01*
X7524126Y-13629280D01*
X7524126Y-13700709D01*
X7509840Y-13757851D01*
X7495554Y-13786423D01*
X7481268Y-13800709D01*
X7452697Y-13814994D01*
X7424126Y-13814994D01*
X7395554Y-13800709D01*
X7381268Y-13786423D01*
X7366983Y-13757851D01*
X7352697Y-13700709D01*
X7352697Y-13629280D01*
X7366983Y-13572137D01*
X7381268Y-13543566D01*
X7395554Y-13529280D01*
X7424126Y-13514994D01*
X7624126Y-13514994D02*
X7809840Y-13514994D01*
X7709840Y-13629280D01*
X7752697Y-13629280D01*
X7781268Y-13643566D01*
X7795554Y-13657851D01*
X7809840Y-13686423D01*
X7809840Y-13757851D01*
X7795554Y-13786423D01*
X7781268Y-13800709D01*
X7752697Y-13814994D01*
X7666983Y-13814994D01*
X7638411Y-13800709D01*
X7624126Y-13786423D01*
X7952697Y-13814994D02*
X8009840Y-13814994D01*
X8038411Y-13800709D01*
X8052697Y-13786423D01*
X8081268Y-13743566D01*
X8095554Y-13686423D01*
X8095554Y-13572137D01*
X8081268Y-13543566D01*
X8066983Y-13529280D01*
X8038411Y-13514994D01*
X7981268Y-13514994D01*
X7952697Y-13529280D01*
X7938411Y-13543566D01*
X7924126Y-13572137D01*
X7924126Y-13643566D01*
X7938411Y-13672137D01*
X7952697Y-13686423D01*
X7981268Y-13700709D01*
X8038411Y-13700709D01*
X8066983Y-13686423D01*
X8081268Y-13672137D01*
X8095554Y-13643566D01*
X8352697Y-13614994D02*
X8352697Y-13814994D01*
X8281268Y-13500709D02*
X8209840Y-13714994D01*
X8395554Y-13714994D01*
X8495554Y-13514994D02*
X8495554Y-13572137D01*
X8609840Y-13514994D02*
X8609840Y-13572137D01*
X9052697Y-13929280D02*
X9038411Y-13914994D01*
X9009840Y-13872137D01*
X8995554Y-13843566D01*
X8981268Y-13800709D01*
X8966983Y-13729280D01*
X8966983Y-13672137D01*
X8981268Y-13600709D01*
X8995554Y-13557851D01*
X9009840Y-13529280D01*
X9038411Y-13486423D01*
X9052697Y-13472137D01*
X9309840Y-13514994D02*
X9166983Y-13514994D01*
X9152697Y-13657851D01*
X9166983Y-13643566D01*
X9195554Y-13629280D01*
X9266983Y-13629280D01*
X9295554Y-13643566D01*
X9309840Y-13657851D01*
X9324126Y-13686423D01*
X9324126Y-13757851D01*
X9309840Y-13786423D01*
X9295554Y-13800709D01*
X9266983Y-13814994D01*
X9195554Y-13814994D01*
X9166983Y-13800709D01*
X9152697Y-13786423D01*
X9581268Y-13514994D02*
X9524126Y-13514994D01*
X9495554Y-13529280D01*
X9481268Y-13543566D01*
X9452697Y-13586423D01*
X9438411Y-13643566D01*
X9438411Y-13757851D01*
X9452697Y-13786423D01*
X9466983Y-13800709D01*
X9495554Y-13814994D01*
X9552697Y-13814994D01*
X9581268Y-13800709D01*
X9595554Y-13786423D01*
X9609840Y-13757851D01*
X9609840Y-13686423D01*
X9595554Y-13657851D01*
X9581268Y-13643566D01*
X9552697Y-13629280D01*
X9495554Y-13629280D01*
X9466983Y-13643566D01*
X9452697Y-13657851D01*
X9438411Y-13686423D01*
X9966983Y-13814994D02*
X9966983Y-13514994D01*
X10095554Y-13814994D02*
X10095554Y-13657851D01*
X10081268Y-13629280D01*
X10052697Y-13614994D01*
X10009840Y-13614994D01*
X9981268Y-13629280D01*
X9966983Y-13643566D01*
X10281268Y-13814994D02*
X10252697Y-13800709D01*
X10238411Y-13786423D01*
X10224126Y-13757851D01*
X10224126Y-13672137D01*
X10238411Y-13643566D01*
X10252697Y-13629280D01*
X10281268Y-13614994D01*
X10324126Y-13614994D01*
X10352697Y-13629280D01*
X10366983Y-13643566D01*
X10381268Y-13672137D01*
X10381268Y-13757851D01*
X10366983Y-13786423D01*
X10352697Y-13800709D01*
X10324126Y-13814994D01*
X10281268Y-13814994D01*
X10552697Y-13814994D02*
X10524126Y-13800709D01*
X10509840Y-13772137D01*
X10509840Y-13514994D01*
X10781268Y-13800709D02*
X10752697Y-13814994D01*
X10695554Y-13814994D01*
X10666983Y-13800709D01*
X10652697Y-13772137D01*
X10652697Y-13657851D01*
X10666983Y-13629280D01*
X10695554Y-13614994D01*
X10752697Y-13614994D01*
X10781268Y-13629280D01*
X10795554Y-13657851D01*
X10795554Y-13686423D01*
X10652697Y-13714994D01*
X10909840Y-13800709D02*
X10938411Y-13814994D01*
X10995554Y-13814994D01*
X11024126Y-13800709D01*
X11038411Y-13772137D01*
X11038411Y-13757851D01*
X11024126Y-13729280D01*
X10995554Y-13714994D01*
X10952697Y-13714994D01*
X10924126Y-13700709D01*
X10909840Y-13672137D01*
X10909840Y-13657851D01*
X10924126Y-13629280D01*
X10952697Y-13614994D01*
X10995554Y-13614994D01*
X11024126Y-13629280D01*
X11138411Y-13929280D02*
X11152697Y-13914994D01*
X11181268Y-13872137D01*
X11195554Y-13843566D01*
X11209840Y-13800709D01*
X11224126Y-13729280D01*
X11224126Y-13672137D01*
X11209840Y-13600709D01*
X11195554Y-13557851D01*
X11181268Y-13529280D01*
X11152697Y-13486423D01*
X11138411Y-13472137D01*
X3558620Y-13957170D02*
X3794840Y-14193390D01*
X3794840Y-13957170D02*
X3558620Y-14193390D01*
X3794840Y-14075280D02*
G75*
G03*
X3794840Y-14075280I-118110J0D01*
G01*
X4066983Y-13939566D02*
X4081268Y-13925280D01*
X4109840Y-13910994D01*
X4181268Y-13910994D01*
X4209840Y-13925280D01*
X4224126Y-13939566D01*
X4238411Y-13968137D01*
X4238411Y-13996709D01*
X4224126Y-14039566D01*
X4052697Y-14210994D01*
X4238411Y-14210994D01*
X4366983Y-14182423D02*
X4381268Y-14196709D01*
X4366983Y-14210994D01*
X4352697Y-14196709D01*
X4366983Y-14182423D01*
X4366983Y-14210994D01*
X4481268Y-13910994D02*
X4666983Y-13910994D01*
X4566983Y-14025280D01*
X4609840Y-14025280D01*
X4638411Y-14039566D01*
X4652697Y-14053851D01*
X4666983Y-14082423D01*
X4666983Y-14153851D01*
X4652697Y-14182423D01*
X4638411Y-14196709D01*
X4609840Y-14210994D01*
X4524126Y-14210994D01*
X4495554Y-14196709D01*
X4481268Y-14182423D01*
X4924126Y-13910994D02*
X4866983Y-13910994D01*
X4838411Y-13925280D01*
X4824126Y-13939566D01*
X4795554Y-13982423D01*
X4781268Y-14039566D01*
X4781268Y-14153851D01*
X4795554Y-14182423D01*
X4809840Y-14196709D01*
X4838411Y-14210994D01*
X4895554Y-14210994D01*
X4924126Y-14196709D01*
X4938411Y-14182423D01*
X4952697Y-14153851D01*
X4952697Y-14082423D01*
X4938411Y-14053851D01*
X4924126Y-14039566D01*
X4895554Y-14025280D01*
X4838411Y-14025280D01*
X4809840Y-14039566D01*
X4795554Y-14053851D01*
X4781268Y-14082423D01*
X5066983Y-13939566D02*
X5081268Y-13925280D01*
X5109840Y-13910994D01*
X5181268Y-13910994D01*
X5209840Y-13925280D01*
X5224126Y-13939566D01*
X5238411Y-13968137D01*
X5238411Y-13996709D01*
X5224126Y-14039566D01*
X5052697Y-14210994D01*
X5238411Y-14210994D01*
X5366983Y-14210994D02*
X5366983Y-14010994D01*
X5366983Y-14039566D02*
X5381268Y-14025280D01*
X5409840Y-14010994D01*
X5452697Y-14010994D01*
X5481268Y-14025280D01*
X5495554Y-14053851D01*
X5495554Y-14210994D01*
X5495554Y-14053851D02*
X5509840Y-14025280D01*
X5538411Y-14010994D01*
X5581268Y-14010994D01*
X5609840Y-14025280D01*
X5624126Y-14053851D01*
X5624126Y-14210994D01*
X5766983Y-14210994D02*
X5766983Y-14010994D01*
X5766983Y-14039566D02*
X5781268Y-14025280D01*
X5809840Y-14010994D01*
X5852697Y-14010994D01*
X5881268Y-14025280D01*
X5895554Y-14053851D01*
X5895554Y-14210994D01*
X5895554Y-14053851D02*
X5909840Y-14025280D01*
X5938411Y-14010994D01*
X5981268Y-14010994D01*
X6009840Y-14025280D01*
X6024126Y-14053851D01*
X6024126Y-14210994D01*
X6609840Y-13896709D02*
X6352697Y-14282423D01*
X6995554Y-13910994D02*
X7024126Y-13910994D01*
X7052697Y-13925280D01*
X7066983Y-13939566D01*
X7081268Y-13968137D01*
X7095554Y-14025280D01*
X7095554Y-14096709D01*
X7081268Y-14153851D01*
X7066983Y-14182423D01*
X7052697Y-14196709D01*
X7024126Y-14210994D01*
X6995554Y-14210994D01*
X6966983Y-14196709D01*
X6952697Y-14182423D01*
X6938411Y-14153851D01*
X6924126Y-14096709D01*
X6924126Y-14025280D01*
X6938411Y-13968137D01*
X6952697Y-13939566D01*
X6966983Y-13925280D01*
X6995554Y-13910994D01*
X7224126Y-14182423D02*
X7238411Y-14196709D01*
X7224126Y-14210994D01*
X7209840Y-14196709D01*
X7224126Y-14182423D01*
X7224126Y-14210994D01*
X7424126Y-13910994D02*
X7452697Y-13910994D01*
X7481268Y-13925280D01*
X7495554Y-13939566D01*
X7509840Y-13968137D01*
X7524126Y-14025280D01*
X7524126Y-14096709D01*
X7509840Y-14153851D01*
X7495554Y-14182423D01*
X7481268Y-14196709D01*
X7452697Y-14210994D01*
X7424126Y-14210994D01*
X7395554Y-14196709D01*
X7381268Y-14182423D01*
X7366983Y-14153851D01*
X7352697Y-14096709D01*
X7352697Y-14025280D01*
X7366983Y-13968137D01*
X7381268Y-13939566D01*
X7395554Y-13925280D01*
X7424126Y-13910994D01*
X7666983Y-14210994D02*
X7724126Y-14210994D01*
X7752697Y-14196709D01*
X7766983Y-14182423D01*
X7795554Y-14139566D01*
X7809840Y-14082423D01*
X7809840Y-13968137D01*
X7795554Y-13939566D01*
X7781268Y-13925280D01*
X7752697Y-13910994D01*
X7695554Y-13910994D01*
X7666983Y-13925280D01*
X7652697Y-13939566D01*
X7638411Y-13968137D01*
X7638411Y-14039566D01*
X7652697Y-14068137D01*
X7666983Y-14082423D01*
X7695554Y-14096709D01*
X7752697Y-14096709D01*
X7781268Y-14082423D01*
X7795554Y-14068137D01*
X7809840Y-14039566D01*
X7909840Y-13910994D02*
X8095554Y-13910994D01*
X7995554Y-14025280D01*
X8038411Y-14025280D01*
X8066983Y-14039566D01*
X8081268Y-14053851D01*
X8095554Y-14082423D01*
X8095554Y-14153851D01*
X8081268Y-14182423D01*
X8066983Y-14196709D01*
X8038411Y-14210994D01*
X7952697Y-14210994D01*
X7924126Y-14196709D01*
X7909840Y-14182423D01*
X8281268Y-13910994D02*
X8309840Y-13910994D01*
X8338411Y-13925280D01*
X8352697Y-13939566D01*
X8366983Y-13968137D01*
X8381268Y-14025280D01*
X8381268Y-14096709D01*
X8366983Y-14153851D01*
X8352697Y-14182423D01*
X8338411Y-14196709D01*
X8309840Y-14210994D01*
X8281268Y-14210994D01*
X8252697Y-14196709D01*
X8238411Y-14182423D01*
X8224126Y-14153851D01*
X8209840Y-14096709D01*
X8209840Y-14025280D01*
X8224126Y-13968137D01*
X8238411Y-13939566D01*
X8252697Y-13925280D01*
X8281268Y-13910994D01*
X8495554Y-13910994D02*
X8495554Y-13968137D01*
X8609840Y-13910994D02*
X8609840Y-13968137D01*
X9052697Y-14325280D02*
X9038411Y-14310994D01*
X9009840Y-14268137D01*
X8995554Y-14239566D01*
X8981268Y-14196709D01*
X8966983Y-14125280D01*
X8966983Y-14068137D01*
X8981268Y-13996709D01*
X8995554Y-13953851D01*
X9009840Y-13925280D01*
X9038411Y-13882423D01*
X9052697Y-13868137D01*
X9138411Y-13910994D02*
X9324126Y-13910994D01*
X9224126Y-14025280D01*
X9266983Y-14025280D01*
X9295554Y-14039566D01*
X9309840Y-14053851D01*
X9324126Y-14082423D01*
X9324126Y-14153851D01*
X9309840Y-14182423D01*
X9295554Y-14196709D01*
X9266983Y-14210994D01*
X9181268Y-14210994D01*
X9152697Y-14196709D01*
X9138411Y-14182423D01*
X9681268Y-14210994D02*
X9681268Y-13910994D01*
X9809840Y-14210994D02*
X9809840Y-14053851D01*
X9795554Y-14025280D01*
X9766983Y-14010994D01*
X9724126Y-14010994D01*
X9695554Y-14025280D01*
X9681268Y-14039566D01*
X9995554Y-14210994D02*
X9966983Y-14196709D01*
X9952697Y-14182423D01*
X9938411Y-14153851D01*
X9938411Y-14068137D01*
X9952697Y-14039566D01*
X9966983Y-14025280D01*
X9995554Y-14010994D01*
X10038411Y-14010994D01*
X10066983Y-14025280D01*
X10081268Y-14039566D01*
X10095554Y-14068137D01*
X10095554Y-14153851D01*
X10081268Y-14182423D01*
X10066983Y-14196709D01*
X10038411Y-14210994D01*
X9995554Y-14210994D01*
X10266983Y-14210994D02*
X10238411Y-14196709D01*
X10224126Y-14168137D01*
X10224126Y-13910994D01*
X10495554Y-14196709D02*
X10466983Y-14210994D01*
X10409840Y-14210994D01*
X10381268Y-14196709D01*
X10366983Y-14168137D01*
X10366983Y-14053851D01*
X10381268Y-14025280D01*
X10409840Y-14010994D01*
X10466983Y-14010994D01*
X10495554Y-14025280D01*
X10509840Y-14053851D01*
X10509840Y-14082423D01*
X10366983Y-14110994D01*
X10624126Y-14196709D02*
X10652697Y-14210994D01*
X10709840Y-14210994D01*
X10738411Y-14196709D01*
X10752697Y-14168137D01*
X10752697Y-14153851D01*
X10738411Y-14125280D01*
X10709840Y-14110994D01*
X10666983Y-14110994D01*
X10638411Y-14096709D01*
X10624126Y-14068137D01*
X10624126Y-14053851D01*
X10638411Y-14025280D01*
X10666983Y-14010994D01*
X10709840Y-14010994D01*
X10738411Y-14025280D01*
X10852697Y-14325280D02*
X10866983Y-14310994D01*
X10895554Y-14268137D01*
X10909840Y-14239566D01*
X10924126Y-14196709D01*
X10938411Y-14125280D01*
X10938411Y-14068137D01*
X10924126Y-13996709D01*
X10909840Y-13953851D01*
X10895554Y-13925280D01*
X10866983Y-13882423D01*
X10852697Y-13868137D01*
M02*
