%TF.GenerationSoftware,KiCad,Pcbnew,5.1.12-84ad8e8a86~92~ubuntu18.04.1*%
%TF.CreationDate,2022-05-14T09:18:38-04:00*%
%TF.ProjectId,kicad_vectron_65_plus,6b696361-645f-4766-9563-74726f6e5f36,rev?*%
%TF.SameCoordinates,Original*%
%TF.FileFunction,Copper,L1,Top*%
%TF.FilePolarity,Positive*%
%FSLAX46Y46*%
G04 Gerber Fmt 4.6, Leading zero omitted, Abs format (unit mm)*
G04 Created by KiCad (PCBNEW 5.1.12-84ad8e8a86~92~ubuntu18.04.1) date 2022-05-14 09:18:38*
%MOMM*%
%LPD*%
G01*
G04 APERTURE LIST*
%TA.AperFunction,NonConductor*%
%ADD10C,0.300000*%
%TD*%
%TA.AperFunction,ComponentPad*%
%ADD11C,1.600000*%
%TD*%
%TA.AperFunction,ComponentPad*%
%ADD12R,1.600000X1.600000*%
%TD*%
%TA.AperFunction,ComponentPad*%
%ADD13O,1.600000X1.600000*%
%TD*%
%TA.AperFunction,ComponentPad*%
%ADD14C,1.700000*%
%TD*%
%TA.AperFunction,ComponentPad*%
%ADD15O,1.400000X1.400000*%
%TD*%
%TA.AperFunction,ComponentPad*%
%ADD16C,1.400000*%
%TD*%
%TA.AperFunction,ComponentPad*%
%ADD17O,1.700000X1.700000*%
%TD*%
%TA.AperFunction,ComponentPad*%
%ADD18R,1.700000X1.700000*%
%TD*%
%TA.AperFunction,ComponentPad*%
%ADD19C,2.870200*%
%TD*%
%TA.AperFunction,ComponentPad*%
%ADD20C,1.473200*%
%TD*%
%TA.AperFunction,ViaPad*%
%ADD21C,0.800000*%
%TD*%
%TA.AperFunction,Conductor*%
%ADD22C,0.250000*%
%TD*%
G04 APERTURE END LIST*
D10*
X156827600Y-51654971D02*
X157327600Y-53154971D01*
X157827600Y-51654971D01*
D11*
%TO.P,X1,7*%
%TO.N,GND*%
X61468000Y-58166000D03*
%TO.P,X1,8*%
%TO.N,Net-(U1-Pad37)*%
X61468000Y-50546000D03*
%TO.P,X1,14*%
%TO.N,+5V*%
X46228000Y-50546000D03*
D12*
%TO.P,X1,1*%
%TO.N,Net-(X1-Pad1)*%
X46228000Y-58166000D03*
%TD*%
D13*
%TO.P,U12,20*%
%TO.N,+5V*%
X103835200Y-67106800D03*
%TO.P,U12,10*%
%TO.N,GND*%
X126695200Y-74726800D03*
%TO.P,U12,19*%
%TO.N,Net-(U11-Pad4)*%
X106375200Y-67106800D03*
%TO.P,U12,9*%
%TO.N,GND*%
X124155200Y-74726800D03*
%TO.P,U12,18*%
%TO.N,Net-(U1-Pad13)*%
X108915200Y-67106800D03*
%TO.P,U12,8*%
%TO.N,GND*%
X121615200Y-74726800D03*
%TO.P,U12,17*%
X111455200Y-67106800D03*
%TO.P,U12,7*%
X119075200Y-74726800D03*
%TO.P,U12,16*%
%TO.N,Net-(U1-Pad14)*%
X113995200Y-67106800D03*
%TO.P,U12,6*%
%TO.N,GND*%
X116535200Y-74726800D03*
%TO.P,U12,15*%
%TO.N,+5V*%
X116535200Y-67106800D03*
%TO.P,U12,5*%
%TO.N,GND*%
X113995200Y-74726800D03*
%TO.P,U12,14*%
%TO.N,Net-(U1-Pad15)*%
X119075200Y-67106800D03*
%TO.P,U12,4*%
%TO.N,GND*%
X111455200Y-74726800D03*
%TO.P,U12,13*%
%TO.N,+5V*%
X121615200Y-67106800D03*
%TO.P,U12,3*%
%TO.N,GND*%
X108915200Y-74726800D03*
%TO.P,U12,12*%
%TO.N,Net-(U1-Pad16)*%
X124155200Y-67106800D03*
%TO.P,U12,2*%
%TO.N,GND*%
X106375200Y-74726800D03*
%TO.P,U12,11*%
%TO.N,+5V*%
X126695200Y-67106800D03*
D12*
%TO.P,U12,1*%
%TO.N,Net-(U12-Pad1)*%
X103835200Y-74726800D03*
%TD*%
D13*
%TO.P,U11,14*%
%TO.N,+5V*%
X123444000Y-45466000D03*
%TO.P,U11,7*%
%TO.N,GND*%
X108204000Y-37846000D03*
%TO.P,U11,13*%
%TO.N,Net-(U11-Pad13)*%
X120904000Y-45466000D03*
%TO.P,U11,6*%
%TO.N,Net-(U11-Pad6)*%
X110744000Y-37846000D03*
%TO.P,U11,12*%
%TO.N,Net-(U11-Pad12)*%
X118364000Y-45466000D03*
%TO.P,U11,5*%
X113284000Y-37846000D03*
%TO.P,U11,11*%
%TO.N,Net-(U11-Pad11)*%
X115824000Y-45466000D03*
%TO.P,U11,4*%
%TO.N,Net-(U11-Pad4)*%
X115824000Y-37846000D03*
%TO.P,U11,10*%
%TO.N,Net-(U11-Pad10)*%
X113284000Y-45466000D03*
%TO.P,U11,3*%
%TO.N,Net-(U11-Pad3)*%
X118364000Y-37846000D03*
%TO.P,U11,9*%
%TO.N,Net-(U11-Pad12)*%
X110744000Y-45466000D03*
%TO.P,U11,2*%
%TO.N,Net-(U11-Pad2)*%
X120904000Y-37846000D03*
%TO.P,U11,8*%
%TO.N,Net-(U11-Pad8)*%
X108204000Y-45466000D03*
D12*
%TO.P,U11,1*%
%TO.N,Net-(U11-Pad1)*%
X123444000Y-37846000D03*
%TD*%
D13*
%TO.P,U10,14*%
%TO.N,+5V*%
X86868000Y-37846000D03*
%TO.P,U10,7*%
%TO.N,GND*%
X102108000Y-45466000D03*
%TO.P,U10,13*%
%TO.N,Net-(U10-Pad13)*%
X89408000Y-37846000D03*
%TO.P,U10,6*%
%TO.N,Net-(U10-Pad6)*%
X99568000Y-45466000D03*
%TO.P,U10,12*%
%TO.N,Net-(U1-Pad39)*%
X91948000Y-37846000D03*
%TO.P,U10,5*%
%TO.N,Net-(U10-Pad5)*%
X97028000Y-45466000D03*
%TO.P,U10,11*%
%TO.N,Net-(U10-Pad11)*%
X94488000Y-37846000D03*
%TO.P,U10,4*%
%TO.N,Net-(U10-Pad4)*%
X94488000Y-45466000D03*
%TO.P,U10,10*%
%TO.N,Net-(U10-Pad10)*%
X97028000Y-37846000D03*
%TO.P,U10,3*%
%TO.N,Net-(U10-Pad3)*%
X91948000Y-45466000D03*
%TO.P,U10,9*%
%TO.N,Net-(U10-Pad9)*%
X99568000Y-37846000D03*
%TO.P,U10,2*%
%TO.N,Net-(U10-Pad2)*%
X89408000Y-45466000D03*
%TO.P,U10,8*%
%TO.N,Net-(U10-Pad8)*%
X102108000Y-37846000D03*
D12*
%TO.P,U10,1*%
%TO.N,Net-(U1-Pad39)*%
X86868000Y-45466000D03*
%TD*%
D13*
%TO.P,U9,14*%
%TO.N,+5V*%
X66649600Y-37795200D03*
%TO.P,U9,7*%
%TO.N,GND*%
X81889600Y-45415200D03*
%TO.P,U9,13*%
%TO.N,Net-(U11-Pad8)*%
X69189600Y-37795200D03*
%TO.P,U9,6*%
%TO.N,Net-(U3-Pad20)*%
X79349600Y-45415200D03*
%TO.P,U9,12*%
%TO.N,Net-(U10-Pad13)*%
X71729600Y-37795200D03*
%TO.P,U9,5*%
%TO.N,Net-(U1-Pad25)*%
X76809600Y-45415200D03*
%TO.P,U9,11*%
%TO.N,Net-(U11-Pad6)*%
X74269600Y-37795200D03*
%TO.P,U9,4*%
%TO.N,Net-(U6-Pad27)*%
X74269600Y-45415200D03*
%TO.P,U9,10*%
%TO.N,Net-(U5-Pad24)*%
X76809600Y-37795200D03*
%TO.P,U9,3*%
%TO.N,Net-(U10-Pad3)*%
X71729600Y-45415200D03*
%TO.P,U9,9*%
%TO.N,Net-(U11-Pad11)*%
X79349600Y-37795200D03*
%TO.P,U9,2*%
%TO.N,Net-(U10-Pad2)*%
X69189600Y-45415200D03*
%TO.P,U9,8*%
%TO.N,Net-(U2-Pad24)*%
X81889600Y-37795200D03*
D12*
%TO.P,U9,1*%
%TO.N,Net-(U1-Pad34)*%
X66649600Y-45415200D03*
%TD*%
D13*
%TO.P,U8,20*%
%TO.N,+5V*%
X126593600Y-85344000D03*
%TO.P,U8,10*%
%TO.N,GND*%
X103733600Y-77724000D03*
%TO.P,U8,19*%
%TO.N,Net-(U11-Pad10)*%
X124053600Y-85344000D03*
%TO.P,U8,9*%
%TO.N,Net-(U1-Pad16)*%
X106273600Y-77724000D03*
%TO.P,U8,18*%
%TO.N,Net-(U1-Pad9)*%
X121513600Y-85344000D03*
%TO.P,U8,8*%
%TO.N,GND*%
X108813600Y-77724000D03*
%TO.P,U8,17*%
X118973600Y-85344000D03*
%TO.P,U8,7*%
%TO.N,Net-(U1-Pad15)*%
X111353600Y-77724000D03*
%TO.P,U8,16*%
%TO.N,Net-(U1-Pad10)*%
X116433600Y-85344000D03*
%TO.P,U8,6*%
%TO.N,GND*%
X113893600Y-77724000D03*
%TO.P,U8,15*%
X113893600Y-85344000D03*
%TO.P,U8,5*%
%TO.N,Net-(U1-Pad14)*%
X116433600Y-77724000D03*
%TO.P,U8,14*%
%TO.N,Net-(U1-Pad11)*%
X111353600Y-85344000D03*
%TO.P,U8,4*%
%TO.N,GND*%
X118973600Y-77724000D03*
%TO.P,U8,13*%
X108813600Y-85344000D03*
%TO.P,U8,3*%
%TO.N,Net-(U1-Pad13)*%
X121513600Y-77724000D03*
%TO.P,U8,12*%
%TO.N,Net-(U1-Pad12)*%
X106273600Y-85344000D03*
%TO.P,U8,2*%
%TO.N,GND*%
X124053600Y-77724000D03*
%TO.P,U8,11*%
X103733600Y-85344000D03*
D12*
%TO.P,U8,1*%
%TO.N,Net-(U8-Pad1)*%
X126593600Y-77724000D03*
%TD*%
D13*
%TO.P,U7,20*%
%TO.N,+5V*%
X50749200Y-64770000D03*
%TO.P,U7,10*%
%TO.N,GND*%
X43129200Y-87630000D03*
%TO.P,U7,19*%
%TO.N,Net-(U11-Pad13)*%
X50749200Y-67310000D03*
%TO.P,U7,9*%
%TO.N,GND*%
X43129200Y-85090000D03*
%TO.P,U7,18*%
%TO.N,Net-(U1-Pad13)*%
X50749200Y-69850000D03*
%TO.P,U7,8*%
%TO.N,GND*%
X43129200Y-82550000D03*
%TO.P,U7,17*%
%TO.N,+5V*%
X50749200Y-72390000D03*
%TO.P,U7,7*%
%TO.N,GND*%
X43129200Y-80010000D03*
%TO.P,U7,16*%
%TO.N,Net-(U1-Pad14)*%
X50749200Y-74930000D03*
%TO.P,U7,6*%
%TO.N,GND*%
X43129200Y-77470000D03*
%TO.P,U7,15*%
%TO.N,+5V*%
X50749200Y-77470000D03*
%TO.P,U7,5*%
%TO.N,GND*%
X43129200Y-74930000D03*
%TO.P,U7,14*%
%TO.N,Net-(U1-Pad15)*%
X50749200Y-80010000D03*
%TO.P,U7,4*%
%TO.N,GND*%
X43129200Y-72390000D03*
%TO.P,U7,13*%
%TO.N,+5V*%
X50749200Y-82550000D03*
%TO.P,U7,3*%
%TO.N,GND*%
X43129200Y-69850000D03*
%TO.P,U7,12*%
%TO.N,Net-(U1-Pad16)*%
X50749200Y-85090000D03*
%TO.P,U7,2*%
%TO.N,GND*%
X43129200Y-67310000D03*
%TO.P,U7,11*%
%TO.N,+5V*%
X50749200Y-87630000D03*
D12*
%TO.P,U7,1*%
%TO.N,Net-(U7-Pad1)*%
X43129200Y-64770000D03*
%TD*%
D13*
%TO.P,U6,28*%
%TO.N,+5V*%
X99568000Y-85242400D03*
%TO.P,U6,14*%
%TO.N,GND*%
X66548000Y-70002400D03*
%TO.P,U6,27*%
%TO.N,Net-(U6-Pad27)*%
X97028000Y-85242400D03*
%TO.P,U6,13*%
%TO.N,Net-(U1-Pad31)*%
X69088000Y-70002400D03*
%TO.P,U6,26*%
%TO.N,Net-(U1-Pad23)*%
X94488000Y-85242400D03*
%TO.P,U6,12*%
%TO.N,Net-(U1-Pad32)*%
X71628000Y-70002400D03*
%TO.P,U6,25*%
%TO.N,Net-(U1-Pad17)*%
X91948000Y-85242400D03*
%TO.P,U6,11*%
%TO.N,Net-(U1-Pad33)*%
X74168000Y-70002400D03*
%TO.P,U6,24*%
%TO.N,Net-(U1-Pad18)*%
X89408000Y-85242400D03*
%TO.P,U6,10*%
%TO.N,Net-(U1-Pad9)*%
X76708000Y-70002400D03*
%TO.P,U6,23*%
%TO.N,Net-(U1-Pad20)*%
X86868000Y-85242400D03*
%TO.P,U6,9*%
%TO.N,Net-(U1-Pad10)*%
X79248000Y-70002400D03*
%TO.P,U6,22*%
%TO.N,Net-(U10-Pad2)*%
X84328000Y-85242400D03*
%TO.P,U6,8*%
%TO.N,Net-(U1-Pad11)*%
X81788000Y-70002400D03*
%TO.P,U6,21*%
%TO.N,Net-(U1-Pad19)*%
X81788000Y-85242400D03*
%TO.P,U6,7*%
%TO.N,Net-(U1-Pad12)*%
X84328000Y-70002400D03*
%TO.P,U6,20*%
%TO.N,Net-(U4-Pad1)*%
X79248000Y-85242400D03*
%TO.P,U6,6*%
%TO.N,Net-(U1-Pad13)*%
X86868000Y-70002400D03*
%TO.P,U6,19*%
%TO.N,Net-(U1-Pad26)*%
X76708000Y-85242400D03*
%TO.P,U6,5*%
%TO.N,Net-(U1-Pad14)*%
X89408000Y-70002400D03*
%TO.P,U6,18*%
%TO.N,Net-(U1-Pad27)*%
X74168000Y-85242400D03*
%TO.P,U6,4*%
%TO.N,Net-(U1-Pad15)*%
X91948000Y-70002400D03*
%TO.P,U6,17*%
%TO.N,Net-(U1-Pad28)*%
X71628000Y-85242400D03*
%TO.P,U6,3*%
%TO.N,Net-(U1-Pad16)*%
X94488000Y-70002400D03*
%TO.P,U6,16*%
%TO.N,Net-(U1-Pad29)*%
X69088000Y-85242400D03*
%TO.P,U6,2*%
%TO.N,Net-(U1-Pad22)*%
X97028000Y-70002400D03*
%TO.P,U6,15*%
%TO.N,Net-(U1-Pad30)*%
X66548000Y-85242400D03*
D12*
%TO.P,U6,1*%
%TO.N,Net-(U1-Pad24)*%
X99568000Y-70002400D03*
%TD*%
D13*
%TO.P,U5,40*%
%TO.N,Net-(U5-Pad40)*%
X103733600Y-89408000D03*
%TO.P,U5,20*%
%TO.N,+5V*%
X151993600Y-104648000D03*
%TO.P,U5,39*%
%TO.N,Net-(U5-Pad39)*%
X106273600Y-89408000D03*
%TO.P,U5,19*%
%TO.N,Net-(U5-Pad19)*%
X149453600Y-104648000D03*
%TO.P,U5,38*%
%TO.N,Net-(U1-Pad9)*%
X108813600Y-89408000D03*
%TO.P,U5,18*%
%TO.N,Net-(U5-Pad18)*%
X146913600Y-104648000D03*
%TO.P,U5,37*%
%TO.N,Net-(U1-Pad10)*%
X111353600Y-89408000D03*
%TO.P,U5,17*%
%TO.N,Net-(J4-Pad16)*%
X144373600Y-104648000D03*
%TO.P,U5,36*%
%TO.N,Net-(U1-Pad11)*%
X113893600Y-89408000D03*
%TO.P,U5,16*%
%TO.N,Net-(J4-Pad15)*%
X141833600Y-104648000D03*
%TO.P,U5,35*%
%TO.N,Net-(U1-Pad12)*%
X116433600Y-89408000D03*
%TO.P,U5,15*%
%TO.N,Net-(J4-Pad14)*%
X139293600Y-104648000D03*
%TO.P,U5,34*%
%TO.N,Net-(R1-Pad1)*%
X118973600Y-89408000D03*
%TO.P,U5,14*%
%TO.N,Net-(J4-Pad13)*%
X136753600Y-104648000D03*
%TO.P,U5,33*%
%TO.N,Net-(U1-Pad33)*%
X121513600Y-89408000D03*
%TO.P,U5,13*%
%TO.N,Net-(J4-Pad12)*%
X134213600Y-104648000D03*
%TO.P,U5,32*%
%TO.N,Net-(U1-Pad32)*%
X124053600Y-89408000D03*
%TO.P,U5,12*%
%TO.N,Net-(J4-Pad11)*%
X131673600Y-104648000D03*
%TO.P,U5,31*%
%TO.N,Net-(U1-Pad31)*%
X126593600Y-89408000D03*
%TO.P,U5,11*%
%TO.N,Net-(J4-Pad10)*%
X129133600Y-104648000D03*
%TO.P,U5,30*%
%TO.N,Net-(U1-Pad30)*%
X129133600Y-89408000D03*
%TO.P,U5,10*%
%TO.N,Net-(J4-Pad9)*%
X126593600Y-104648000D03*
%TO.P,U5,29*%
%TO.N,Net-(U1-Pad29)*%
X131673600Y-89408000D03*
%TO.P,U5,9*%
%TO.N,Net-(J4-Pad8)*%
X124053600Y-104648000D03*
%TO.P,U5,28*%
%TO.N,Net-(U1-Pad28)*%
X134213600Y-89408000D03*
%TO.P,U5,8*%
%TO.N,Net-(J4-Pad7)*%
X121513600Y-104648000D03*
%TO.P,U5,27*%
%TO.N,Net-(U1-Pad27)*%
X136753600Y-89408000D03*
%TO.P,U5,7*%
%TO.N,Net-(J4-Pad6)*%
X118973600Y-104648000D03*
%TO.P,U5,26*%
%TO.N,Net-(U1-Pad26)*%
X139293600Y-89408000D03*
%TO.P,U5,6*%
%TO.N,Net-(J4-Pad5)*%
X116433600Y-104648000D03*
%TO.P,U5,25*%
%TO.N,Net-(U1-Pad39)*%
X141833600Y-89408000D03*
%TO.P,U5,5*%
%TO.N,Net-(J4-Pad4)*%
X113893600Y-104648000D03*
%TO.P,U5,24*%
%TO.N,Net-(U5-Pad24)*%
X144373600Y-89408000D03*
%TO.P,U5,4*%
%TO.N,Net-(J4-Pad3)*%
X111353600Y-104648000D03*
%TO.P,U5,23*%
%TO.N,Net-(U11-Pad6)*%
X146913600Y-89408000D03*
%TO.P,U5,3*%
%TO.N,Net-(J4-Pad2)*%
X108813600Y-104648000D03*
%TO.P,U5,22*%
%TO.N,Net-(U1-Pad34)*%
X149453600Y-89408000D03*
%TO.P,U5,2*%
%TO.N,Net-(J4-Pad1)*%
X106273600Y-104648000D03*
%TO.P,U5,21*%
%TO.N,Net-(U5-Pad21)*%
X151993600Y-89408000D03*
D12*
%TO.P,U5,1*%
%TO.N,GND*%
X103733600Y-104648000D03*
%TD*%
D13*
%TO.P,U4,20*%
%TO.N,+5V*%
X61264800Y-64770000D03*
%TO.P,U4,10*%
%TO.N,GND*%
X53644800Y-87630000D03*
%TO.P,U4,19*%
%TO.N,Net-(U11-Pad12)*%
X61264800Y-67310000D03*
%TO.P,U4,9*%
%TO.N,Net-(U1-Pad20)*%
X53644800Y-85090000D03*
%TO.P,U4,18*%
%TO.N,Net-(U1-Pad25)*%
X61264800Y-69850000D03*
%TO.P,U4,8*%
%TO.N,+5V*%
X53644800Y-82550000D03*
%TO.P,U4,17*%
%TO.N,GND*%
X61264800Y-72390000D03*
%TO.P,U4,7*%
%TO.N,Net-(U1-Pad19)*%
X53644800Y-80010000D03*
%TO.P,U4,16*%
%TO.N,Net-(U1-Pad24)*%
X61264800Y-74930000D03*
%TO.P,U4,6*%
%TO.N,+5V*%
X53644800Y-77470000D03*
%TO.P,U4,15*%
X61264800Y-77470000D03*
%TO.P,U4,5*%
%TO.N,Net-(U1-Pad18)*%
X53644800Y-74930000D03*
%TO.P,U4,14*%
%TO.N,Net-(U1-Pad23)*%
X61264800Y-80010000D03*
%TO.P,U4,4*%
%TO.N,+5V*%
X53644800Y-72390000D03*
%TO.P,U4,13*%
X61264800Y-82550000D03*
%TO.P,U4,3*%
%TO.N,Net-(U1-Pad17)*%
X53644800Y-69850000D03*
%TO.P,U4,12*%
%TO.N,Net-(U1-Pad22)*%
X61264800Y-85090000D03*
%TO.P,U4,2*%
%TO.N,+5V*%
X53644800Y-67310000D03*
%TO.P,U4,11*%
X61264800Y-87630000D03*
D12*
%TO.P,U4,1*%
%TO.N,Net-(U4-Pad1)*%
X53644800Y-64770000D03*
%TD*%
D13*
%TO.P,U3,28*%
%TO.N,+5V*%
X99517200Y-104648000D03*
%TO.P,U3,14*%
%TO.N,GND*%
X66497200Y-89408000D03*
%TO.P,U3,27*%
%TO.N,+5V*%
X96977200Y-104648000D03*
%TO.P,U3,13*%
%TO.N,Net-(U1-Pad31)*%
X69037200Y-89408000D03*
%TO.P,U3,26*%
%TO.N,Net-(U1-Pad23)*%
X94437200Y-104648000D03*
%TO.P,U3,12*%
%TO.N,Net-(U1-Pad32)*%
X71577200Y-89408000D03*
%TO.P,U3,25*%
%TO.N,Net-(U1-Pad17)*%
X91897200Y-104648000D03*
%TO.P,U3,11*%
%TO.N,Net-(U1-Pad33)*%
X74117200Y-89408000D03*
%TO.P,U3,24*%
%TO.N,Net-(U1-Pad18)*%
X89357200Y-104648000D03*
%TO.P,U3,10*%
%TO.N,Net-(U1-Pad9)*%
X76657200Y-89408000D03*
%TO.P,U3,23*%
%TO.N,Net-(U1-Pad20)*%
X86817200Y-104648000D03*
%TO.P,U3,9*%
%TO.N,Net-(U1-Pad10)*%
X79197200Y-89408000D03*
%TO.P,U3,22*%
%TO.N,GND*%
X84277200Y-104648000D03*
%TO.P,U3,8*%
%TO.N,Net-(U1-Pad11)*%
X81737200Y-89408000D03*
%TO.P,U3,21*%
%TO.N,Net-(U1-Pad19)*%
X81737200Y-104648000D03*
%TO.P,U3,7*%
%TO.N,Net-(U1-Pad12)*%
X84277200Y-89408000D03*
%TO.P,U3,20*%
%TO.N,Net-(U3-Pad20)*%
X79197200Y-104648000D03*
%TO.P,U3,6*%
%TO.N,Net-(U1-Pad13)*%
X86817200Y-89408000D03*
%TO.P,U3,19*%
%TO.N,Net-(U1-Pad26)*%
X76657200Y-104648000D03*
%TO.P,U3,5*%
%TO.N,Net-(U1-Pad14)*%
X89357200Y-89408000D03*
%TO.P,U3,18*%
%TO.N,Net-(U1-Pad27)*%
X74117200Y-104648000D03*
%TO.P,U3,4*%
%TO.N,Net-(U1-Pad15)*%
X91897200Y-89408000D03*
%TO.P,U3,17*%
%TO.N,Net-(U1-Pad28)*%
X71577200Y-104648000D03*
%TO.P,U3,3*%
%TO.N,Net-(U1-Pad16)*%
X94437200Y-89408000D03*
%TO.P,U3,16*%
%TO.N,Net-(U1-Pad29)*%
X69037200Y-104648000D03*
%TO.P,U3,2*%
%TO.N,Net-(U1-Pad22)*%
X96977200Y-89408000D03*
%TO.P,U3,15*%
%TO.N,Net-(U1-Pad30)*%
X66497200Y-104648000D03*
D12*
%TO.P,U3,1*%
%TO.N,Net-(U1-Pad24)*%
X99517200Y-89408000D03*
%TD*%
D13*
%TO.P,U2,40*%
%TO.N,Net-(R6-Pad2)*%
X152349200Y-37439600D03*
%TO.P,U2,20*%
%TO.N,+5V*%
X137109200Y-85699600D03*
%TO.P,U2,39*%
%TO.N,Net-(R7-Pad2)*%
X152349200Y-39979600D03*
%TO.P,U2,19*%
%TO.N,Net-(R5-Pad1)*%
X137109200Y-83159600D03*
%TO.P,U2,38*%
%TO.N,Net-(U1-Pad9)*%
X152349200Y-42519600D03*
%TO.P,U2,18*%
%TO.N,Net-(R8-Pad1)*%
X137109200Y-80619600D03*
%TO.P,U2,37*%
%TO.N,Net-(U1-Pad10)*%
X152349200Y-45059600D03*
%TO.P,U2,17*%
%TO.N,Net-(J3-Pad16)*%
X137109200Y-78079600D03*
%TO.P,U2,36*%
%TO.N,Net-(U1-Pad11)*%
X152349200Y-47599600D03*
%TO.P,U2,16*%
%TO.N,Net-(J3-Pad15)*%
X137109200Y-75539600D03*
%TO.P,U2,35*%
%TO.N,Net-(U1-Pad12)*%
X152349200Y-50139600D03*
%TO.P,U2,15*%
%TO.N,Net-(J3-Pad14)*%
X137109200Y-72999600D03*
%TO.P,U2,34*%
%TO.N,Net-(R1-Pad1)*%
X152349200Y-52679600D03*
%TO.P,U2,14*%
%TO.N,Net-(J3-Pad13)*%
X137109200Y-70459600D03*
%TO.P,U2,33*%
%TO.N,Net-(U1-Pad33)*%
X152349200Y-55219600D03*
%TO.P,U2,13*%
%TO.N,Net-(J3-Pad12)*%
X137109200Y-67919600D03*
%TO.P,U2,32*%
%TO.N,Net-(U1-Pad32)*%
X152349200Y-57759600D03*
%TO.P,U2,12*%
%TO.N,Net-(J3-Pad11)*%
X137109200Y-65379600D03*
%TO.P,U2,31*%
%TO.N,Net-(U1-Pad31)*%
X152349200Y-60299600D03*
%TO.P,U2,11*%
%TO.N,Net-(J3-Pad10)*%
X137109200Y-62839600D03*
%TO.P,U2,30*%
%TO.N,Net-(U1-Pad30)*%
X152349200Y-62839600D03*
%TO.P,U2,10*%
%TO.N,Net-(J3-Pad9)*%
X137109200Y-60299600D03*
%TO.P,U2,29*%
%TO.N,Net-(U1-Pad29)*%
X152349200Y-65379600D03*
%TO.P,U2,9*%
%TO.N,Net-(J3-Pad8)*%
X137109200Y-57759600D03*
%TO.P,U2,28*%
%TO.N,Net-(U1-Pad28)*%
X152349200Y-67919600D03*
%TO.P,U2,8*%
%TO.N,Net-(J3-Pad7)*%
X137109200Y-55219600D03*
%TO.P,U2,27*%
%TO.N,Net-(U1-Pad27)*%
X152349200Y-70459600D03*
%TO.P,U2,7*%
%TO.N,Net-(J3-Pad6)*%
X137109200Y-52679600D03*
%TO.P,U2,26*%
%TO.N,Net-(U1-Pad26)*%
X152349200Y-72999600D03*
%TO.P,U2,6*%
%TO.N,Net-(J3-Pad5)*%
X137109200Y-50139600D03*
%TO.P,U2,25*%
%TO.N,Net-(U1-Pad39)*%
X152349200Y-75539600D03*
%TO.P,U2,5*%
%TO.N,Net-(J3-Pad4)*%
X137109200Y-47599600D03*
%TO.P,U2,24*%
%TO.N,Net-(U2-Pad24)*%
X152349200Y-78079600D03*
%TO.P,U2,4*%
%TO.N,Net-(J3-Pad3)*%
X137109200Y-45059600D03*
%TO.P,U2,23*%
%TO.N,Net-(U11-Pad11)*%
X152349200Y-80619600D03*
%TO.P,U2,3*%
%TO.N,Net-(J3-Pad2)*%
X137109200Y-42519600D03*
%TO.P,U2,22*%
%TO.N,Net-(U1-Pad34)*%
X152349200Y-83159600D03*
%TO.P,U2,2*%
%TO.N,Net-(J3-Pad1)*%
X137109200Y-39979600D03*
%TO.P,U2,21*%
%TO.N,Net-(U1-Pad4)*%
X152349200Y-85699600D03*
D12*
%TO.P,U2,1*%
%TO.N,GND*%
X137109200Y-37439600D03*
%TD*%
D13*
%TO.P,U1,40*%
%TO.N,Net-(R1-Pad1)*%
X66598800Y-48818800D03*
%TO.P,U1,20*%
%TO.N,Net-(U1-Pad20)*%
X114858800Y-64058800D03*
%TO.P,U1,39*%
%TO.N,Net-(U1-Pad39)*%
X69138800Y-48818800D03*
%TO.P,U1,19*%
%TO.N,Net-(U1-Pad19)*%
X112318800Y-64058800D03*
%TO.P,U1,38*%
%TO.N,+5V*%
X71678800Y-48818800D03*
%TO.P,U1,18*%
%TO.N,Net-(U1-Pad18)*%
X109778800Y-64058800D03*
%TO.P,U1,37*%
%TO.N,Net-(U1-Pad37)*%
X74218800Y-48818800D03*
%TO.P,U1,17*%
%TO.N,Net-(U1-Pad17)*%
X107238800Y-64058800D03*
%TO.P,U1,36*%
%TO.N,Net-(R4-Pad1)*%
X76758800Y-48818800D03*
%TO.P,U1,16*%
%TO.N,Net-(U1-Pad16)*%
X104698800Y-64058800D03*
%TO.P,U1,35*%
%TO.N,Net-(U1-Pad35)*%
X79298800Y-48818800D03*
%TO.P,U1,15*%
%TO.N,Net-(U1-Pad15)*%
X102158800Y-64058800D03*
%TO.P,U1,34*%
%TO.N,Net-(U1-Pad34)*%
X81838800Y-48818800D03*
%TO.P,U1,14*%
%TO.N,Net-(U1-Pad14)*%
X99618800Y-64058800D03*
%TO.P,U1,33*%
%TO.N,Net-(U1-Pad33)*%
X84378800Y-48818800D03*
%TO.P,U1,13*%
%TO.N,Net-(U1-Pad13)*%
X97078800Y-64058800D03*
%TO.P,U1,32*%
%TO.N,Net-(U1-Pad32)*%
X86918800Y-48818800D03*
%TO.P,U1,12*%
%TO.N,Net-(U1-Pad12)*%
X94538800Y-64058800D03*
%TO.P,U1,31*%
%TO.N,Net-(U1-Pad31)*%
X89458800Y-48818800D03*
%TO.P,U1,11*%
%TO.N,Net-(U1-Pad11)*%
X91998800Y-64058800D03*
%TO.P,U1,30*%
%TO.N,Net-(U1-Pad30)*%
X91998800Y-48818800D03*
%TO.P,U1,10*%
%TO.N,Net-(U1-Pad10)*%
X89458800Y-64058800D03*
%TO.P,U1,29*%
%TO.N,Net-(U1-Pad29)*%
X94538800Y-48818800D03*
%TO.P,U1,9*%
%TO.N,Net-(U1-Pad9)*%
X86918800Y-64058800D03*
%TO.P,U1,28*%
%TO.N,Net-(U1-Pad28)*%
X97078800Y-48818800D03*
%TO.P,U1,8*%
%TO.N,+5V*%
X84378800Y-64058800D03*
%TO.P,U1,27*%
%TO.N,Net-(U1-Pad27)*%
X99618800Y-48818800D03*
%TO.P,U1,7*%
%TO.N,Net-(U1-Pad7)*%
X81838800Y-64058800D03*
%TO.P,U1,26*%
%TO.N,Net-(U1-Pad26)*%
X102158800Y-48818800D03*
%TO.P,U1,6*%
%TO.N,Net-(R2-Pad1)*%
X79298800Y-64058800D03*
%TO.P,U1,25*%
%TO.N,Net-(U1-Pad25)*%
X104698800Y-48818800D03*
%TO.P,U1,5*%
%TO.N,Net-(U1-Pad5)*%
X76758800Y-64058800D03*
%TO.P,U1,24*%
%TO.N,Net-(U1-Pad24)*%
X107238800Y-48818800D03*
%TO.P,U1,4*%
%TO.N,Net-(U1-Pad4)*%
X74218800Y-64058800D03*
%TO.P,U1,23*%
%TO.N,Net-(U1-Pad23)*%
X109778800Y-48818800D03*
%TO.P,U1,3*%
%TO.N,Net-(U1-Pad3)*%
X71678800Y-64058800D03*
%TO.P,U1,22*%
%TO.N,Net-(U1-Pad22)*%
X112318800Y-48818800D03*
%TO.P,U1,2*%
%TO.N,Net-(R3-Pad1)*%
X69138800Y-64058800D03*
%TO.P,U1,21*%
%TO.N,GND*%
X114858800Y-48818800D03*
D12*
%TO.P,U1,1*%
%TO.N,Net-(U1-Pad1)*%
X66598800Y-64058800D03*
%TD*%
D14*
%TO.P,Reset,1*%
%TO.N,Net-(SW1-Pad1)*%
X55323600Y-34899600D03*
%TO.P,Reset,2*%
%TO.N,Net-(R1-Pad1)*%
X61823600Y-34899600D03*
%TO.P,Reset,3*%
%TO.N,GND*%
X55323600Y-39399600D03*
%TO.P,Reset,4*%
X61823600Y-39399600D03*
%TD*%
D15*
%TO.P,R10,2*%
%TO.N,Net-(J4-Pad14)*%
X49174400Y-90627200D03*
D16*
%TO.P,R10,1*%
%TO.N,+5V*%
X44094400Y-90627200D03*
%TD*%
D15*
%TO.P,R9,2*%
%TO.N,+5V*%
X56286400Y-90627200D03*
D16*
%TO.P,R9,1*%
%TO.N,Net-(J4-Pad13)*%
X51206400Y-90627200D03*
%TD*%
D15*
%TO.P,R8,2*%
%TO.N,GND*%
X134569200Y-73964800D03*
D16*
%TO.P,R8,1*%
%TO.N,Net-(R8-Pad1)*%
X134569200Y-79044800D03*
%TD*%
D15*
%TO.P,R7,2*%
%TO.N,Net-(R7-Pad2)*%
X150520400Y-34290000D03*
D16*
%TO.P,R7,1*%
%TO.N,GND*%
X145440400Y-34290000D03*
%TD*%
D15*
%TO.P,R6,2*%
%TO.N,Net-(R6-Pad2)*%
X152755600Y-34290000D03*
D16*
%TO.P,R6,1*%
%TO.N,GND*%
X157835600Y-34290000D03*
%TD*%
D15*
%TO.P,R5,2*%
%TO.N,GND*%
X134569200Y-86309200D03*
D16*
%TO.P,R5,1*%
%TO.N,Net-(R5-Pad1)*%
X134569200Y-81229200D03*
%TD*%
D15*
%TO.P,R4,2*%
%TO.N,+5V*%
X58470800Y-45923200D03*
D16*
%TO.P,R4,1*%
%TO.N,Net-(R4-Pad1)*%
X63550800Y-45923200D03*
%TD*%
D15*
%TO.P,R3,2*%
%TO.N,+5V*%
X64058800Y-66802000D03*
D16*
%TO.P,R3,1*%
%TO.N,Net-(R3-Pad1)*%
X69138800Y-66802000D03*
%TD*%
D15*
%TO.P,R2,2*%
%TO.N,+5V*%
X74218800Y-66852800D03*
D16*
%TO.P,R2,1*%
%TO.N,Net-(R2-Pad1)*%
X79298800Y-66852800D03*
%TD*%
D15*
%TO.P,R1,2*%
%TO.N,+5V*%
X58470800Y-43789600D03*
D16*
%TO.P,R1,1*%
%TO.N,Net-(R1-Pad1)*%
X63550800Y-43789600D03*
%TD*%
D17*
%TO.P,J7,5*%
%TO.N,GND*%
X40436800Y-44450000D03*
%TO.P,J7,4*%
X40436800Y-41910000D03*
%TO.P,J7,3*%
X40436800Y-39370000D03*
%TO.P,J7,2*%
%TO.N,+5V*%
X40436800Y-36830000D03*
D18*
%TO.P,J7,1*%
X40436800Y-34290000D03*
%TD*%
D17*
%TO.P,J6,5*%
%TO.N,GND*%
X40436800Y-108153200D03*
%TO.P,J6,4*%
X40436800Y-105613200D03*
%TO.P,J6,3*%
X40436800Y-103073200D03*
%TO.P,J6,2*%
%TO.N,+5V*%
X40436800Y-100533200D03*
D18*
%TO.P,J6,1*%
X40436800Y-97993200D03*
%TD*%
D19*
%TO.P,J5,11*%
%TO.N,N/C*%
X53771800Y-106375200D03*
%TO.P,J5,10*%
X47015400Y-105562400D03*
%TO.P,J5,9*%
X60528200Y-105562400D03*
D20*
%TO.P,J5,5*%
%TO.N,Net-(J4-Pad13)*%
X51257200Y-100076000D03*
%TO.P,J5,6*%
%TO.N,Net-(J5-Pad6)*%
X56286400Y-100076000D03*
%TO.P,J5,3*%
%TO.N,GND*%
X51257200Y-102565200D03*
%TO.P,J5,1*%
%TO.N,Net-(J4-Pad14)*%
X52933600Y-102565200D03*
%TO.P,J5,2*%
%TO.N,Net-(J5-Pad2)*%
X54610000Y-102565200D03*
%TO.P,J5,4*%
%TO.N,+5V*%
X56286400Y-102565200D03*
%TD*%
D17*
%TO.P,J4,16*%
%TO.N,Net-(J4-Pad16)*%
X144424400Y-108102400D03*
%TO.P,J4,15*%
%TO.N,Net-(J4-Pad15)*%
X141884400Y-108102400D03*
%TO.P,J4,14*%
%TO.N,Net-(J4-Pad14)*%
X139344400Y-108102400D03*
%TO.P,J4,13*%
%TO.N,Net-(J4-Pad13)*%
X136804400Y-108102400D03*
%TO.P,J4,12*%
%TO.N,Net-(J4-Pad12)*%
X134264400Y-108102400D03*
%TO.P,J4,11*%
%TO.N,Net-(J4-Pad11)*%
X131724400Y-108102400D03*
%TO.P,J4,10*%
%TO.N,Net-(J4-Pad10)*%
X129184400Y-108102400D03*
%TO.P,J4,9*%
%TO.N,Net-(J4-Pad9)*%
X126644400Y-108102400D03*
%TO.P,J4,8*%
%TO.N,Net-(J4-Pad8)*%
X124104400Y-108102400D03*
%TO.P,J4,7*%
%TO.N,Net-(J4-Pad7)*%
X121564400Y-108102400D03*
%TO.P,J4,6*%
%TO.N,Net-(J4-Pad6)*%
X119024400Y-108102400D03*
%TO.P,J4,5*%
%TO.N,Net-(J4-Pad5)*%
X116484400Y-108102400D03*
%TO.P,J4,4*%
%TO.N,Net-(J4-Pad4)*%
X113944400Y-108102400D03*
%TO.P,J4,3*%
%TO.N,Net-(J4-Pad3)*%
X111404400Y-108102400D03*
%TO.P,J4,2*%
%TO.N,Net-(J4-Pad2)*%
X108864400Y-108102400D03*
D18*
%TO.P,J4,1*%
%TO.N,Net-(J4-Pad1)*%
X106324400Y-108102400D03*
%TD*%
D17*
%TO.P,J3,16*%
%TO.N,Net-(J3-Pad16)*%
X166776400Y-78079600D03*
%TO.P,J3,15*%
%TO.N,Net-(J3-Pad15)*%
X166776400Y-75539600D03*
%TO.P,J3,14*%
%TO.N,Net-(J3-Pad14)*%
X166776400Y-72999600D03*
%TO.P,J3,13*%
%TO.N,Net-(J3-Pad13)*%
X166776400Y-70459600D03*
%TO.P,J3,12*%
%TO.N,Net-(J3-Pad12)*%
X166776400Y-67919600D03*
%TO.P,J3,11*%
%TO.N,Net-(J3-Pad11)*%
X166776400Y-65379600D03*
%TO.P,J3,10*%
%TO.N,Net-(J3-Pad10)*%
X166776400Y-62839600D03*
%TO.P,J3,9*%
%TO.N,Net-(J3-Pad9)*%
X166776400Y-60299600D03*
%TO.P,J3,8*%
%TO.N,Net-(J3-Pad8)*%
X166776400Y-57759600D03*
%TO.P,J3,7*%
%TO.N,Net-(J3-Pad7)*%
X166776400Y-55219600D03*
%TO.P,J3,6*%
%TO.N,Net-(J3-Pad6)*%
X166776400Y-52679600D03*
%TO.P,J3,5*%
%TO.N,Net-(J3-Pad5)*%
X166776400Y-50139600D03*
%TO.P,J3,4*%
%TO.N,Net-(J3-Pad4)*%
X166776400Y-47599600D03*
%TO.P,J3,3*%
%TO.N,Net-(J3-Pad3)*%
X166776400Y-45059600D03*
%TO.P,J3,2*%
%TO.N,Net-(J3-Pad2)*%
X166776400Y-42519600D03*
D18*
%TO.P,J3,1*%
%TO.N,Net-(J3-Pad1)*%
X166776400Y-39979600D03*
%TD*%
D17*
%TO.P,J2,5*%
%TO.N,GND*%
X132689600Y-33985200D03*
%TO.P,J2,4*%
X130149600Y-33985200D03*
%TO.P,J2,3*%
X127609600Y-33985200D03*
%TO.P,J2,2*%
%TO.N,+5V*%
X125069600Y-33985200D03*
D18*
%TO.P,J2,1*%
X122529600Y-33985200D03*
%TD*%
D17*
%TO.P,J1,5*%
%TO.N,GND*%
X166776400Y-108813600D03*
%TO.P,J1,4*%
X166776400Y-106273600D03*
%TO.P,J1,3*%
X166776400Y-103733600D03*
%TO.P,J1,2*%
%TO.N,+5V*%
X166776400Y-101193600D03*
D18*
%TO.P,J1,1*%
X166776400Y-98653600D03*
%TD*%
D11*
%TO.P,C17,2*%
%TO.N,GND*%
X161870400Y-101447600D03*
D12*
%TO.P,C17,1*%
%TO.N,+5V*%
X156870400Y-101447600D03*
%TD*%
D11*
%TO.P,C16,2*%
%TO.N,GND*%
X162022800Y-41249600D03*
D12*
%TO.P,C16,1*%
%TO.N,+5V*%
X157022800Y-41249600D03*
%TD*%
D11*
%TO.P,C15,2*%
%TO.N,GND*%
X95137600Y-81483200D03*
%TO.P,C15,1*%
%TO.N,+5V*%
X97637600Y-81483200D03*
%TD*%
%TO.P,C14,2*%
%TO.N,GND*%
X57861200Y-68235200D03*
%TO.P,C14,1*%
%TO.N,+5V*%
X57861200Y-65735200D03*
%TD*%
%TO.P,C13,2*%
%TO.N,GND*%
X60158000Y-96062800D03*
%TO.P,C13,1*%
%TO.N,+5V*%
X57658000Y-96062800D03*
%TD*%
%TO.P,C12,2*%
%TO.N,GND*%
X89317200Y-35407600D03*
%TO.P,C12,1*%
%TO.N,+5V*%
X86817200Y-35407600D03*
%TD*%
%TO.P,C11,2*%
%TO.N,GND*%
X132029200Y-83707600D03*
%TO.P,C11,1*%
%TO.N,+5V*%
X132029200Y-86207600D03*
%TD*%
%TO.P,C10,2*%
%TO.N,GND*%
X125944000Y-47904400D03*
%TO.P,C10,1*%
%TO.N,+5V*%
X123444000Y-47904400D03*
%TD*%
%TO.P,C9,2*%
%TO.N,GND*%
X86878800Y-66903600D03*
%TO.P,C9,1*%
%TO.N,+5V*%
X84378800Y-66903600D03*
%TD*%
%TO.P,C8,2*%
%TO.N,GND*%
X147868000Y-100330000D03*
%TO.P,C8,1*%
%TO.N,+5V*%
X150368000Y-100330000D03*
%TD*%
%TO.P,C7,2*%
%TO.N,GND*%
X95137600Y-100482400D03*
%TO.P,C7,1*%
%TO.N,+5V*%
X97637600Y-100482400D03*
%TD*%
%TO.P,C6,2*%
%TO.N,GND*%
X69251200Y-35356800D03*
%TO.P,C6,1*%
%TO.N,+5V*%
X66751200Y-35356800D03*
%TD*%
%TO.P,C5,2*%
%TO.N,GND*%
X122569600Y-81838800D03*
%TO.P,C5,1*%
%TO.N,+5V*%
X125069600Y-81838800D03*
%TD*%
%TO.P,C4,2*%
%TO.N,GND*%
X98490400Y-67259200D03*
%TO.P,C4,1*%
%TO.N,+5V*%
X100990400Y-67259200D03*
%TD*%
%TO.P,C3,2*%
%TO.N,GND*%
X47599600Y-68184400D03*
%TO.P,C3,1*%
%TO.N,+5V*%
X47599600Y-65684400D03*
%TD*%
%TO.P,C2,2*%
%TO.N,GND*%
X50262800Y-36880800D03*
D12*
%TO.P,C2,1*%
%TO.N,+5V*%
X45262800Y-36880800D03*
%TD*%
D11*
%TO.P,C1,2*%
%TO.N,GND*%
X41554400Y-55118000D03*
%TO.P,C1,1*%
%TO.N,+5V*%
X41554400Y-52618000D03*
%TD*%
D21*
%TO.N,Net-(R1-Pad1)*%
X66802000Y-52730400D03*
X120149401Y-53804601D03*
%TO.N,Net-(R4-Pad1)*%
X74218800Y-53079601D03*
X76555600Y-53079601D03*
%TO.N,Net-(U1-Pad20)*%
X55067200Y-93726000D03*
X86664800Y-93929200D03*
X86563200Y-91795600D03*
X106476800Y-87172800D03*
%TO.N,Net-(U1-Pad39)*%
X91897200Y-43586400D03*
X155143200Y-35966400D03*
%TO.N,Net-(U1-Pad18)*%
X89255600Y-76250800D03*
X101600000Y-76301600D03*
X104271653Y-69972347D03*
X106781600Y-70002400D03*
%TO.N,Net-(U1-Pad17)*%
X49428400Y-57099200D03*
X107492800Y-56997600D03*
X92354400Y-108661200D03*
X90932000Y-106629200D03*
%TO.N,Net-(U1-Pad16)*%
X105156000Y-87782400D03*
X105250199Y-68775799D03*
%TO.N,Net-(U1-Pad15)*%
X102209600Y-68935600D03*
X90373200Y-57861200D03*
X53695600Y-62230000D03*
X117805200Y-75946000D03*
X110286800Y-72325400D03*
%TO.N,Net-(U1-Pad34)*%
X67716400Y-51271000D03*
%TO.N,Net-(U1-Pad14)*%
X97816455Y-66032088D03*
X99618800Y-61315600D03*
X113741200Y-61417200D03*
%TO.N,Net-(U1-Pad33)*%
X83213928Y-67680181D03*
X164033200Y-82499200D03*
X163779200Y-55473600D03*
X74574400Y-99618800D03*
X103987600Y-99568000D03*
%TO.N,Net-(U1-Pad13)*%
X86868000Y-74015600D03*
X125425200Y-71374000D03*
X125323600Y-79349600D03*
X125425200Y-73964800D03*
%TO.N,Net-(U1-Pad32)*%
X72847200Y-55626000D03*
X86918800Y-55626000D03*
X161747200Y-57759600D03*
X161391600Y-84988400D03*
X150940600Y-55524400D03*
%TO.N,Net-(U1-Pad12)*%
X94234000Y-68427600D03*
X115570000Y-87172800D03*
X84277200Y-87095190D03*
X83108800Y-73050400D03*
X131013200Y-72085200D03*
%TO.N,Net-(U1-Pad31)*%
X68884800Y-54864000D03*
X108508800Y-51968400D03*
X111556800Y-52171600D03*
X150215600Y-50829599D03*
X157480000Y-60706000D03*
X158953200Y-94132400D03*
%TO.N,Net-(U1-Pad11)*%
X81737200Y-83667600D03*
X81148801Y-86614000D03*
X81889600Y-65887600D03*
X141427200Y-47199599D03*
X134315200Y-94538800D03*
X81838800Y-98653600D03*
X105664000Y-98958400D03*
X113893600Y-91694000D03*
%TO.N,Net-(U1-Pad30)*%
X64617600Y-56083200D03*
X91948000Y-56272600D03*
X158394400Y-62890400D03*
X101346000Y-105714800D03*
X107950000Y-98565800D03*
X153568400Y-98782801D03*
X129198200Y-98565800D03*
%TO.N,Net-(U1-Pad10)*%
X79044800Y-83464400D03*
X78943200Y-86868000D03*
X89408000Y-68173600D03*
X118008400Y-52171600D03*
X135331200Y-52425600D03*
X148386451Y-40132000D03*
X150418800Y-40335200D03*
X79698801Y-88107655D03*
X110540800Y-83362800D03*
%TO.N,Net-(U1-Pad29)*%
X156870400Y-65582800D03*
X141833600Y-93421200D03*
X67868800Y-96621600D03*
X130200400Y-96621600D03*
X131673600Y-93014800D03*
X69392800Y-72085200D03*
X70358000Y-67919600D03*
X70307200Y-60248800D03*
X94589600Y-61264800D03*
%TO.N,Net-(U1-Pad9)*%
X77876400Y-60502800D03*
X86969600Y-60350400D03*
X139750800Y-42265600D03*
X131521200Y-80213200D03*
X122885200Y-93421200D03*
X78130400Y-106680000D03*
X103632000Y-106984800D03*
%TO.N,Net-(U1-Pad28)*%
X160629600Y-67665600D03*
X159969200Y-87985600D03*
X71577200Y-95379201D03*
X127965200Y-95250000D03*
X128066800Y-87833200D03*
X118211600Y-50088800D03*
X147421600Y-48056800D03*
X147370800Y-68224400D03*
%TO.N,Net-(U1-Pad27)*%
X139852400Y-70916800D03*
X99720400Y-59385200D03*
X140360400Y-58449599D03*
X72694800Y-98958400D03*
X49022000Y-100584000D03*
X52476400Y-55930800D03*
X67291265Y-55675251D03*
X67288799Y-58521600D03*
X89255600Y-58566001D03*
X93522800Y-50850800D03*
%TO.N,Net-(U1-Pad26)*%
X140512800Y-73456800D03*
X102057200Y-59710201D03*
X134269199Y-60147200D03*
X135940800Y-74117200D03*
X132892800Y-103581200D03*
%TO.N,Net-(U1-Pad25)*%
X76606400Y-41300400D03*
X76555600Y-39674800D03*
X90881200Y-39674800D03*
X104495600Y-39776400D03*
X63613028Y-41418515D03*
%TO.N,Net-(U1-Pad24)*%
X99568000Y-74930000D03*
%TO.N,Net-(U1-Pad4)*%
X64465200Y-97840800D03*
X131081058Y-97329725D03*
X131876800Y-95656400D03*
X139395200Y-95300800D03*
X157269401Y-85394800D03*
%TO.N,Net-(U1-Pad23)*%
X93319600Y-53079601D03*
%TO.N,Net-(U1-Pad22)*%
X58369200Y-94451000D03*
X98552000Y-46939200D03*
%TO.N,Net-(U2-Pad24)*%
X81889600Y-32687600D03*
X149511450Y-33470228D03*
%TO.N,Net-(U11-Pad11)*%
X115722400Y-41254599D03*
X146202400Y-40669599D03*
X145440400Y-80619600D03*
%TO.N,Net-(U11-Pad12)*%
X63296800Y-42367200D03*
%TO.N,Net-(U4-Pad1)*%
X56134000Y-81483200D03*
X56032400Y-67005200D03*
%TO.N,Net-(U5-Pad24)*%
X143865600Y-43027600D03*
%TO.N,Net-(U11-Pad6)*%
X74168000Y-33412600D03*
X110693200Y-33782000D03*
X133553200Y-40284400D03*
X133197600Y-97332800D03*
%TO.N,Net-(U6-Pad27)*%
X75488800Y-54529601D03*
X96875600Y-54529601D03*
%TO.N,Net-(U10-Pad2)*%
X86203963Y-43244600D03*
X88341200Y-78638400D03*
X84378800Y-79044800D03*
%TO.N,Net-(U11-Pad10)*%
X122157195Y-47352912D03*
%TO.N,Net-(U11-Pad8)*%
X106527600Y-34137600D03*
%TO.N,Net-(U11-Pad4)*%
X119475201Y-54914800D03*
X106426000Y-55270400D03*
%TD*%
D22*
%TO.N,+5V*%
X84378800Y-64058800D02*
X84378800Y-66903600D01*
%TO.N,Net-(J4-Pad16)*%
X144373600Y-108051600D02*
X144424400Y-108102400D01*
X144373600Y-104648000D02*
X144373600Y-108051600D01*
%TO.N,Net-(J4-Pad15)*%
X141833600Y-108051600D02*
X141884400Y-108102400D01*
X141833600Y-104648000D02*
X141833600Y-108051600D01*
%TO.N,Net-(J4-Pad14)*%
X139293600Y-108051600D02*
X139344400Y-108102400D01*
X139293600Y-104648000D02*
X139293600Y-108051600D01*
X51871999Y-101503599D02*
X52933600Y-102565200D01*
X49174400Y-99564370D02*
X51113629Y-101503599D01*
X51113629Y-101503599D02*
X51871999Y-101503599D01*
X49174400Y-90627200D02*
X49174400Y-99564370D01*
%TO.N,Net-(J4-Pad13)*%
X136753600Y-108051600D02*
X136804400Y-108102400D01*
X136753600Y-104648000D02*
X136753600Y-108051600D01*
X51206400Y-100025200D02*
X51257200Y-100076000D01*
X51206400Y-90627200D02*
X51206400Y-100025200D01*
%TO.N,Net-(J4-Pad12)*%
X134213600Y-108051600D02*
X134264400Y-108102400D01*
X134213600Y-104648000D02*
X134213600Y-108051600D01*
%TO.N,Net-(J4-Pad11)*%
X131673600Y-108051600D02*
X131724400Y-108102400D01*
X131673600Y-104648000D02*
X131673600Y-108051600D01*
%TO.N,Net-(J4-Pad10)*%
X129133600Y-108051600D02*
X129184400Y-108102400D01*
X129133600Y-104648000D02*
X129133600Y-108051600D01*
%TO.N,Net-(J4-Pad9)*%
X126593600Y-108051600D02*
X126644400Y-108102400D01*
X126593600Y-104648000D02*
X126593600Y-108051600D01*
%TO.N,Net-(J4-Pad8)*%
X124053600Y-108051600D02*
X124104400Y-108102400D01*
X124053600Y-104648000D02*
X124053600Y-108051600D01*
%TO.N,Net-(J4-Pad7)*%
X121513600Y-108051600D02*
X121564400Y-108102400D01*
X121513600Y-104648000D02*
X121513600Y-108051600D01*
%TO.N,Net-(J4-Pad6)*%
X118973600Y-108051600D02*
X119024400Y-108102400D01*
X118973600Y-104648000D02*
X118973600Y-108051600D01*
%TO.N,Net-(J4-Pad5)*%
X116433600Y-108051600D02*
X116484400Y-108102400D01*
X116433600Y-104648000D02*
X116433600Y-108051600D01*
%TO.N,Net-(J4-Pad4)*%
X113893600Y-108051600D02*
X113944400Y-108102400D01*
X113893600Y-104648000D02*
X113893600Y-108051600D01*
%TO.N,Net-(J4-Pad3)*%
X111353600Y-108051600D02*
X111404400Y-108102400D01*
X111353600Y-104648000D02*
X111353600Y-108051600D01*
%TO.N,Net-(J4-Pad2)*%
X108813600Y-108051600D02*
X108864400Y-108102400D01*
X108813600Y-104648000D02*
X108813600Y-108051600D01*
%TO.N,Net-(J4-Pad1)*%
X106273600Y-108051600D02*
X106324400Y-108102400D01*
X106273600Y-104648000D02*
X106273600Y-108051600D01*
%TO.N,Net-(R1-Pad1)*%
X64575801Y-46795801D02*
X66598800Y-48818800D01*
X61823600Y-34899600D02*
X64575801Y-37651801D01*
X66598800Y-48818800D02*
X66598800Y-52527200D01*
X66598800Y-52527200D02*
X66802000Y-52730400D01*
X63550800Y-43789600D02*
X64516000Y-43789600D01*
X64575801Y-37651801D02*
X64575801Y-43729799D01*
X64516000Y-43789600D02*
X64575801Y-43729799D01*
X64575801Y-43729799D02*
X64575801Y-46795801D01*
X120200201Y-53855401D02*
X120149401Y-53804601D01*
X120200201Y-88181399D02*
X120200201Y-53855401D01*
X118973600Y-89408000D02*
X120200201Y-88181399D01*
%TO.N,Net-(R2-Pad1)*%
X79298800Y-64058800D02*
X79298800Y-66852800D01*
%TO.N,Net-(R3-Pad1)*%
X69138800Y-64058800D02*
X69138800Y-66802000D01*
%TO.N,Net-(R4-Pad1)*%
X73843000Y-53455401D02*
X74218800Y-53079601D01*
X66453999Y-53455401D02*
X73843000Y-53455401D01*
X63550800Y-45923200D02*
X63550800Y-50552202D01*
X63550800Y-50552202D02*
X66453999Y-53455401D01*
X76555600Y-49022000D02*
X76758800Y-48818800D01*
X76555600Y-53079601D02*
X76555600Y-49022000D01*
%TO.N,Net-(R5-Pad1)*%
X136499600Y-83159600D02*
X137109200Y-83159600D01*
X134569200Y-81229200D02*
X136499600Y-83159600D01*
%TO.N,Net-(R6-Pad2)*%
X152755600Y-37033200D02*
X152349200Y-37439600D01*
X152755600Y-34290000D02*
X152755600Y-37033200D01*
%TO.N,Net-(R7-Pad2)*%
X150520400Y-38150800D02*
X152349200Y-39979600D01*
X150520400Y-34290000D02*
X150520400Y-38150800D01*
%TO.N,Net-(R8-Pad1)*%
X136144000Y-80619600D02*
X137109200Y-80619600D01*
X134569200Y-79044800D02*
X136144000Y-80619600D01*
%TO.N,Net-(U1-Pad20)*%
X85692199Y-86418201D02*
X86868000Y-85242400D01*
X85692199Y-103522999D02*
X85692199Y-86418201D01*
X86817200Y-104648000D02*
X85692199Y-103522999D01*
X53644800Y-85090000D02*
X55067200Y-86512400D01*
X55067200Y-86512400D02*
X55067200Y-93726000D01*
X86664800Y-93929200D02*
X86664800Y-91897200D01*
X86664800Y-91897200D02*
X86563200Y-91795600D01*
X114858800Y-61461798D02*
X114858800Y-64058800D01*
X114089201Y-60692199D02*
X114858800Y-61461798D01*
X113393199Y-60692199D02*
X114089201Y-60692199D01*
X111193799Y-62891599D02*
X113393199Y-60692199D01*
X111193799Y-64574201D02*
X111193799Y-62891599D01*
X110330199Y-65437801D02*
X111193799Y-64574201D01*
X110330199Y-67356803D02*
X110330199Y-65437801D01*
X107688599Y-69998403D02*
X110330199Y-67356803D01*
X107688599Y-85961001D02*
X107688599Y-69998403D01*
X106476800Y-87172800D02*
X107688599Y-85961001D01*
%TO.N,Net-(U1-Pad39)*%
X91897200Y-37896800D02*
X91948000Y-37846000D01*
X91897200Y-43586400D02*
X91897200Y-37896800D01*
X155143200Y-72745600D02*
X152349200Y-75539600D01*
X155143200Y-35966400D02*
X155143200Y-72745600D01*
X152533601Y-90533001D02*
X142958601Y-90533001D01*
X153924210Y-77114610D02*
X153924210Y-89142392D01*
X142958601Y-90533001D02*
X141833600Y-89408000D01*
X153924210Y-89142392D02*
X152533601Y-90533001D01*
X152349200Y-75539600D02*
X153924210Y-77114610D01*
%TO.N,Net-(U1-Pad19)*%
X82862201Y-103522999D02*
X82862201Y-86316601D01*
X82862201Y-86316601D02*
X81788000Y-85242400D01*
X81737200Y-104648000D02*
X82862201Y-103522999D01*
%TO.N,Net-(U1-Pad18)*%
X88232199Y-86418201D02*
X89408000Y-85242400D01*
X88232199Y-103522999D02*
X88232199Y-86418201D01*
X89357200Y-104648000D02*
X88232199Y-103522999D01*
X89255600Y-85090000D02*
X89408000Y-85242400D01*
X89255600Y-76250800D02*
X89255600Y-85090000D01*
X101600000Y-76301600D02*
X101600000Y-72644000D01*
X101600000Y-72644000D02*
X104271653Y-69972347D01*
X107790199Y-68993801D02*
X107790199Y-66047401D01*
X107790199Y-66047401D02*
X109778800Y-64058800D01*
X106781600Y-70002400D02*
X107790199Y-68993801D01*
%TO.N,Net-(U1-Pad17)*%
X90772199Y-86418201D02*
X91948000Y-85242400D01*
X90772199Y-103522999D02*
X90772199Y-86418201D01*
X91897200Y-104648000D02*
X90772199Y-103522999D01*
X49428400Y-67654202D02*
X49428400Y-57099200D01*
X50209199Y-68435001D02*
X49428400Y-67654202D01*
X53644800Y-69850000D02*
X52229801Y-68435001D01*
X52229801Y-68435001D02*
X50209199Y-68435001D01*
X107492800Y-63804800D02*
X107238800Y-64058800D01*
X107492800Y-56997600D02*
X107492800Y-63804800D01*
X58768099Y-106407249D02*
X61022050Y-108661200D01*
X58768099Y-103475729D02*
X58768099Y-106407249D01*
X56795969Y-101503599D02*
X58768099Y-103475729D01*
X56142829Y-101503599D02*
X56795969Y-101503599D01*
X55224799Y-100585569D02*
X56142829Y-101503599D01*
X55408999Y-71614199D02*
X55408999Y-86217789D01*
X53644800Y-69850000D02*
X55408999Y-71614199D01*
X55408999Y-86217789D02*
X57311401Y-88120191D01*
X57311401Y-94744397D02*
X55224799Y-96830999D01*
X57311401Y-88120191D02*
X57311401Y-94744397D01*
X55224799Y-96830999D02*
X55224799Y-100585569D01*
X61022050Y-108661200D02*
X92354400Y-108661200D01*
X90932000Y-105613200D02*
X91897200Y-104648000D01*
X90932000Y-106629200D02*
X90932000Y-105613200D01*
%TO.N,Net-(U1-Pad16)*%
X105148599Y-85884001D02*
X105148599Y-78849001D01*
X105148599Y-78849001D02*
X106273600Y-77724000D01*
X105156000Y-85891402D02*
X105148599Y-85884001D01*
X105156000Y-87782400D02*
X105156000Y-85891402D01*
X105250199Y-64610199D02*
X104698800Y-64058800D01*
X106273600Y-77724000D02*
X105250199Y-76700599D01*
X105250199Y-68775799D02*
X105250199Y-64610199D01*
X105250199Y-76700599D02*
X105250199Y-68775799D01*
%TO.N,Net-(U1-Pad15)*%
X93073001Y-86020989D02*
X91897200Y-87196790D01*
X91897200Y-87196790D02*
X91897200Y-89408000D01*
X93073001Y-71127401D02*
X93073001Y-86020989D01*
X91948000Y-70002400D02*
X93073001Y-71127401D01*
X102209600Y-64109600D02*
X102158800Y-64058800D01*
X102209600Y-68935600D02*
X102209600Y-64109600D01*
X90873799Y-58361799D02*
X90373200Y-57861200D01*
X91948000Y-70002400D02*
X90873799Y-68928199D01*
X90873799Y-68928199D02*
X90873799Y-58361799D01*
X48724601Y-58573599D02*
X48724601Y-77985401D01*
X47802800Y-57651798D02*
X48724601Y-58573599D01*
X49080399Y-56374199D02*
X47802800Y-57651798D01*
X48724601Y-77985401D02*
X50749200Y-80010000D01*
X49776401Y-56374199D02*
X49080399Y-56374199D01*
X53695600Y-60293398D02*
X49776401Y-56374199D01*
X53695600Y-62230000D02*
X53695600Y-60293398D01*
X119075200Y-67106800D02*
X117805200Y-68376800D01*
X117805200Y-68376800D02*
X117805200Y-75946000D01*
X110286800Y-76657200D02*
X111353600Y-77724000D01*
X110286800Y-72325400D02*
X110286800Y-76657200D01*
%TO.N,Net-(U1-Pad34)*%
X150328598Y-89408000D02*
X149453600Y-89408000D01*
X153474201Y-86262397D02*
X150328598Y-89408000D01*
X153474201Y-84284601D02*
X153474201Y-86262397D01*
X152349200Y-83159600D02*
X153474201Y-84284601D01*
X67723801Y-51263599D02*
X67716400Y-51271000D01*
X66649600Y-45415200D02*
X67723801Y-46489401D01*
X67723801Y-46489401D02*
X67723801Y-51263599D01*
%TO.N,Net-(U1-Pad14)*%
X89357200Y-87196790D02*
X89357200Y-89408000D01*
X90533001Y-86020989D02*
X89357200Y-87196790D01*
X90533001Y-71127401D02*
X90533001Y-86020989D01*
X89408000Y-70002400D02*
X90533001Y-71127401D01*
X115308599Y-76598999D02*
X116433600Y-77724000D01*
X112870199Y-76115599D02*
X113353599Y-76598999D01*
X112870199Y-68231801D02*
X112870199Y-76115599D01*
X113353599Y-76598999D02*
X115308599Y-76598999D01*
X113995200Y-67106800D02*
X112870199Y-68231801D01*
X99618800Y-64058800D02*
X97816455Y-65861145D01*
X97816455Y-65861145D02*
X97816455Y-66032088D01*
X99618800Y-64058800D02*
X99618800Y-61315600D01*
X113733799Y-61424601D02*
X113733799Y-66845399D01*
X113733799Y-66845399D02*
X113995200Y-67106800D01*
X113741200Y-61417200D02*
X113733799Y-61424601D01*
%TO.N,Net-(U1-Pad33)*%
X84378800Y-48818800D02*
X83213928Y-49983672D01*
X83213928Y-49983672D02*
X83213928Y-67680181D01*
X75293001Y-86020989D02*
X74117200Y-87196790D01*
X75293001Y-71127401D02*
X75293001Y-86020989D01*
X74117200Y-87196790D02*
X74117200Y-89408000D01*
X74168000Y-70002400D02*
X75293001Y-71127401D01*
X164033200Y-82499200D02*
X164033200Y-55727600D01*
X164033200Y-55727600D02*
X163779200Y-55473600D01*
X74117200Y-89408000D02*
X74117200Y-99161600D01*
X74117200Y-99161600D02*
X74574400Y-99618800D01*
X120388599Y-90533001D02*
X121513600Y-89408000D01*
X113022599Y-90533001D02*
X120388599Y-90533001D01*
X103987600Y-99568000D02*
X113022599Y-90533001D01*
%TO.N,Net-(U1-Pad13)*%
X86817200Y-87196790D02*
X86817200Y-89408000D01*
X87993001Y-86020989D02*
X86817200Y-87196790D01*
X87993001Y-84702399D02*
X87993001Y-86020989D01*
X86868000Y-83577398D02*
X87993001Y-84702399D01*
X86868000Y-74015600D02*
X86868000Y-83577398D01*
X86868000Y-70002400D02*
X86868000Y-74015600D01*
X125425200Y-79248000D02*
X125323600Y-79349600D01*
X125425200Y-71374000D02*
X125425200Y-73964800D01*
X125425200Y-73964800D02*
X125425200Y-79248000D01*
%TO.N,Net-(U1-Pad32)*%
X71628000Y-70002400D02*
X72847200Y-68783200D01*
X72847200Y-68783200D02*
X72847200Y-55626000D01*
X86918800Y-55626000D02*
X86918800Y-48818800D01*
X71577200Y-87196790D02*
X71577200Y-89408000D01*
X72753001Y-86020989D02*
X71577200Y-87196790D01*
X72753001Y-71127401D02*
X72753001Y-86020989D01*
X71628000Y-70002400D02*
X72753001Y-71127401D01*
X161747200Y-57759600D02*
X161747200Y-84632800D01*
X161747200Y-84632800D02*
X161391600Y-84988400D01*
X150940600Y-56351000D02*
X152349200Y-57759600D01*
X150940600Y-55524400D02*
X150940600Y-56351000D01*
%TO.N,Net-(U1-Pad12)*%
X84277200Y-87095190D02*
X84277200Y-89408000D01*
X83202999Y-86020989D02*
X84277200Y-87095190D01*
X84328000Y-70002400D02*
X83202999Y-71127401D01*
X94234000Y-64363600D02*
X94538800Y-64058800D01*
X94234000Y-68427600D02*
X94234000Y-64363600D01*
X115570000Y-88544400D02*
X116433600Y-89408000D01*
X115570000Y-87172800D02*
X115570000Y-88544400D01*
X83202999Y-72956201D02*
X83108800Y-73050400D01*
X83202999Y-72956201D02*
X83202999Y-86020989D01*
X83202999Y-71127401D02*
X83202999Y-72956201D01*
X131013200Y-72085200D02*
X131013200Y-38150800D01*
X153780601Y-33530799D02*
X153780601Y-48708199D01*
X152995029Y-32745227D02*
X153780601Y-33530799D01*
X153780601Y-48708199D02*
X152349200Y-50139600D01*
X136418773Y-32745227D02*
X152995029Y-32745227D01*
X131013200Y-38150800D02*
X136418773Y-32745227D01*
%TO.N,Net-(U1-Pad31)*%
X69037200Y-87196790D02*
X69037200Y-89408000D01*
X70213001Y-86020989D02*
X69037200Y-87196790D01*
X70213001Y-71127401D02*
X70213001Y-86020989D01*
X69088000Y-70002400D02*
X70213001Y-71127401D01*
X68013799Y-68928199D02*
X69088000Y-70002400D01*
X68013799Y-55735001D02*
X68013799Y-68928199D01*
X68884800Y-54864000D02*
X68013799Y-55735001D01*
X108508800Y-51968400D02*
X111353600Y-51968400D01*
X111353600Y-51968400D02*
X111556800Y-52171600D01*
X150215600Y-50829599D02*
X150215600Y-60452000D01*
X150368000Y-60299600D02*
X152349200Y-60299600D01*
X150215600Y-60452000D02*
X150368000Y-60299600D01*
X157480000Y-60706000D02*
X159207200Y-62433200D01*
X159207200Y-62433200D02*
X159207200Y-93675200D01*
X159207200Y-93675200D02*
X158953200Y-93929200D01*
X158953200Y-93929200D02*
X158953200Y-94132400D01*
%TO.N,Net-(U1-Pad11)*%
X81788000Y-70002400D02*
X81788000Y-83616800D01*
X81788000Y-83616800D02*
X81737200Y-83667600D01*
X81737200Y-87202399D02*
X81737200Y-89408000D01*
X81148801Y-86614000D02*
X81737200Y-87202399D01*
X81788000Y-70002400D02*
X81788000Y-65989200D01*
X81788000Y-65989200D02*
X81889600Y-65887600D01*
X111353600Y-86868000D02*
X113893600Y-89408000D01*
X111353600Y-85344000D02*
X111353600Y-86868000D01*
X140418601Y-89157997D02*
X140418601Y-92296199D01*
X141427200Y-47199599D02*
X141427200Y-88149398D01*
X141427200Y-88149398D02*
X140418601Y-89157997D01*
X140418601Y-92296199D02*
X138176000Y-94538800D01*
X138176000Y-94538800D02*
X134315200Y-94538800D01*
X81737200Y-89408000D02*
X81737200Y-98552000D01*
X81737200Y-98552000D02*
X81838800Y-98653600D01*
X105664000Y-98958400D02*
X107391200Y-97231200D01*
X107391200Y-97231200D02*
X111099600Y-97231200D01*
X111099600Y-97231200D02*
X113893600Y-94437200D01*
X113893600Y-94437200D02*
X113893600Y-91694000D01*
%TO.N,Net-(U1-Pad30)*%
X65372199Y-103522999D02*
X66497200Y-104648000D01*
X65372199Y-86418201D02*
X65372199Y-103522999D01*
X66548000Y-85242400D02*
X65372199Y-86418201D01*
X65473799Y-56939399D02*
X64617600Y-56083200D01*
X65473799Y-67263197D02*
X65473799Y-56939399D01*
X66548000Y-85242400D02*
X67673001Y-84117399D01*
X67673001Y-69462399D02*
X65473799Y-67263197D01*
X67673001Y-84117399D02*
X67673001Y-69462399D01*
X91948000Y-48869600D02*
X91998800Y-48818800D01*
X91948000Y-56272600D02*
X91948000Y-48869600D01*
X157994401Y-63290399D02*
X157994401Y-94024399D01*
X158394400Y-62890400D02*
X157994401Y-63290399D01*
X129133600Y-97942400D02*
X129133600Y-89408000D01*
X129249001Y-98057801D02*
X129133600Y-97942400D01*
X101346000Y-104850598D02*
X108138797Y-98057801D01*
X101346000Y-105714800D02*
X101346000Y-104850598D01*
X129373799Y-98057801D02*
X129249001Y-98057801D01*
X108138797Y-98057801D02*
X108138797Y-98377003D01*
X108138797Y-98377003D02*
X107950000Y-98565800D01*
X154051000Y-98300201D02*
X154051000Y-97967800D01*
X153568400Y-98782801D02*
X154051000Y-98300201D01*
X157994401Y-94024399D02*
X154051000Y-97967800D01*
X154051000Y-97967800D02*
X153960999Y-98057801D01*
X129198200Y-98108602D02*
X129249001Y-98057801D01*
X129198200Y-98565800D02*
X129198200Y-98108602D01*
%TO.N,Net-(U1-Pad10)*%
X79248000Y-70002400D02*
X79248000Y-83261200D01*
X79248000Y-83261200D02*
X79044800Y-83464400D01*
X78943200Y-89154000D02*
X79197200Y-89408000D01*
X78943200Y-86868000D02*
X78943200Y-89154000D01*
X89408000Y-64109600D02*
X89458800Y-64058800D01*
X89408000Y-68173600D02*
X89408000Y-64109600D01*
X118008400Y-63968598D02*
X118008400Y-52171600D01*
X115410199Y-66566799D02*
X118008400Y-63968598D01*
X116973601Y-76598999D02*
X116433600Y-76598999D01*
X116433600Y-85344000D02*
X117558601Y-84218999D01*
X117558601Y-84218999D02*
X117558601Y-77183999D01*
X117558601Y-77183999D02*
X116973601Y-76598999D01*
X116433600Y-76598999D02*
X115410199Y-75575598D01*
X115410199Y-75575598D02*
X115410199Y-66566799D01*
X148199049Y-39944598D02*
X148386451Y-40132000D01*
X136492199Y-51264601D02*
X137649201Y-51264601D01*
X135331200Y-52425600D02*
X136492199Y-51264601D01*
X138234201Y-50679601D02*
X138234201Y-47564796D01*
X137649201Y-51264601D02*
X138234201Y-50679601D01*
X138234201Y-47564796D02*
X145854399Y-39944598D01*
X145854399Y-39944598D02*
X148199049Y-39944598D01*
X150418800Y-43129200D02*
X152349200Y-45059600D01*
X150418800Y-40335200D02*
X150418800Y-43129200D01*
X110140801Y-88195201D02*
X111353600Y-89408000D01*
X110140801Y-83762799D02*
X110140801Y-88195201D01*
X110540800Y-83362800D02*
X110140801Y-83762799D01*
%TO.N,Net-(U1-Pad29)*%
X67912199Y-103522999D02*
X69037200Y-104648000D01*
X69088000Y-85242400D02*
X67912199Y-86418201D01*
X156870400Y-65582800D02*
X156413200Y-66040000D01*
X156413200Y-66040000D02*
X156413200Y-87289812D01*
X156413200Y-87289812D02*
X156413200Y-93421200D01*
X156413200Y-93421200D02*
X141833600Y-93421200D01*
X67912199Y-96664999D02*
X67868800Y-96621600D01*
X67912199Y-96664999D02*
X67912199Y-103522999D01*
X67912199Y-86418201D02*
X67912199Y-96664999D01*
X130200400Y-94488000D02*
X131673600Y-93014800D01*
X130200400Y-96621600D02*
X130200400Y-94488000D01*
X69088000Y-85242400D02*
X69088000Y-72390000D01*
X69088000Y-72390000D02*
X69392800Y-72085200D01*
X70358000Y-67919600D02*
X70358000Y-60299600D01*
X70358000Y-60299600D02*
X70307200Y-60248800D01*
X94589600Y-48869600D02*
X94538800Y-48818800D01*
X94589600Y-61264800D02*
X94589600Y-48869600D01*
%TO.N,Net-(U1-Pad9)*%
X77833001Y-88232199D02*
X76657200Y-89408000D01*
X77833001Y-71127401D02*
X77833001Y-88232199D01*
X76708000Y-70002400D02*
X77833001Y-71127401D01*
X76708000Y-70002400D02*
X75633799Y-68928199D01*
X75633799Y-62745401D02*
X77876400Y-60502800D01*
X75633799Y-68928199D02*
X75633799Y-62745401D01*
X86969600Y-64008000D02*
X86918800Y-64058800D01*
X86969600Y-60350400D02*
X86969600Y-64008000D01*
X132828199Y-78906201D02*
X131521200Y-80213200D01*
X132828199Y-39936399D02*
X132828199Y-78906201D01*
X133205199Y-39559399D02*
X132828199Y-39936399D01*
X133901201Y-39559399D02*
X133205199Y-39559399D01*
X134278201Y-39936399D02*
X133901201Y-39559399D01*
X139750800Y-44373000D02*
X137649201Y-46474599D01*
X139750800Y-42265600D02*
X139750800Y-44373000D01*
X137649201Y-46474599D02*
X136569199Y-46474599D01*
X136569199Y-46474599D02*
X134278201Y-44183601D01*
X134278201Y-44183601D02*
X134278201Y-39936399D01*
X122885200Y-86715600D02*
X121513600Y-85344000D01*
X122885200Y-93421200D02*
X122885200Y-86715600D01*
X77782201Y-106331801D02*
X78130400Y-106680000D01*
X76657200Y-89408000D02*
X77782201Y-90533001D01*
X77782201Y-90533001D02*
X77782201Y-106331801D01*
X115835398Y-93421200D02*
X122885200Y-93421200D01*
X105148599Y-104107999D02*
X115835398Y-93421200D01*
X105148599Y-105468201D02*
X105148599Y-104107999D01*
X103632000Y-106984800D02*
X105148599Y-105468201D01*
%TO.N,Net-(U1-Pad28)*%
X70452199Y-103522999D02*
X71577200Y-104648000D01*
X70452199Y-86418201D02*
X70452199Y-103522999D01*
X71628000Y-85242400D02*
X70452199Y-86418201D01*
X160629600Y-67665600D02*
X159969200Y-68326000D01*
X159969200Y-68326000D02*
X159969200Y-87985600D01*
X71577200Y-104648000D02*
X71577200Y-95379201D01*
X127965200Y-95250000D02*
X127965200Y-87934800D01*
X127965200Y-87934800D02*
X128066800Y-87833200D01*
X115816599Y-47693799D02*
X118211600Y-50088800D01*
X104945610Y-47693799D02*
X115816599Y-47693799D01*
X104945610Y-40399392D02*
X104945610Y-47693799D01*
X105220601Y-40124401D02*
X104945610Y-40399392D01*
X105220601Y-39428399D02*
X105220601Y-40124401D01*
X97078800Y-48818800D02*
X97078800Y-47339398D01*
X98203999Y-46214199D02*
X98203999Y-44994999D01*
X98203999Y-44994999D02*
X104147599Y-39051399D01*
X104147599Y-39051399D02*
X104843601Y-39051399D01*
X97078800Y-47339398D02*
X98203999Y-46214199D01*
X104843601Y-39051399D02*
X105220601Y-39428399D01*
X147421600Y-48056800D02*
X147421600Y-68173600D01*
X147421600Y-68173600D02*
X147370800Y-68224400D01*
%TO.N,Net-(U1-Pad27)*%
X72702201Y-103233001D02*
X74117200Y-104648000D01*
X74168000Y-85242400D02*
X72702201Y-86708199D01*
X139852400Y-70916800D02*
X139141200Y-71628000D01*
X139141200Y-87020400D02*
X136753600Y-89408000D01*
X139141200Y-71628000D02*
X139141200Y-87020400D01*
X99618800Y-48818800D02*
X99618800Y-59283600D01*
X99618800Y-59283600D02*
X99720400Y-59385200D01*
X140360400Y-70408800D02*
X139852400Y-70916800D01*
X140360400Y-58449599D02*
X140360400Y-70408800D01*
X72702201Y-98965801D02*
X72694800Y-98958400D01*
X72702201Y-98965801D02*
X72702201Y-103233001D01*
X72702201Y-86708199D02*
X72702201Y-98965801D01*
X52469790Y-55924190D02*
X52476400Y-55930800D01*
X45167999Y-96729999D02*
X45167999Y-59291001D01*
X49022000Y-100584000D02*
X45167999Y-96729999D01*
X45167999Y-59291001D02*
X45102999Y-59226001D01*
X45102999Y-59226001D02*
X45102999Y-57105999D01*
X46284808Y-55924190D02*
X52469790Y-55924190D01*
X45102999Y-57105999D02*
X46284808Y-55924190D01*
X67291265Y-55675251D02*
X67291265Y-58519134D01*
X67291265Y-58519134D02*
X67288799Y-58521600D01*
X92398010Y-51975590D02*
X93522800Y-50850800D01*
X92398010Y-55649608D02*
X92398010Y-51975590D01*
X89255600Y-57905798D02*
X90163797Y-56997601D01*
X90163797Y-56997601D02*
X92296001Y-56997601D01*
X92673001Y-55924599D02*
X92398010Y-55649608D01*
X92296001Y-56997601D02*
X92673001Y-56620601D01*
X89255600Y-58566001D02*
X89255600Y-57905798D01*
X92673001Y-56620601D02*
X92673001Y-55924599D01*
%TO.N,Net-(U1-Pad26)*%
X75532199Y-103522999D02*
X76657200Y-104648000D01*
X75532199Y-86418201D02*
X75532199Y-103522999D01*
X76708000Y-85242400D02*
X75532199Y-86418201D01*
X140512800Y-88188800D02*
X139293600Y-89408000D01*
X140512800Y-73456800D02*
X140512800Y-88188800D01*
X102158800Y-48818800D02*
X102158800Y-59608601D01*
X102158800Y-59608601D02*
X102057200Y-59710201D01*
X134269199Y-60147200D02*
X134269199Y-72690001D01*
X135940800Y-73819398D02*
X135940800Y-74117200D01*
X134269199Y-72690001D02*
X134811403Y-72690001D01*
X134811403Y-72690001D02*
X135940800Y-73819398D01*
X133590199Y-94190799D02*
X138372998Y-89408000D01*
X133590199Y-94886801D02*
X133590199Y-94190799D01*
X133967199Y-95263801D02*
X133590199Y-94886801D01*
X133967199Y-102506801D02*
X133967199Y-95263801D01*
X138372998Y-89408000D02*
X139293600Y-89408000D01*
X132892800Y-103581200D02*
X133967199Y-102506801D01*
%TO.N,Net-(U1-Pad25)*%
X76809600Y-45415200D02*
X76809600Y-41503600D01*
X76809600Y-41503600D02*
X76606400Y-41300400D01*
X76555600Y-39674800D02*
X90881200Y-39674800D01*
X104495600Y-48615600D02*
X104698800Y-48818800D01*
X104495600Y-39776400D02*
X104495600Y-48615600D01*
X63172483Y-41418515D02*
X63613028Y-41418515D01*
X59892990Y-44698008D02*
X63172483Y-41418515D01*
X61264800Y-69850000D02*
X59892990Y-68478190D01*
X59892990Y-68478190D02*
X59892990Y-44698008D01*
%TO.N,Net-(U1-Pad24)*%
X99568000Y-74930000D02*
X99568000Y-70002400D01*
X100693001Y-88232199D02*
X99517200Y-89408000D01*
X100693001Y-76055001D02*
X100693001Y-88232199D01*
X99568000Y-74930000D02*
X100693001Y-76055001D01*
X101033799Y-61806604D02*
X103174800Y-59665603D01*
X101033799Y-64308803D02*
X101033799Y-61806604D01*
X99865399Y-65477203D02*
X101033799Y-64308803D01*
X99865399Y-67368201D02*
X99865399Y-65477203D01*
X99568000Y-70002400D02*
X99568000Y-67665600D01*
X99568000Y-67665600D02*
X99865399Y-67368201D01*
X104284999Y-49943801D02*
X106113799Y-49943801D01*
X106113799Y-49943801D02*
X107238800Y-48818800D01*
X103174800Y-51054000D02*
X104284999Y-49943801D01*
X103174800Y-59665603D02*
X103174800Y-51054000D01*
%TO.N,Net-(U1-Pad4)*%
X74218800Y-55924598D02*
X72433201Y-54138999D01*
X74218800Y-64058800D02*
X74218800Y-55924598D01*
X72433201Y-54138999D02*
X65488799Y-54138999D01*
X65488799Y-54138999D02*
X63033799Y-56593999D01*
X63033799Y-56593999D02*
X63033799Y-96409399D01*
X63033799Y-96409399D02*
X64465200Y-97840800D01*
X131081058Y-97329725D02*
X131081058Y-96452142D01*
X131081058Y-96452142D02*
X131876800Y-95656400D01*
X157269401Y-93201409D02*
X157269401Y-85394800D01*
X139395200Y-95300800D02*
X155170010Y-95300800D01*
X155170010Y-95300800D02*
X157269401Y-93201409D01*
%TO.N,Net-(U1-Pad23)*%
X93312199Y-86418201D02*
X94488000Y-85242400D01*
X93312199Y-103522999D02*
X93312199Y-86418201D01*
X94437200Y-104648000D02*
X93312199Y-103522999D01*
X93688001Y-70867403D02*
X93319600Y-70499002D01*
X94488000Y-85242400D02*
X93688001Y-84442401D01*
X93319600Y-70499002D02*
X93319600Y-53079601D01*
X93688001Y-84442401D02*
X93688001Y-70867403D01*
X62389801Y-81135001D02*
X62389801Y-106687401D01*
X61264800Y-80010000D02*
X62389801Y-81135001D01*
X62389801Y-106687401D02*
X63500000Y-107797600D01*
X91287600Y-107797600D02*
X94437200Y-104648000D01*
X63500000Y-107797600D02*
X91287600Y-107797600D01*
%TO.N,Net-(U1-Pad22)*%
X98153001Y-88232199D02*
X96977200Y-89408000D01*
X98153001Y-83507799D02*
X98153001Y-88232199D01*
X98762601Y-82898199D02*
X98153001Y-83507799D01*
X98762601Y-71737001D02*
X98762601Y-82898199D01*
X97028000Y-70002400D02*
X98762601Y-71737001D01*
X58369200Y-87985600D02*
X61264800Y-85090000D01*
X58369200Y-94451000D02*
X58369200Y-87985600D01*
X98203801Y-47287399D02*
X98552000Y-46939200D01*
X98203801Y-64598801D02*
X98203801Y-47287399D01*
X97028000Y-70002400D02*
X97028000Y-65774602D01*
X97028000Y-65774602D02*
X98203801Y-64598801D01*
%TO.N,Net-(U2-Pad24)*%
X81889600Y-37795200D02*
X81889600Y-32687600D01*
X149111451Y-33870227D02*
X149111451Y-78753451D01*
X149511450Y-33470228D02*
X149111451Y-33870227D01*
X149785302Y-78079600D02*
X152349200Y-78079600D01*
X149111451Y-78753451D02*
X149785302Y-78079600D01*
%TO.N,Net-(U11-Pad11)*%
X115722400Y-45364400D02*
X115824000Y-45466000D01*
X115722400Y-41254599D02*
X115722400Y-45364400D01*
X146202400Y-40669599D02*
X146202400Y-79857600D01*
X146202400Y-79857600D02*
X145440400Y-80619600D01*
%TO.N,Net-(U3-Pad20)*%
X80423801Y-103421399D02*
X80423801Y-46489401D01*
X80423801Y-46489401D02*
X79349600Y-45415200D01*
X79197200Y-104648000D02*
X80423801Y-103421399D01*
%TO.N,Net-(U11-Pad12)*%
X113284000Y-42926000D02*
X110744000Y-45466000D01*
X113284000Y-37846000D02*
X113284000Y-42926000D01*
X118364000Y-42823197D02*
X118364000Y-45466000D01*
X113386803Y-37846000D02*
X118364000Y-42823197D01*
X113284000Y-37846000D02*
X113386803Y-37846000D01*
X60342999Y-45321001D02*
X63296800Y-42367200D01*
X60342999Y-62183197D02*
X60342999Y-45321001D01*
X62389801Y-64229999D02*
X60342999Y-62183197D01*
X61264800Y-67310000D02*
X62389801Y-66184999D01*
X62389801Y-66184999D02*
X62389801Y-64229999D01*
%TO.N,Net-(U4-Pad1)*%
X56134000Y-81483200D02*
X56134000Y-67106800D01*
X56134000Y-67106800D02*
X56032400Y-67005200D01*
%TO.N,Net-(U5-Pad24)*%
X143865600Y-88900000D02*
X144373600Y-89408000D01*
X143865600Y-43027600D02*
X143865600Y-88900000D01*
%TO.N,Net-(U11-Pad6)*%
X74269600Y-37795200D02*
X74269600Y-33514200D01*
X74269600Y-33514200D02*
X74168000Y-33412600D01*
X110693200Y-37795200D02*
X110744000Y-37846000D01*
X110693200Y-33782000D02*
X110693200Y-37795200D01*
X133088599Y-97223799D02*
X133197600Y-97332800D01*
X133088599Y-88867999D02*
X133088599Y-97223799D01*
X133544199Y-88412399D02*
X133088599Y-88867999D01*
X133553200Y-40284400D02*
X133544199Y-40293401D01*
X133544199Y-40293401D02*
X133544199Y-88412399D01*
%TO.N,Net-(U6-Pad27)*%
X74269600Y-45415200D02*
X75488800Y-46634400D01*
X75488800Y-46634400D02*
X75488800Y-54529601D01*
X96262601Y-84477001D02*
X97028000Y-85242400D01*
X96262601Y-80943199D02*
X96262601Y-84477001D01*
X95902999Y-80583597D02*
X96262601Y-80943199D01*
X95902999Y-55502202D02*
X95902999Y-80583597D01*
X96875600Y-54529601D02*
X95902999Y-55502202D01*
%TO.N,Net-(U10-Pad2)*%
X87186600Y-43244600D02*
X89408000Y-45466000D01*
X86203963Y-43244600D02*
X87186600Y-43244600D01*
X89408000Y-45466000D02*
X88282999Y-46591001D01*
X88282999Y-78580199D02*
X88341200Y-78638400D01*
X88282999Y-46591001D02*
X88282999Y-78580199D01*
X84378800Y-85191600D02*
X84328000Y-85242400D01*
X84378800Y-79044800D02*
X84378800Y-85191600D01*
%TO.N,Net-(U11-Pad13)*%
X116949001Y-38334591D02*
X121158000Y-42543590D01*
X98442999Y-37305999D02*
X102691999Y-33056999D01*
X93947999Y-38971001D02*
X97568001Y-38971001D01*
X93073001Y-37305999D02*
X93073001Y-38096003D01*
X98442999Y-38096003D02*
X98442999Y-37305999D01*
X61259599Y-33724599D02*
X69613999Y-33724599D01*
X69613999Y-33724599D02*
X73144599Y-37255199D01*
X92488001Y-36720999D02*
X93073001Y-37305999D01*
X56736199Y-38247999D02*
X61259599Y-33724599D01*
X73144599Y-38335201D02*
X73729599Y-38920201D01*
X73729599Y-38920201D02*
X86062601Y-38920201D01*
X50749200Y-67310000D02*
X51874201Y-66184999D01*
X116949001Y-37305999D02*
X116949001Y-38334591D01*
X56736199Y-66184999D02*
X56736199Y-38247999D01*
X86367190Y-39224790D02*
X89984210Y-39224790D01*
X112700001Y-33056999D02*
X116949001Y-37305999D01*
X102691999Y-33056999D02*
X112700001Y-33056999D01*
X51874201Y-66184999D02*
X56736199Y-66184999D01*
X73144599Y-37255199D02*
X73144599Y-38335201D01*
X86062601Y-38920201D02*
X86367190Y-39224790D01*
X93073001Y-38096003D02*
X93947999Y-38971001D01*
X90822999Y-38386001D02*
X90822999Y-37305999D01*
X90822999Y-37305999D02*
X91407999Y-36720999D01*
X97568001Y-38971001D02*
X98442999Y-38096003D01*
X89984210Y-39224790D02*
X90822999Y-38386001D01*
X91407999Y-36720999D02*
X92488001Y-36720999D01*
X121158000Y-45212000D02*
X120904000Y-45466000D01*
X121158000Y-42543590D02*
X121158000Y-45212000D01*
%TO.N,Net-(U11-Pad10)*%
X123944599Y-85234999D02*
X123944599Y-81298799D01*
X123944599Y-81298799D02*
X122903999Y-80258199D01*
X122903999Y-80258199D02*
X122903999Y-49029401D01*
X124053600Y-85344000D02*
X123944599Y-85234999D01*
X122903999Y-49029401D02*
X122157195Y-48282597D01*
X122157195Y-48282597D02*
X122157195Y-47352912D01*
%TO.N,Net-(U11-Pad8)*%
X106527600Y-43789600D02*
X108204000Y-45466000D01*
X106527600Y-34137600D02*
X106527600Y-43789600D01*
%TO.N,Net-(U10-Pad3)*%
X71729600Y-45415200D02*
X71729600Y-40792400D01*
X71729600Y-40792400D02*
X72034400Y-40487600D01*
X72034400Y-40487600D02*
X90881200Y-40487600D01*
X91172199Y-44690199D02*
X91948000Y-45466000D01*
X91172199Y-40778599D02*
X91172199Y-44690199D01*
X90881200Y-40487600D02*
X91172199Y-40778599D01*
%TO.N,Net-(U11-Pad4)*%
X119424400Y-46070602D02*
X119424400Y-54863999D01*
X119424400Y-54863999D02*
X119475201Y-54914800D01*
X119489001Y-46006001D02*
X119424400Y-46070602D01*
X115824000Y-37846000D02*
X119489001Y-41511001D01*
X119489001Y-41511001D02*
X119489001Y-46006001D01*
X106026001Y-66757601D02*
X106375200Y-67106800D01*
X106026001Y-55670399D02*
X106026001Y-66757601D01*
X106426000Y-55270400D02*
X106026001Y-55670399D01*
%TD*%
M02*
