%FSLAX45Y45*%
G04 Gerber Fmt 4.5, Leading zero omitted, Abs format (unit mm)*
G04 Created by KiCad (PCBNEW 5.1.12-84ad8e8a86~92~ubuntu18.04.1) date 2022-05-14 09:19:43*
%MOMM*%
%LPD*%
G01*
G04 APERTURE LIST*
%TA.AperFunction,Profile*%
%ADD10C,0.100000*%
%TD*%
%ADD11C,0.200000*%
%ADD12C,0.300000*%
G04 APERTURE END LIST*
D10*
X16911320Y-3190240D02*
X16911320Y-11130280D01*
X3799840Y-3190240D02*
X16911320Y-3190240D01*
X3799840Y-11130280D02*
X3799840Y-3190240D01*
X16911320Y-11130280D02*
X3799840Y-11130280D01*
D11*
D12*
X4081268Y-11600994D02*
X4081268Y-11300994D01*
X4152697Y-11300994D01*
X4195554Y-11315280D01*
X4224126Y-11343851D01*
X4238411Y-11372423D01*
X4252697Y-11429566D01*
X4252697Y-11472423D01*
X4238411Y-11529566D01*
X4224126Y-11558137D01*
X4195554Y-11586709D01*
X4152697Y-11600994D01*
X4081268Y-11600994D01*
X4381268Y-11600994D02*
X4381268Y-11400994D01*
X4381268Y-11458137D02*
X4395554Y-11429566D01*
X4409840Y-11415280D01*
X4438411Y-11400994D01*
X4466983Y-11400994D01*
X4566983Y-11600994D02*
X4566983Y-11400994D01*
X4566983Y-11300994D02*
X4552697Y-11315280D01*
X4566983Y-11329566D01*
X4581268Y-11315280D01*
X4566983Y-11300994D01*
X4566983Y-11329566D01*
X4752697Y-11600994D02*
X4724126Y-11586709D01*
X4709840Y-11558137D01*
X4709840Y-11300994D01*
X4909840Y-11600994D02*
X4881268Y-11586709D01*
X4866983Y-11558137D01*
X4866983Y-11300994D01*
X5252697Y-11600994D02*
X5252697Y-11300994D01*
X5352697Y-11515280D01*
X5452697Y-11300994D01*
X5452697Y-11600994D01*
X5724126Y-11600994D02*
X5724126Y-11443851D01*
X5709840Y-11415280D01*
X5681268Y-11400994D01*
X5624126Y-11400994D01*
X5595554Y-11415280D01*
X5724126Y-11586709D02*
X5695554Y-11600994D01*
X5624126Y-11600994D01*
X5595554Y-11586709D01*
X5581268Y-11558137D01*
X5581268Y-11529566D01*
X5595554Y-11500994D01*
X5624126Y-11486709D01*
X5695554Y-11486709D01*
X5724126Y-11472423D01*
X5866983Y-11400994D02*
X5866983Y-11700994D01*
X5866983Y-11415280D02*
X5895554Y-11400994D01*
X5952697Y-11400994D01*
X5981268Y-11415280D01*
X5995554Y-11429566D01*
X6009840Y-11458137D01*
X6009840Y-11543851D01*
X5995554Y-11572423D01*
X5981268Y-11586709D01*
X5952697Y-11600994D01*
X5895554Y-11600994D01*
X5866983Y-11586709D01*
X6138411Y-11572423D02*
X6152697Y-11586709D01*
X6138411Y-11600994D01*
X6124126Y-11586709D01*
X6138411Y-11572423D01*
X6138411Y-11600994D01*
X6138411Y-11415280D02*
X6152697Y-11429566D01*
X6138411Y-11443851D01*
X6124126Y-11429566D01*
X6138411Y-11415280D01*
X6138411Y-11443851D01*
M02*
