%TF.GenerationSoftware,KiCad,Pcbnew,5.1.12-84ad8e8a86~92~ubuntu18.04.1*%
%TF.CreationDate,2022-05-14T09:18:38-04:00*%
%TF.ProjectId,kicad_vectron_65_plus,6b696361-645f-4766-9563-74726f6e5f36,rev?*%
%TF.SameCoordinates,Original*%
%TF.FileFunction,Copper,L4,Bot*%
%TF.FilePolarity,Positive*%
%FSLAX46Y46*%
G04 Gerber Fmt 4.6, Leading zero omitted, Abs format (unit mm)*
G04 Created by KiCad (PCBNEW 5.1.12-84ad8e8a86~92~ubuntu18.04.1) date 2022-05-14 09:18:38*
%MOMM*%
%LPD*%
G01*
G04 APERTURE LIST*
%TA.AperFunction,ComponentPad*%
%ADD10C,1.600000*%
%TD*%
%TA.AperFunction,ComponentPad*%
%ADD11R,1.600000X1.600000*%
%TD*%
%TA.AperFunction,ComponentPad*%
%ADD12O,1.600000X1.600000*%
%TD*%
%TA.AperFunction,ComponentPad*%
%ADD13C,1.700000*%
%TD*%
%TA.AperFunction,ComponentPad*%
%ADD14O,1.400000X1.400000*%
%TD*%
%TA.AperFunction,ComponentPad*%
%ADD15C,1.400000*%
%TD*%
%TA.AperFunction,ComponentPad*%
%ADD16O,1.700000X1.700000*%
%TD*%
%TA.AperFunction,ComponentPad*%
%ADD17R,1.700000X1.700000*%
%TD*%
%TA.AperFunction,ComponentPad*%
%ADD18C,2.870200*%
%TD*%
%TA.AperFunction,ComponentPad*%
%ADD19C,1.473200*%
%TD*%
%TA.AperFunction,ViaPad*%
%ADD20C,0.800000*%
%TD*%
%TA.AperFunction,Conductor*%
%ADD21C,0.250000*%
%TD*%
G04 APERTURE END LIST*
D10*
%TO.P,X1,7*%
%TO.N,GND*%
X61468000Y-58166000D03*
%TO.P,X1,8*%
%TO.N,Net-(U1-Pad37)*%
X61468000Y-50546000D03*
%TO.P,X1,14*%
%TO.N,+5V*%
X46228000Y-50546000D03*
D11*
%TO.P,X1,1*%
%TO.N,Net-(X1-Pad1)*%
X46228000Y-58166000D03*
%TD*%
D12*
%TO.P,U12,20*%
%TO.N,+5V*%
X103835200Y-67106800D03*
%TO.P,U12,10*%
%TO.N,GND*%
X126695200Y-74726800D03*
%TO.P,U12,19*%
%TO.N,Net-(U11-Pad4)*%
X106375200Y-67106800D03*
%TO.P,U12,9*%
%TO.N,GND*%
X124155200Y-74726800D03*
%TO.P,U12,18*%
%TO.N,Net-(U1-Pad13)*%
X108915200Y-67106800D03*
%TO.P,U12,8*%
%TO.N,GND*%
X121615200Y-74726800D03*
%TO.P,U12,17*%
X111455200Y-67106800D03*
%TO.P,U12,7*%
X119075200Y-74726800D03*
%TO.P,U12,16*%
%TO.N,Net-(U1-Pad14)*%
X113995200Y-67106800D03*
%TO.P,U12,6*%
%TO.N,GND*%
X116535200Y-74726800D03*
%TO.P,U12,15*%
%TO.N,+5V*%
X116535200Y-67106800D03*
%TO.P,U12,5*%
%TO.N,GND*%
X113995200Y-74726800D03*
%TO.P,U12,14*%
%TO.N,Net-(U1-Pad15)*%
X119075200Y-67106800D03*
%TO.P,U12,4*%
%TO.N,GND*%
X111455200Y-74726800D03*
%TO.P,U12,13*%
%TO.N,+5V*%
X121615200Y-67106800D03*
%TO.P,U12,3*%
%TO.N,GND*%
X108915200Y-74726800D03*
%TO.P,U12,12*%
%TO.N,Net-(U1-Pad16)*%
X124155200Y-67106800D03*
%TO.P,U12,2*%
%TO.N,GND*%
X106375200Y-74726800D03*
%TO.P,U12,11*%
%TO.N,+5V*%
X126695200Y-67106800D03*
D11*
%TO.P,U12,1*%
%TO.N,Net-(U12-Pad1)*%
X103835200Y-74726800D03*
%TD*%
D12*
%TO.P,U11,14*%
%TO.N,+5V*%
X123444000Y-45466000D03*
%TO.P,U11,7*%
%TO.N,GND*%
X108204000Y-37846000D03*
%TO.P,U11,13*%
%TO.N,Net-(U11-Pad13)*%
X120904000Y-45466000D03*
%TO.P,U11,6*%
%TO.N,Net-(U11-Pad6)*%
X110744000Y-37846000D03*
%TO.P,U11,12*%
%TO.N,Net-(U11-Pad12)*%
X118364000Y-45466000D03*
%TO.P,U11,5*%
X113284000Y-37846000D03*
%TO.P,U11,11*%
%TO.N,Net-(U11-Pad11)*%
X115824000Y-45466000D03*
%TO.P,U11,4*%
%TO.N,Net-(U11-Pad4)*%
X115824000Y-37846000D03*
%TO.P,U11,10*%
%TO.N,Net-(U11-Pad10)*%
X113284000Y-45466000D03*
%TO.P,U11,3*%
%TO.N,Net-(U11-Pad3)*%
X118364000Y-37846000D03*
%TO.P,U11,9*%
%TO.N,Net-(U11-Pad12)*%
X110744000Y-45466000D03*
%TO.P,U11,2*%
%TO.N,Net-(U11-Pad2)*%
X120904000Y-37846000D03*
%TO.P,U11,8*%
%TO.N,Net-(U11-Pad8)*%
X108204000Y-45466000D03*
D11*
%TO.P,U11,1*%
%TO.N,Net-(U11-Pad1)*%
X123444000Y-37846000D03*
%TD*%
D12*
%TO.P,U10,14*%
%TO.N,+5V*%
X86868000Y-37846000D03*
%TO.P,U10,7*%
%TO.N,GND*%
X102108000Y-45466000D03*
%TO.P,U10,13*%
%TO.N,Net-(U10-Pad13)*%
X89408000Y-37846000D03*
%TO.P,U10,6*%
%TO.N,Net-(U10-Pad6)*%
X99568000Y-45466000D03*
%TO.P,U10,12*%
%TO.N,Net-(U1-Pad39)*%
X91948000Y-37846000D03*
%TO.P,U10,5*%
%TO.N,Net-(U10-Pad5)*%
X97028000Y-45466000D03*
%TO.P,U10,11*%
%TO.N,Net-(U10-Pad11)*%
X94488000Y-37846000D03*
%TO.P,U10,4*%
%TO.N,Net-(U10-Pad4)*%
X94488000Y-45466000D03*
%TO.P,U10,10*%
%TO.N,Net-(U10-Pad10)*%
X97028000Y-37846000D03*
%TO.P,U10,3*%
%TO.N,Net-(U10-Pad3)*%
X91948000Y-45466000D03*
%TO.P,U10,9*%
%TO.N,Net-(U10-Pad9)*%
X99568000Y-37846000D03*
%TO.P,U10,2*%
%TO.N,Net-(U10-Pad2)*%
X89408000Y-45466000D03*
%TO.P,U10,8*%
%TO.N,Net-(U10-Pad8)*%
X102108000Y-37846000D03*
D11*
%TO.P,U10,1*%
%TO.N,Net-(U1-Pad39)*%
X86868000Y-45466000D03*
%TD*%
D12*
%TO.P,U9,14*%
%TO.N,+5V*%
X66649600Y-37795200D03*
%TO.P,U9,7*%
%TO.N,GND*%
X81889600Y-45415200D03*
%TO.P,U9,13*%
%TO.N,Net-(U11-Pad8)*%
X69189600Y-37795200D03*
%TO.P,U9,6*%
%TO.N,Net-(U3-Pad20)*%
X79349600Y-45415200D03*
%TO.P,U9,12*%
%TO.N,Net-(U10-Pad13)*%
X71729600Y-37795200D03*
%TO.P,U9,5*%
%TO.N,Net-(U1-Pad25)*%
X76809600Y-45415200D03*
%TO.P,U9,11*%
%TO.N,Net-(U11-Pad6)*%
X74269600Y-37795200D03*
%TO.P,U9,4*%
%TO.N,Net-(U6-Pad27)*%
X74269600Y-45415200D03*
%TO.P,U9,10*%
%TO.N,Net-(U5-Pad24)*%
X76809600Y-37795200D03*
%TO.P,U9,3*%
%TO.N,Net-(U10-Pad3)*%
X71729600Y-45415200D03*
%TO.P,U9,9*%
%TO.N,Net-(U11-Pad11)*%
X79349600Y-37795200D03*
%TO.P,U9,2*%
%TO.N,Net-(U10-Pad2)*%
X69189600Y-45415200D03*
%TO.P,U9,8*%
%TO.N,Net-(U2-Pad24)*%
X81889600Y-37795200D03*
D11*
%TO.P,U9,1*%
%TO.N,Net-(U1-Pad34)*%
X66649600Y-45415200D03*
%TD*%
D12*
%TO.P,U8,20*%
%TO.N,+5V*%
X126593600Y-85344000D03*
%TO.P,U8,10*%
%TO.N,GND*%
X103733600Y-77724000D03*
%TO.P,U8,19*%
%TO.N,Net-(U11-Pad10)*%
X124053600Y-85344000D03*
%TO.P,U8,9*%
%TO.N,Net-(U1-Pad16)*%
X106273600Y-77724000D03*
%TO.P,U8,18*%
%TO.N,Net-(U1-Pad9)*%
X121513600Y-85344000D03*
%TO.P,U8,8*%
%TO.N,GND*%
X108813600Y-77724000D03*
%TO.P,U8,17*%
X118973600Y-85344000D03*
%TO.P,U8,7*%
%TO.N,Net-(U1-Pad15)*%
X111353600Y-77724000D03*
%TO.P,U8,16*%
%TO.N,Net-(U1-Pad10)*%
X116433600Y-85344000D03*
%TO.P,U8,6*%
%TO.N,GND*%
X113893600Y-77724000D03*
%TO.P,U8,15*%
X113893600Y-85344000D03*
%TO.P,U8,5*%
%TO.N,Net-(U1-Pad14)*%
X116433600Y-77724000D03*
%TO.P,U8,14*%
%TO.N,Net-(U1-Pad11)*%
X111353600Y-85344000D03*
%TO.P,U8,4*%
%TO.N,GND*%
X118973600Y-77724000D03*
%TO.P,U8,13*%
X108813600Y-85344000D03*
%TO.P,U8,3*%
%TO.N,Net-(U1-Pad13)*%
X121513600Y-77724000D03*
%TO.P,U8,12*%
%TO.N,Net-(U1-Pad12)*%
X106273600Y-85344000D03*
%TO.P,U8,2*%
%TO.N,GND*%
X124053600Y-77724000D03*
%TO.P,U8,11*%
X103733600Y-85344000D03*
D11*
%TO.P,U8,1*%
%TO.N,Net-(U8-Pad1)*%
X126593600Y-77724000D03*
%TD*%
D12*
%TO.P,U7,20*%
%TO.N,+5V*%
X50749200Y-64770000D03*
%TO.P,U7,10*%
%TO.N,GND*%
X43129200Y-87630000D03*
%TO.P,U7,19*%
%TO.N,Net-(U11-Pad13)*%
X50749200Y-67310000D03*
%TO.P,U7,9*%
%TO.N,GND*%
X43129200Y-85090000D03*
%TO.P,U7,18*%
%TO.N,Net-(U1-Pad13)*%
X50749200Y-69850000D03*
%TO.P,U7,8*%
%TO.N,GND*%
X43129200Y-82550000D03*
%TO.P,U7,17*%
%TO.N,+5V*%
X50749200Y-72390000D03*
%TO.P,U7,7*%
%TO.N,GND*%
X43129200Y-80010000D03*
%TO.P,U7,16*%
%TO.N,Net-(U1-Pad14)*%
X50749200Y-74930000D03*
%TO.P,U7,6*%
%TO.N,GND*%
X43129200Y-77470000D03*
%TO.P,U7,15*%
%TO.N,+5V*%
X50749200Y-77470000D03*
%TO.P,U7,5*%
%TO.N,GND*%
X43129200Y-74930000D03*
%TO.P,U7,14*%
%TO.N,Net-(U1-Pad15)*%
X50749200Y-80010000D03*
%TO.P,U7,4*%
%TO.N,GND*%
X43129200Y-72390000D03*
%TO.P,U7,13*%
%TO.N,+5V*%
X50749200Y-82550000D03*
%TO.P,U7,3*%
%TO.N,GND*%
X43129200Y-69850000D03*
%TO.P,U7,12*%
%TO.N,Net-(U1-Pad16)*%
X50749200Y-85090000D03*
%TO.P,U7,2*%
%TO.N,GND*%
X43129200Y-67310000D03*
%TO.P,U7,11*%
%TO.N,+5V*%
X50749200Y-87630000D03*
D11*
%TO.P,U7,1*%
%TO.N,Net-(U7-Pad1)*%
X43129200Y-64770000D03*
%TD*%
D12*
%TO.P,U6,28*%
%TO.N,+5V*%
X99568000Y-85242400D03*
%TO.P,U6,14*%
%TO.N,GND*%
X66548000Y-70002400D03*
%TO.P,U6,27*%
%TO.N,Net-(U6-Pad27)*%
X97028000Y-85242400D03*
%TO.P,U6,13*%
%TO.N,Net-(U1-Pad31)*%
X69088000Y-70002400D03*
%TO.P,U6,26*%
%TO.N,Net-(U1-Pad23)*%
X94488000Y-85242400D03*
%TO.P,U6,12*%
%TO.N,Net-(U1-Pad32)*%
X71628000Y-70002400D03*
%TO.P,U6,25*%
%TO.N,Net-(U1-Pad17)*%
X91948000Y-85242400D03*
%TO.P,U6,11*%
%TO.N,Net-(U1-Pad33)*%
X74168000Y-70002400D03*
%TO.P,U6,24*%
%TO.N,Net-(U1-Pad18)*%
X89408000Y-85242400D03*
%TO.P,U6,10*%
%TO.N,Net-(U1-Pad9)*%
X76708000Y-70002400D03*
%TO.P,U6,23*%
%TO.N,Net-(U1-Pad20)*%
X86868000Y-85242400D03*
%TO.P,U6,9*%
%TO.N,Net-(U1-Pad10)*%
X79248000Y-70002400D03*
%TO.P,U6,22*%
%TO.N,Net-(U10-Pad2)*%
X84328000Y-85242400D03*
%TO.P,U6,8*%
%TO.N,Net-(U1-Pad11)*%
X81788000Y-70002400D03*
%TO.P,U6,21*%
%TO.N,Net-(U1-Pad19)*%
X81788000Y-85242400D03*
%TO.P,U6,7*%
%TO.N,Net-(U1-Pad12)*%
X84328000Y-70002400D03*
%TO.P,U6,20*%
%TO.N,Net-(U4-Pad1)*%
X79248000Y-85242400D03*
%TO.P,U6,6*%
%TO.N,Net-(U1-Pad13)*%
X86868000Y-70002400D03*
%TO.P,U6,19*%
%TO.N,Net-(U1-Pad26)*%
X76708000Y-85242400D03*
%TO.P,U6,5*%
%TO.N,Net-(U1-Pad14)*%
X89408000Y-70002400D03*
%TO.P,U6,18*%
%TO.N,Net-(U1-Pad27)*%
X74168000Y-85242400D03*
%TO.P,U6,4*%
%TO.N,Net-(U1-Pad15)*%
X91948000Y-70002400D03*
%TO.P,U6,17*%
%TO.N,Net-(U1-Pad28)*%
X71628000Y-85242400D03*
%TO.P,U6,3*%
%TO.N,Net-(U1-Pad16)*%
X94488000Y-70002400D03*
%TO.P,U6,16*%
%TO.N,Net-(U1-Pad29)*%
X69088000Y-85242400D03*
%TO.P,U6,2*%
%TO.N,Net-(U1-Pad22)*%
X97028000Y-70002400D03*
%TO.P,U6,15*%
%TO.N,Net-(U1-Pad30)*%
X66548000Y-85242400D03*
D11*
%TO.P,U6,1*%
%TO.N,Net-(U1-Pad24)*%
X99568000Y-70002400D03*
%TD*%
D12*
%TO.P,U5,40*%
%TO.N,Net-(U5-Pad40)*%
X103733600Y-89408000D03*
%TO.P,U5,20*%
%TO.N,+5V*%
X151993600Y-104648000D03*
%TO.P,U5,39*%
%TO.N,Net-(U5-Pad39)*%
X106273600Y-89408000D03*
%TO.P,U5,19*%
%TO.N,Net-(U5-Pad19)*%
X149453600Y-104648000D03*
%TO.P,U5,38*%
%TO.N,Net-(U1-Pad9)*%
X108813600Y-89408000D03*
%TO.P,U5,18*%
%TO.N,Net-(U5-Pad18)*%
X146913600Y-104648000D03*
%TO.P,U5,37*%
%TO.N,Net-(U1-Pad10)*%
X111353600Y-89408000D03*
%TO.P,U5,17*%
%TO.N,Net-(J4-Pad16)*%
X144373600Y-104648000D03*
%TO.P,U5,36*%
%TO.N,Net-(U1-Pad11)*%
X113893600Y-89408000D03*
%TO.P,U5,16*%
%TO.N,Net-(J4-Pad15)*%
X141833600Y-104648000D03*
%TO.P,U5,35*%
%TO.N,Net-(U1-Pad12)*%
X116433600Y-89408000D03*
%TO.P,U5,15*%
%TO.N,Net-(J4-Pad14)*%
X139293600Y-104648000D03*
%TO.P,U5,34*%
%TO.N,Net-(R1-Pad1)*%
X118973600Y-89408000D03*
%TO.P,U5,14*%
%TO.N,Net-(J4-Pad13)*%
X136753600Y-104648000D03*
%TO.P,U5,33*%
%TO.N,Net-(U1-Pad33)*%
X121513600Y-89408000D03*
%TO.P,U5,13*%
%TO.N,Net-(J4-Pad12)*%
X134213600Y-104648000D03*
%TO.P,U5,32*%
%TO.N,Net-(U1-Pad32)*%
X124053600Y-89408000D03*
%TO.P,U5,12*%
%TO.N,Net-(J4-Pad11)*%
X131673600Y-104648000D03*
%TO.P,U5,31*%
%TO.N,Net-(U1-Pad31)*%
X126593600Y-89408000D03*
%TO.P,U5,11*%
%TO.N,Net-(J4-Pad10)*%
X129133600Y-104648000D03*
%TO.P,U5,30*%
%TO.N,Net-(U1-Pad30)*%
X129133600Y-89408000D03*
%TO.P,U5,10*%
%TO.N,Net-(J4-Pad9)*%
X126593600Y-104648000D03*
%TO.P,U5,29*%
%TO.N,Net-(U1-Pad29)*%
X131673600Y-89408000D03*
%TO.P,U5,9*%
%TO.N,Net-(J4-Pad8)*%
X124053600Y-104648000D03*
%TO.P,U5,28*%
%TO.N,Net-(U1-Pad28)*%
X134213600Y-89408000D03*
%TO.P,U5,8*%
%TO.N,Net-(J4-Pad7)*%
X121513600Y-104648000D03*
%TO.P,U5,27*%
%TO.N,Net-(U1-Pad27)*%
X136753600Y-89408000D03*
%TO.P,U5,7*%
%TO.N,Net-(J4-Pad6)*%
X118973600Y-104648000D03*
%TO.P,U5,26*%
%TO.N,Net-(U1-Pad26)*%
X139293600Y-89408000D03*
%TO.P,U5,6*%
%TO.N,Net-(J4-Pad5)*%
X116433600Y-104648000D03*
%TO.P,U5,25*%
%TO.N,Net-(U1-Pad39)*%
X141833600Y-89408000D03*
%TO.P,U5,5*%
%TO.N,Net-(J4-Pad4)*%
X113893600Y-104648000D03*
%TO.P,U5,24*%
%TO.N,Net-(U5-Pad24)*%
X144373600Y-89408000D03*
%TO.P,U5,4*%
%TO.N,Net-(J4-Pad3)*%
X111353600Y-104648000D03*
%TO.P,U5,23*%
%TO.N,Net-(U11-Pad6)*%
X146913600Y-89408000D03*
%TO.P,U5,3*%
%TO.N,Net-(J4-Pad2)*%
X108813600Y-104648000D03*
%TO.P,U5,22*%
%TO.N,Net-(U1-Pad34)*%
X149453600Y-89408000D03*
%TO.P,U5,2*%
%TO.N,Net-(J4-Pad1)*%
X106273600Y-104648000D03*
%TO.P,U5,21*%
%TO.N,Net-(U5-Pad21)*%
X151993600Y-89408000D03*
D11*
%TO.P,U5,1*%
%TO.N,GND*%
X103733600Y-104648000D03*
%TD*%
D12*
%TO.P,U4,20*%
%TO.N,+5V*%
X61264800Y-64770000D03*
%TO.P,U4,10*%
%TO.N,GND*%
X53644800Y-87630000D03*
%TO.P,U4,19*%
%TO.N,Net-(U11-Pad12)*%
X61264800Y-67310000D03*
%TO.P,U4,9*%
%TO.N,Net-(U1-Pad20)*%
X53644800Y-85090000D03*
%TO.P,U4,18*%
%TO.N,Net-(U1-Pad25)*%
X61264800Y-69850000D03*
%TO.P,U4,8*%
%TO.N,+5V*%
X53644800Y-82550000D03*
%TO.P,U4,17*%
%TO.N,GND*%
X61264800Y-72390000D03*
%TO.P,U4,7*%
%TO.N,Net-(U1-Pad19)*%
X53644800Y-80010000D03*
%TO.P,U4,16*%
%TO.N,Net-(U1-Pad24)*%
X61264800Y-74930000D03*
%TO.P,U4,6*%
%TO.N,+5V*%
X53644800Y-77470000D03*
%TO.P,U4,15*%
X61264800Y-77470000D03*
%TO.P,U4,5*%
%TO.N,Net-(U1-Pad18)*%
X53644800Y-74930000D03*
%TO.P,U4,14*%
%TO.N,Net-(U1-Pad23)*%
X61264800Y-80010000D03*
%TO.P,U4,4*%
%TO.N,+5V*%
X53644800Y-72390000D03*
%TO.P,U4,13*%
X61264800Y-82550000D03*
%TO.P,U4,3*%
%TO.N,Net-(U1-Pad17)*%
X53644800Y-69850000D03*
%TO.P,U4,12*%
%TO.N,Net-(U1-Pad22)*%
X61264800Y-85090000D03*
%TO.P,U4,2*%
%TO.N,+5V*%
X53644800Y-67310000D03*
%TO.P,U4,11*%
X61264800Y-87630000D03*
D11*
%TO.P,U4,1*%
%TO.N,Net-(U4-Pad1)*%
X53644800Y-64770000D03*
%TD*%
D12*
%TO.P,U3,28*%
%TO.N,+5V*%
X99517200Y-104648000D03*
%TO.P,U3,14*%
%TO.N,GND*%
X66497200Y-89408000D03*
%TO.P,U3,27*%
%TO.N,+5V*%
X96977200Y-104648000D03*
%TO.P,U3,13*%
%TO.N,Net-(U1-Pad31)*%
X69037200Y-89408000D03*
%TO.P,U3,26*%
%TO.N,Net-(U1-Pad23)*%
X94437200Y-104648000D03*
%TO.P,U3,12*%
%TO.N,Net-(U1-Pad32)*%
X71577200Y-89408000D03*
%TO.P,U3,25*%
%TO.N,Net-(U1-Pad17)*%
X91897200Y-104648000D03*
%TO.P,U3,11*%
%TO.N,Net-(U1-Pad33)*%
X74117200Y-89408000D03*
%TO.P,U3,24*%
%TO.N,Net-(U1-Pad18)*%
X89357200Y-104648000D03*
%TO.P,U3,10*%
%TO.N,Net-(U1-Pad9)*%
X76657200Y-89408000D03*
%TO.P,U3,23*%
%TO.N,Net-(U1-Pad20)*%
X86817200Y-104648000D03*
%TO.P,U3,9*%
%TO.N,Net-(U1-Pad10)*%
X79197200Y-89408000D03*
%TO.P,U3,22*%
%TO.N,GND*%
X84277200Y-104648000D03*
%TO.P,U3,8*%
%TO.N,Net-(U1-Pad11)*%
X81737200Y-89408000D03*
%TO.P,U3,21*%
%TO.N,Net-(U1-Pad19)*%
X81737200Y-104648000D03*
%TO.P,U3,7*%
%TO.N,Net-(U1-Pad12)*%
X84277200Y-89408000D03*
%TO.P,U3,20*%
%TO.N,Net-(U3-Pad20)*%
X79197200Y-104648000D03*
%TO.P,U3,6*%
%TO.N,Net-(U1-Pad13)*%
X86817200Y-89408000D03*
%TO.P,U3,19*%
%TO.N,Net-(U1-Pad26)*%
X76657200Y-104648000D03*
%TO.P,U3,5*%
%TO.N,Net-(U1-Pad14)*%
X89357200Y-89408000D03*
%TO.P,U3,18*%
%TO.N,Net-(U1-Pad27)*%
X74117200Y-104648000D03*
%TO.P,U3,4*%
%TO.N,Net-(U1-Pad15)*%
X91897200Y-89408000D03*
%TO.P,U3,17*%
%TO.N,Net-(U1-Pad28)*%
X71577200Y-104648000D03*
%TO.P,U3,3*%
%TO.N,Net-(U1-Pad16)*%
X94437200Y-89408000D03*
%TO.P,U3,16*%
%TO.N,Net-(U1-Pad29)*%
X69037200Y-104648000D03*
%TO.P,U3,2*%
%TO.N,Net-(U1-Pad22)*%
X96977200Y-89408000D03*
%TO.P,U3,15*%
%TO.N,Net-(U1-Pad30)*%
X66497200Y-104648000D03*
D11*
%TO.P,U3,1*%
%TO.N,Net-(U1-Pad24)*%
X99517200Y-89408000D03*
%TD*%
D12*
%TO.P,U2,40*%
%TO.N,Net-(R6-Pad2)*%
X152349200Y-37439600D03*
%TO.P,U2,20*%
%TO.N,+5V*%
X137109200Y-85699600D03*
%TO.P,U2,39*%
%TO.N,Net-(R7-Pad2)*%
X152349200Y-39979600D03*
%TO.P,U2,19*%
%TO.N,Net-(R5-Pad1)*%
X137109200Y-83159600D03*
%TO.P,U2,38*%
%TO.N,Net-(U1-Pad9)*%
X152349200Y-42519600D03*
%TO.P,U2,18*%
%TO.N,Net-(R8-Pad1)*%
X137109200Y-80619600D03*
%TO.P,U2,37*%
%TO.N,Net-(U1-Pad10)*%
X152349200Y-45059600D03*
%TO.P,U2,17*%
%TO.N,Net-(J3-Pad16)*%
X137109200Y-78079600D03*
%TO.P,U2,36*%
%TO.N,Net-(U1-Pad11)*%
X152349200Y-47599600D03*
%TO.P,U2,16*%
%TO.N,Net-(J3-Pad15)*%
X137109200Y-75539600D03*
%TO.P,U2,35*%
%TO.N,Net-(U1-Pad12)*%
X152349200Y-50139600D03*
%TO.P,U2,15*%
%TO.N,Net-(J3-Pad14)*%
X137109200Y-72999600D03*
%TO.P,U2,34*%
%TO.N,Net-(R1-Pad1)*%
X152349200Y-52679600D03*
%TO.P,U2,14*%
%TO.N,Net-(J3-Pad13)*%
X137109200Y-70459600D03*
%TO.P,U2,33*%
%TO.N,Net-(U1-Pad33)*%
X152349200Y-55219600D03*
%TO.P,U2,13*%
%TO.N,Net-(J3-Pad12)*%
X137109200Y-67919600D03*
%TO.P,U2,32*%
%TO.N,Net-(U1-Pad32)*%
X152349200Y-57759600D03*
%TO.P,U2,12*%
%TO.N,Net-(J3-Pad11)*%
X137109200Y-65379600D03*
%TO.P,U2,31*%
%TO.N,Net-(U1-Pad31)*%
X152349200Y-60299600D03*
%TO.P,U2,11*%
%TO.N,Net-(J3-Pad10)*%
X137109200Y-62839600D03*
%TO.P,U2,30*%
%TO.N,Net-(U1-Pad30)*%
X152349200Y-62839600D03*
%TO.P,U2,10*%
%TO.N,Net-(J3-Pad9)*%
X137109200Y-60299600D03*
%TO.P,U2,29*%
%TO.N,Net-(U1-Pad29)*%
X152349200Y-65379600D03*
%TO.P,U2,9*%
%TO.N,Net-(J3-Pad8)*%
X137109200Y-57759600D03*
%TO.P,U2,28*%
%TO.N,Net-(U1-Pad28)*%
X152349200Y-67919600D03*
%TO.P,U2,8*%
%TO.N,Net-(J3-Pad7)*%
X137109200Y-55219600D03*
%TO.P,U2,27*%
%TO.N,Net-(U1-Pad27)*%
X152349200Y-70459600D03*
%TO.P,U2,7*%
%TO.N,Net-(J3-Pad6)*%
X137109200Y-52679600D03*
%TO.P,U2,26*%
%TO.N,Net-(U1-Pad26)*%
X152349200Y-72999600D03*
%TO.P,U2,6*%
%TO.N,Net-(J3-Pad5)*%
X137109200Y-50139600D03*
%TO.P,U2,25*%
%TO.N,Net-(U1-Pad39)*%
X152349200Y-75539600D03*
%TO.P,U2,5*%
%TO.N,Net-(J3-Pad4)*%
X137109200Y-47599600D03*
%TO.P,U2,24*%
%TO.N,Net-(U2-Pad24)*%
X152349200Y-78079600D03*
%TO.P,U2,4*%
%TO.N,Net-(J3-Pad3)*%
X137109200Y-45059600D03*
%TO.P,U2,23*%
%TO.N,Net-(U11-Pad11)*%
X152349200Y-80619600D03*
%TO.P,U2,3*%
%TO.N,Net-(J3-Pad2)*%
X137109200Y-42519600D03*
%TO.P,U2,22*%
%TO.N,Net-(U1-Pad34)*%
X152349200Y-83159600D03*
%TO.P,U2,2*%
%TO.N,Net-(J3-Pad1)*%
X137109200Y-39979600D03*
%TO.P,U2,21*%
%TO.N,Net-(U1-Pad4)*%
X152349200Y-85699600D03*
D11*
%TO.P,U2,1*%
%TO.N,GND*%
X137109200Y-37439600D03*
%TD*%
D12*
%TO.P,U1,40*%
%TO.N,Net-(R1-Pad1)*%
X66598800Y-48818800D03*
%TO.P,U1,20*%
%TO.N,Net-(U1-Pad20)*%
X114858800Y-64058800D03*
%TO.P,U1,39*%
%TO.N,Net-(U1-Pad39)*%
X69138800Y-48818800D03*
%TO.P,U1,19*%
%TO.N,Net-(U1-Pad19)*%
X112318800Y-64058800D03*
%TO.P,U1,38*%
%TO.N,+5V*%
X71678800Y-48818800D03*
%TO.P,U1,18*%
%TO.N,Net-(U1-Pad18)*%
X109778800Y-64058800D03*
%TO.P,U1,37*%
%TO.N,Net-(U1-Pad37)*%
X74218800Y-48818800D03*
%TO.P,U1,17*%
%TO.N,Net-(U1-Pad17)*%
X107238800Y-64058800D03*
%TO.P,U1,36*%
%TO.N,Net-(R4-Pad1)*%
X76758800Y-48818800D03*
%TO.P,U1,16*%
%TO.N,Net-(U1-Pad16)*%
X104698800Y-64058800D03*
%TO.P,U1,35*%
%TO.N,Net-(U1-Pad35)*%
X79298800Y-48818800D03*
%TO.P,U1,15*%
%TO.N,Net-(U1-Pad15)*%
X102158800Y-64058800D03*
%TO.P,U1,34*%
%TO.N,Net-(U1-Pad34)*%
X81838800Y-48818800D03*
%TO.P,U1,14*%
%TO.N,Net-(U1-Pad14)*%
X99618800Y-64058800D03*
%TO.P,U1,33*%
%TO.N,Net-(U1-Pad33)*%
X84378800Y-48818800D03*
%TO.P,U1,13*%
%TO.N,Net-(U1-Pad13)*%
X97078800Y-64058800D03*
%TO.P,U1,32*%
%TO.N,Net-(U1-Pad32)*%
X86918800Y-48818800D03*
%TO.P,U1,12*%
%TO.N,Net-(U1-Pad12)*%
X94538800Y-64058800D03*
%TO.P,U1,31*%
%TO.N,Net-(U1-Pad31)*%
X89458800Y-48818800D03*
%TO.P,U1,11*%
%TO.N,Net-(U1-Pad11)*%
X91998800Y-64058800D03*
%TO.P,U1,30*%
%TO.N,Net-(U1-Pad30)*%
X91998800Y-48818800D03*
%TO.P,U1,10*%
%TO.N,Net-(U1-Pad10)*%
X89458800Y-64058800D03*
%TO.P,U1,29*%
%TO.N,Net-(U1-Pad29)*%
X94538800Y-48818800D03*
%TO.P,U1,9*%
%TO.N,Net-(U1-Pad9)*%
X86918800Y-64058800D03*
%TO.P,U1,28*%
%TO.N,Net-(U1-Pad28)*%
X97078800Y-48818800D03*
%TO.P,U1,8*%
%TO.N,+5V*%
X84378800Y-64058800D03*
%TO.P,U1,27*%
%TO.N,Net-(U1-Pad27)*%
X99618800Y-48818800D03*
%TO.P,U1,7*%
%TO.N,Net-(U1-Pad7)*%
X81838800Y-64058800D03*
%TO.P,U1,26*%
%TO.N,Net-(U1-Pad26)*%
X102158800Y-48818800D03*
%TO.P,U1,6*%
%TO.N,Net-(R2-Pad1)*%
X79298800Y-64058800D03*
%TO.P,U1,25*%
%TO.N,Net-(U1-Pad25)*%
X104698800Y-48818800D03*
%TO.P,U1,5*%
%TO.N,Net-(U1-Pad5)*%
X76758800Y-64058800D03*
%TO.P,U1,24*%
%TO.N,Net-(U1-Pad24)*%
X107238800Y-48818800D03*
%TO.P,U1,4*%
%TO.N,Net-(U1-Pad4)*%
X74218800Y-64058800D03*
%TO.P,U1,23*%
%TO.N,Net-(U1-Pad23)*%
X109778800Y-48818800D03*
%TO.P,U1,3*%
%TO.N,Net-(U1-Pad3)*%
X71678800Y-64058800D03*
%TO.P,U1,22*%
%TO.N,Net-(U1-Pad22)*%
X112318800Y-48818800D03*
%TO.P,U1,2*%
%TO.N,Net-(R3-Pad1)*%
X69138800Y-64058800D03*
%TO.P,U1,21*%
%TO.N,GND*%
X114858800Y-48818800D03*
D11*
%TO.P,U1,1*%
%TO.N,Net-(U1-Pad1)*%
X66598800Y-64058800D03*
%TD*%
D13*
%TO.P,Reset,1*%
%TO.N,Net-(SW1-Pad1)*%
X55323600Y-34899600D03*
%TO.P,Reset,2*%
%TO.N,Net-(R1-Pad1)*%
X61823600Y-34899600D03*
%TO.P,Reset,3*%
%TO.N,GND*%
X55323600Y-39399600D03*
%TO.P,Reset,4*%
X61823600Y-39399600D03*
%TD*%
D14*
%TO.P,R10,2*%
%TO.N,Net-(J4-Pad14)*%
X49174400Y-90627200D03*
D15*
%TO.P,R10,1*%
%TO.N,+5V*%
X44094400Y-90627200D03*
%TD*%
D14*
%TO.P,R9,2*%
%TO.N,+5V*%
X56286400Y-90627200D03*
D15*
%TO.P,R9,1*%
%TO.N,Net-(J4-Pad13)*%
X51206400Y-90627200D03*
%TD*%
D14*
%TO.P,R8,2*%
%TO.N,GND*%
X134569200Y-73964800D03*
D15*
%TO.P,R8,1*%
%TO.N,Net-(R8-Pad1)*%
X134569200Y-79044800D03*
%TD*%
D14*
%TO.P,R7,2*%
%TO.N,Net-(R7-Pad2)*%
X150520400Y-34290000D03*
D15*
%TO.P,R7,1*%
%TO.N,GND*%
X145440400Y-34290000D03*
%TD*%
D14*
%TO.P,R6,2*%
%TO.N,Net-(R6-Pad2)*%
X152755600Y-34290000D03*
D15*
%TO.P,R6,1*%
%TO.N,GND*%
X157835600Y-34290000D03*
%TD*%
D14*
%TO.P,R5,2*%
%TO.N,GND*%
X134569200Y-86309200D03*
D15*
%TO.P,R5,1*%
%TO.N,Net-(R5-Pad1)*%
X134569200Y-81229200D03*
%TD*%
D14*
%TO.P,R4,2*%
%TO.N,+5V*%
X58470800Y-45923200D03*
D15*
%TO.P,R4,1*%
%TO.N,Net-(R4-Pad1)*%
X63550800Y-45923200D03*
%TD*%
D14*
%TO.P,R3,2*%
%TO.N,+5V*%
X64058800Y-66802000D03*
D15*
%TO.P,R3,1*%
%TO.N,Net-(R3-Pad1)*%
X69138800Y-66802000D03*
%TD*%
D14*
%TO.P,R2,2*%
%TO.N,+5V*%
X74218800Y-66852800D03*
D15*
%TO.P,R2,1*%
%TO.N,Net-(R2-Pad1)*%
X79298800Y-66852800D03*
%TD*%
D14*
%TO.P,R1,2*%
%TO.N,+5V*%
X58470800Y-43789600D03*
D15*
%TO.P,R1,1*%
%TO.N,Net-(R1-Pad1)*%
X63550800Y-43789600D03*
%TD*%
D16*
%TO.P,J7,5*%
%TO.N,GND*%
X40436800Y-44450000D03*
%TO.P,J7,4*%
X40436800Y-41910000D03*
%TO.P,J7,3*%
X40436800Y-39370000D03*
%TO.P,J7,2*%
%TO.N,+5V*%
X40436800Y-36830000D03*
D17*
%TO.P,J7,1*%
X40436800Y-34290000D03*
%TD*%
D16*
%TO.P,J6,5*%
%TO.N,GND*%
X40436800Y-108153200D03*
%TO.P,J6,4*%
X40436800Y-105613200D03*
%TO.P,J6,3*%
X40436800Y-103073200D03*
%TO.P,J6,2*%
%TO.N,+5V*%
X40436800Y-100533200D03*
D17*
%TO.P,J6,1*%
X40436800Y-97993200D03*
%TD*%
D18*
%TO.P,J5,11*%
%TO.N,N/C*%
X53771800Y-106375200D03*
%TO.P,J5,10*%
X47015400Y-105562400D03*
%TO.P,J5,9*%
X60528200Y-105562400D03*
D19*
%TO.P,J5,5*%
%TO.N,Net-(J4-Pad13)*%
X51257200Y-100076000D03*
%TO.P,J5,6*%
%TO.N,Net-(J5-Pad6)*%
X56286400Y-100076000D03*
%TO.P,J5,3*%
%TO.N,GND*%
X51257200Y-102565200D03*
%TO.P,J5,1*%
%TO.N,Net-(J4-Pad14)*%
X52933600Y-102565200D03*
%TO.P,J5,2*%
%TO.N,Net-(J5-Pad2)*%
X54610000Y-102565200D03*
%TO.P,J5,4*%
%TO.N,+5V*%
X56286400Y-102565200D03*
%TD*%
D16*
%TO.P,J4,16*%
%TO.N,Net-(J4-Pad16)*%
X144424400Y-108102400D03*
%TO.P,J4,15*%
%TO.N,Net-(J4-Pad15)*%
X141884400Y-108102400D03*
%TO.P,J4,14*%
%TO.N,Net-(J4-Pad14)*%
X139344400Y-108102400D03*
%TO.P,J4,13*%
%TO.N,Net-(J4-Pad13)*%
X136804400Y-108102400D03*
%TO.P,J4,12*%
%TO.N,Net-(J4-Pad12)*%
X134264400Y-108102400D03*
%TO.P,J4,11*%
%TO.N,Net-(J4-Pad11)*%
X131724400Y-108102400D03*
%TO.P,J4,10*%
%TO.N,Net-(J4-Pad10)*%
X129184400Y-108102400D03*
%TO.P,J4,9*%
%TO.N,Net-(J4-Pad9)*%
X126644400Y-108102400D03*
%TO.P,J4,8*%
%TO.N,Net-(J4-Pad8)*%
X124104400Y-108102400D03*
%TO.P,J4,7*%
%TO.N,Net-(J4-Pad7)*%
X121564400Y-108102400D03*
%TO.P,J4,6*%
%TO.N,Net-(J4-Pad6)*%
X119024400Y-108102400D03*
%TO.P,J4,5*%
%TO.N,Net-(J4-Pad5)*%
X116484400Y-108102400D03*
%TO.P,J4,4*%
%TO.N,Net-(J4-Pad4)*%
X113944400Y-108102400D03*
%TO.P,J4,3*%
%TO.N,Net-(J4-Pad3)*%
X111404400Y-108102400D03*
%TO.P,J4,2*%
%TO.N,Net-(J4-Pad2)*%
X108864400Y-108102400D03*
D17*
%TO.P,J4,1*%
%TO.N,Net-(J4-Pad1)*%
X106324400Y-108102400D03*
%TD*%
D16*
%TO.P,J3,16*%
%TO.N,Net-(J3-Pad16)*%
X166776400Y-78079600D03*
%TO.P,J3,15*%
%TO.N,Net-(J3-Pad15)*%
X166776400Y-75539600D03*
%TO.P,J3,14*%
%TO.N,Net-(J3-Pad14)*%
X166776400Y-72999600D03*
%TO.P,J3,13*%
%TO.N,Net-(J3-Pad13)*%
X166776400Y-70459600D03*
%TO.P,J3,12*%
%TO.N,Net-(J3-Pad12)*%
X166776400Y-67919600D03*
%TO.P,J3,11*%
%TO.N,Net-(J3-Pad11)*%
X166776400Y-65379600D03*
%TO.P,J3,10*%
%TO.N,Net-(J3-Pad10)*%
X166776400Y-62839600D03*
%TO.P,J3,9*%
%TO.N,Net-(J3-Pad9)*%
X166776400Y-60299600D03*
%TO.P,J3,8*%
%TO.N,Net-(J3-Pad8)*%
X166776400Y-57759600D03*
%TO.P,J3,7*%
%TO.N,Net-(J3-Pad7)*%
X166776400Y-55219600D03*
%TO.P,J3,6*%
%TO.N,Net-(J3-Pad6)*%
X166776400Y-52679600D03*
%TO.P,J3,5*%
%TO.N,Net-(J3-Pad5)*%
X166776400Y-50139600D03*
%TO.P,J3,4*%
%TO.N,Net-(J3-Pad4)*%
X166776400Y-47599600D03*
%TO.P,J3,3*%
%TO.N,Net-(J3-Pad3)*%
X166776400Y-45059600D03*
%TO.P,J3,2*%
%TO.N,Net-(J3-Pad2)*%
X166776400Y-42519600D03*
D17*
%TO.P,J3,1*%
%TO.N,Net-(J3-Pad1)*%
X166776400Y-39979600D03*
%TD*%
D16*
%TO.P,J2,5*%
%TO.N,GND*%
X132689600Y-33985200D03*
%TO.P,J2,4*%
X130149600Y-33985200D03*
%TO.P,J2,3*%
X127609600Y-33985200D03*
%TO.P,J2,2*%
%TO.N,+5V*%
X125069600Y-33985200D03*
D17*
%TO.P,J2,1*%
X122529600Y-33985200D03*
%TD*%
D16*
%TO.P,J1,5*%
%TO.N,GND*%
X166776400Y-108813600D03*
%TO.P,J1,4*%
X166776400Y-106273600D03*
%TO.P,J1,3*%
X166776400Y-103733600D03*
%TO.P,J1,2*%
%TO.N,+5V*%
X166776400Y-101193600D03*
D17*
%TO.P,J1,1*%
X166776400Y-98653600D03*
%TD*%
D10*
%TO.P,C17,2*%
%TO.N,GND*%
X161870400Y-101447600D03*
D11*
%TO.P,C17,1*%
%TO.N,+5V*%
X156870400Y-101447600D03*
%TD*%
D10*
%TO.P,C16,2*%
%TO.N,GND*%
X162022800Y-41249600D03*
D11*
%TO.P,C16,1*%
%TO.N,+5V*%
X157022800Y-41249600D03*
%TD*%
D10*
%TO.P,C15,2*%
%TO.N,GND*%
X95137600Y-81483200D03*
%TO.P,C15,1*%
%TO.N,+5V*%
X97637600Y-81483200D03*
%TD*%
%TO.P,C14,2*%
%TO.N,GND*%
X57861200Y-68235200D03*
%TO.P,C14,1*%
%TO.N,+5V*%
X57861200Y-65735200D03*
%TD*%
%TO.P,C13,2*%
%TO.N,GND*%
X60158000Y-96062800D03*
%TO.P,C13,1*%
%TO.N,+5V*%
X57658000Y-96062800D03*
%TD*%
%TO.P,C12,2*%
%TO.N,GND*%
X89317200Y-35407600D03*
%TO.P,C12,1*%
%TO.N,+5V*%
X86817200Y-35407600D03*
%TD*%
%TO.P,C11,2*%
%TO.N,GND*%
X132029200Y-83707600D03*
%TO.P,C11,1*%
%TO.N,+5V*%
X132029200Y-86207600D03*
%TD*%
%TO.P,C10,2*%
%TO.N,GND*%
X125944000Y-47904400D03*
%TO.P,C10,1*%
%TO.N,+5V*%
X123444000Y-47904400D03*
%TD*%
%TO.P,C9,2*%
%TO.N,GND*%
X86878800Y-66903600D03*
%TO.P,C9,1*%
%TO.N,+5V*%
X84378800Y-66903600D03*
%TD*%
%TO.P,C8,2*%
%TO.N,GND*%
X147868000Y-100330000D03*
%TO.P,C8,1*%
%TO.N,+5V*%
X150368000Y-100330000D03*
%TD*%
%TO.P,C7,2*%
%TO.N,GND*%
X95137600Y-100482400D03*
%TO.P,C7,1*%
%TO.N,+5V*%
X97637600Y-100482400D03*
%TD*%
%TO.P,C6,2*%
%TO.N,GND*%
X69251200Y-35356800D03*
%TO.P,C6,1*%
%TO.N,+5V*%
X66751200Y-35356800D03*
%TD*%
%TO.P,C5,2*%
%TO.N,GND*%
X122569600Y-81838800D03*
%TO.P,C5,1*%
%TO.N,+5V*%
X125069600Y-81838800D03*
%TD*%
%TO.P,C4,2*%
%TO.N,GND*%
X98490400Y-67259200D03*
%TO.P,C4,1*%
%TO.N,+5V*%
X100990400Y-67259200D03*
%TD*%
%TO.P,C3,2*%
%TO.N,GND*%
X47599600Y-68184400D03*
%TO.P,C3,1*%
%TO.N,+5V*%
X47599600Y-65684400D03*
%TD*%
%TO.P,C2,2*%
%TO.N,GND*%
X50262800Y-36880800D03*
D11*
%TO.P,C2,1*%
%TO.N,+5V*%
X45262800Y-36880800D03*
%TD*%
D10*
%TO.P,C1,2*%
%TO.N,GND*%
X41554400Y-55118000D03*
%TO.P,C1,1*%
%TO.N,+5V*%
X41554400Y-52618000D03*
%TD*%
D20*
%TO.N,Net-(R1-Pad1)*%
X66802000Y-52730400D03*
X120149401Y-53804601D03*
%TO.N,Net-(R4-Pad1)*%
X74218800Y-53079601D03*
X76555600Y-53079601D03*
%TO.N,Net-(U1-Pad20)*%
X55067200Y-93726000D03*
X86664800Y-93929200D03*
X86563200Y-91795600D03*
X106476800Y-87172800D03*
%TO.N,Net-(U1-Pad39)*%
X91897200Y-43586400D03*
X155143200Y-35966400D03*
%TO.N,Net-(U1-Pad18)*%
X89255600Y-76250800D03*
X101600000Y-76301600D03*
X104271653Y-69972347D03*
X106781600Y-70002400D03*
%TO.N,Net-(U1-Pad17)*%
X49428400Y-57099200D03*
X107492800Y-56997600D03*
X92354400Y-108661200D03*
X90932000Y-106629200D03*
%TO.N,Net-(U1-Pad16)*%
X105156000Y-87782400D03*
X105250199Y-68775799D03*
%TO.N,Net-(U1-Pad15)*%
X102209600Y-68935600D03*
X90373200Y-57861200D03*
X53695600Y-62230000D03*
X117805200Y-75946000D03*
X110286800Y-72325400D03*
%TO.N,Net-(U1-Pad34)*%
X67716400Y-51271000D03*
%TO.N,Net-(U1-Pad14)*%
X97816455Y-66032088D03*
X99618800Y-61315600D03*
X113741200Y-61417200D03*
%TO.N,Net-(U1-Pad33)*%
X83213928Y-67680181D03*
X164033200Y-82499200D03*
X163779200Y-55473600D03*
X74574400Y-99618800D03*
X103987600Y-99568000D03*
%TO.N,Net-(U1-Pad13)*%
X86868000Y-74015600D03*
X125425200Y-71374000D03*
X125323600Y-79349600D03*
X125425200Y-73964800D03*
%TO.N,Net-(U1-Pad32)*%
X72847200Y-55626000D03*
X86918800Y-55626000D03*
X161747200Y-57759600D03*
X161391600Y-84988400D03*
X150940600Y-55524400D03*
%TO.N,Net-(U1-Pad12)*%
X94234000Y-68427600D03*
X115570000Y-87172800D03*
X84277200Y-87095190D03*
X83108800Y-73050400D03*
X131013200Y-72085200D03*
%TO.N,Net-(U1-Pad31)*%
X68884800Y-54864000D03*
X108508800Y-51968400D03*
X111556800Y-52171600D03*
X150215600Y-50829599D03*
X157480000Y-60706000D03*
X158953200Y-94132400D03*
%TO.N,Net-(U1-Pad11)*%
X81737200Y-83667600D03*
X81148801Y-86614000D03*
X81889600Y-65887600D03*
X141427200Y-47199599D03*
X134315200Y-94538800D03*
X81838800Y-98653600D03*
X105664000Y-98958400D03*
X113893600Y-91694000D03*
%TO.N,Net-(U1-Pad30)*%
X64617600Y-56083200D03*
X91948000Y-56272600D03*
X158394400Y-62890400D03*
X101346000Y-105714800D03*
X107950000Y-98565800D03*
X153568400Y-98782801D03*
X129198200Y-98565800D03*
%TO.N,Net-(U1-Pad10)*%
X79044800Y-83464400D03*
X78943200Y-86868000D03*
X89408000Y-68173600D03*
X118008400Y-52171600D03*
X135331200Y-52425600D03*
X148386451Y-40132000D03*
X150418800Y-40335200D03*
X79698801Y-88107655D03*
X110540800Y-83362800D03*
%TO.N,Net-(U1-Pad29)*%
X156870400Y-65582800D03*
X141833600Y-93421200D03*
X67868800Y-96621600D03*
X130200400Y-96621600D03*
X131673600Y-93014800D03*
X69392800Y-72085200D03*
X70358000Y-67919600D03*
X70307200Y-60248800D03*
X94589600Y-61264800D03*
%TO.N,Net-(U1-Pad9)*%
X77876400Y-60502800D03*
X86969600Y-60350400D03*
X139750800Y-42265600D03*
X131521200Y-80213200D03*
X122885200Y-93421200D03*
X78130400Y-106680000D03*
X103632000Y-106984800D03*
%TO.N,Net-(U1-Pad28)*%
X160629600Y-67665600D03*
X159969200Y-87985600D03*
X71577200Y-95379201D03*
X127965200Y-95250000D03*
X128066800Y-87833200D03*
X118211600Y-50088800D03*
X147421600Y-48056800D03*
X147370800Y-68224400D03*
%TO.N,Net-(U1-Pad27)*%
X139852400Y-70916800D03*
X99720400Y-59385200D03*
X140360400Y-58449599D03*
X72694800Y-98958400D03*
X49022000Y-100584000D03*
X52476400Y-55930800D03*
X67291265Y-55675251D03*
X67288799Y-58521600D03*
X89255600Y-58566001D03*
X93522800Y-50850800D03*
%TO.N,Net-(U1-Pad26)*%
X140512800Y-73456800D03*
X102057200Y-59710201D03*
X134269199Y-60147200D03*
X135940800Y-74117200D03*
X132892800Y-103581200D03*
%TO.N,Net-(U1-Pad25)*%
X76606400Y-41300400D03*
X76555600Y-39674800D03*
X90881200Y-39674800D03*
X104495600Y-39776400D03*
X63613028Y-41418515D03*
%TO.N,Net-(U1-Pad24)*%
X99568000Y-74930000D03*
%TO.N,Net-(U1-Pad4)*%
X64465200Y-97840800D03*
X131081058Y-97329725D03*
X131876800Y-95656400D03*
X139395200Y-95300800D03*
X157269401Y-85394800D03*
%TO.N,Net-(U1-Pad23)*%
X93319600Y-53079601D03*
%TO.N,Net-(U1-Pad22)*%
X58369200Y-94451000D03*
X98552000Y-46939200D03*
%TO.N,Net-(U2-Pad24)*%
X81889600Y-32687600D03*
X149511450Y-33470228D03*
%TO.N,Net-(U11-Pad11)*%
X115722400Y-41254599D03*
X146202400Y-40669599D03*
X145440400Y-80619600D03*
%TO.N,Net-(U11-Pad12)*%
X63296800Y-42367200D03*
%TO.N,Net-(U4-Pad1)*%
X56134000Y-81483200D03*
X56032400Y-67005200D03*
%TO.N,Net-(U5-Pad24)*%
X143865600Y-43027600D03*
%TO.N,Net-(U11-Pad6)*%
X74168000Y-33412600D03*
X110693200Y-33782000D03*
X133553200Y-40284400D03*
X133197600Y-97332800D03*
%TO.N,Net-(U6-Pad27)*%
X75488800Y-54529601D03*
X96875600Y-54529601D03*
%TO.N,Net-(U10-Pad2)*%
X86203963Y-43244600D03*
X88341200Y-78638400D03*
X84378800Y-79044800D03*
%TO.N,Net-(U11-Pad10)*%
X122157195Y-47352912D03*
%TO.N,Net-(U11-Pad8)*%
X106527600Y-34137600D03*
%TO.N,Net-(U11-Pad4)*%
X119475201Y-54914800D03*
X106426000Y-55270400D03*
%TD*%
D21*
%TO.N,Net-(J3-Pad16)*%
X138234201Y-76954599D02*
X137109200Y-78079600D01*
X165651399Y-76954599D02*
X138234201Y-76954599D01*
X166776400Y-78079600D02*
X165651399Y-76954599D01*
%TO.N,Net-(J3-Pad15)*%
X138234201Y-74414599D02*
X137109200Y-75539600D01*
X165651399Y-74414599D02*
X138234201Y-74414599D01*
X166776400Y-75539600D02*
X165651399Y-74414599D01*
%TO.N,Net-(J3-Pad14)*%
X138234201Y-71874599D02*
X137109200Y-72999600D01*
X165651399Y-71874599D02*
X138234201Y-71874599D01*
X166776400Y-72999600D02*
X165651399Y-71874599D01*
%TO.N,Net-(J3-Pad13)*%
X165361401Y-69044601D02*
X138524199Y-69044601D01*
X138524199Y-69044601D02*
X137109200Y-70459600D01*
X166776400Y-70459600D02*
X165361401Y-69044601D01*
%TO.N,Net-(J3-Pad12)*%
X138234201Y-66794599D02*
X137109200Y-67919600D01*
X165651399Y-66794599D02*
X138234201Y-66794599D01*
X166776400Y-67919600D02*
X165651399Y-66794599D01*
%TO.N,Net-(J3-Pad11)*%
X165651399Y-64254599D02*
X138234201Y-64254599D01*
X138234201Y-64254599D02*
X137109200Y-65379600D01*
X166776400Y-65379600D02*
X165651399Y-64254599D01*
%TO.N,Net-(J3-Pad10)*%
X138234201Y-61714599D02*
X137109200Y-62839600D01*
X165651399Y-61714599D02*
X138234201Y-61714599D01*
X166776400Y-62839600D02*
X165651399Y-61714599D01*
%TO.N,Net-(J3-Pad9)*%
X138234201Y-59174599D02*
X137109200Y-60299600D01*
X165651399Y-59174599D02*
X138234201Y-59174599D01*
X166776400Y-60299600D02*
X165651399Y-59174599D01*
%TO.N,Net-(J3-Pad8)*%
X138234201Y-56634599D02*
X137109200Y-57759600D01*
X165651399Y-56634599D02*
X138234201Y-56634599D01*
X166776400Y-57759600D02*
X165651399Y-56634599D01*
%TO.N,Net-(J3-Pad7)*%
X166776400Y-55219600D02*
X165455600Y-53898800D01*
X151766410Y-53898800D02*
X151410599Y-54254611D01*
X165455600Y-53898800D02*
X151766410Y-53898800D01*
X138074189Y-54254611D02*
X137109200Y-55219600D01*
X151410599Y-54254611D02*
X138074189Y-54254611D01*
%TO.N,Net-(J3-Pad6)*%
X138234201Y-51554599D02*
X137109200Y-52679600D01*
X165651399Y-51554599D02*
X138234201Y-51554599D01*
X166776400Y-52679600D02*
X165651399Y-51554599D01*
%TO.N,Net-(J3-Pad5)*%
X138234201Y-49014599D02*
X137109200Y-50139600D01*
X165651399Y-49014599D02*
X138234201Y-49014599D01*
X166776400Y-50139600D02*
X165651399Y-49014599D01*
%TO.N,Net-(J3-Pad4)*%
X138234201Y-46474599D02*
X137109200Y-47599600D01*
X165651399Y-46474599D02*
X138234201Y-46474599D01*
X166776400Y-47599600D02*
X165651399Y-46474599D01*
%TO.N,Net-(J3-Pad3)*%
X138234201Y-43934599D02*
X137109200Y-45059600D01*
X165651399Y-43934599D02*
X138234201Y-43934599D01*
X166776400Y-45059600D02*
X165651399Y-43934599D01*
%TO.N,Net-(J3-Pad2)*%
X156107798Y-42519600D02*
X166776400Y-42519600D01*
X154982797Y-41394599D02*
X156107798Y-42519600D01*
X138234201Y-41394599D02*
X154982797Y-41394599D01*
X137109200Y-42519600D02*
X138234201Y-41394599D01*
%TO.N,Net-(J3-Pad1)*%
X165361401Y-38564601D02*
X166776400Y-39979600D01*
X138524199Y-38564601D02*
X165361401Y-38564601D01*
X137109200Y-39979600D02*
X138524199Y-38564601D01*
%TO.N,Net-(J4-Pad14)*%
X65853397Y-103626801D02*
X67168998Y-102311200D01*
X52933600Y-102565200D02*
X53995201Y-103626801D01*
X53995201Y-103626801D02*
X65853397Y-103626801D01*
X133541802Y-102311200D02*
X133592602Y-102260400D01*
X67168998Y-102311200D02*
X133541802Y-102311200D01*
X138168599Y-105773001D02*
X139293600Y-104648000D01*
X135628599Y-105188001D02*
X136213599Y-105773001D01*
X135628599Y-104296397D02*
X135628599Y-105188001D01*
X136213599Y-105773001D02*
X138168599Y-105773001D01*
X133592602Y-102260400D02*
X135628599Y-104296397D01*
%TO.N,Net-(J4-Pad13)*%
X94597599Y-101607401D02*
X136695399Y-101607401D01*
X94127799Y-101137601D02*
X94597599Y-101607401D01*
X51257200Y-100076000D02*
X52318801Y-101137601D01*
X52318801Y-101137601D02*
X94127799Y-101137601D01*
X136753600Y-101665602D02*
X136753600Y-104648000D01*
X136695399Y-101607401D02*
X136753600Y-101665602D01*
%TO.N,Net-(R1-Pad1)*%
X151224199Y-53804601D02*
X152349200Y-52679600D01*
X66802000Y-52730400D02*
X67876201Y-53804601D01*
X67876201Y-53804601D02*
X120149401Y-53804601D01*
X120149401Y-53804601D02*
X151224199Y-53804601D01*
%TO.N,Net-(R4-Pad1)*%
X74218800Y-53079601D02*
X76555600Y-53079601D01*
%TO.N,Net-(U1-Pad20)*%
X55067200Y-93726000D02*
X86461600Y-93726000D01*
X86461600Y-93726000D02*
X86664800Y-93929200D01*
X85692199Y-86418201D02*
X86868000Y-85242400D01*
X85692199Y-90924599D02*
X85692199Y-86418201D01*
X86563200Y-91795600D02*
X85692199Y-90924599D01*
X106223011Y-86919011D02*
X106476800Y-87172800D01*
X87413241Y-86919011D02*
X106223011Y-86919011D01*
X86868000Y-85242400D02*
X86868000Y-86373770D01*
X86868000Y-86373770D02*
X87413241Y-86919011D01*
%TO.N,Net-(U1-Pad39)*%
X69138800Y-48818800D02*
X69138800Y-47345600D01*
X69138800Y-47345600D02*
X69342000Y-47142400D01*
X69342000Y-47142400D02*
X86766400Y-47142400D01*
X86766400Y-45567600D02*
X86868000Y-45466000D01*
X86766400Y-47142400D02*
X86766400Y-45567600D01*
X86868000Y-45466000D02*
X86868000Y-43535600D01*
X86868000Y-43535600D02*
X86918800Y-43586400D01*
X86918800Y-43586400D02*
X91897200Y-43586400D01*
X91948000Y-36373398D02*
X92761398Y-35560000D01*
X91948000Y-37846000D02*
X91948000Y-36373398D01*
X121615200Y-35560000D02*
X122021600Y-35966400D01*
X92761398Y-35560000D02*
X121615200Y-35560000D01*
X122021600Y-35966400D02*
X155143200Y-35966400D01*
%TO.N,Net-(U1-Pad19)*%
X56858803Y-78884999D02*
X81678999Y-78884999D01*
X53644800Y-80010000D02*
X55733802Y-80010000D01*
X55733802Y-80010000D02*
X56858803Y-78884999D01*
X82462201Y-84568199D02*
X81788000Y-85242400D01*
X81678999Y-78884999D02*
X82462201Y-79668201D01*
X114241799Y-65981799D02*
X112318800Y-64058800D01*
X117075201Y-65981799D02*
X114241799Y-65981799D01*
X117660201Y-67356803D02*
X117660201Y-66566799D01*
X118535199Y-68231801D02*
X117660201Y-67356803D01*
X131738201Y-71737199D02*
X128232803Y-68231801D01*
X117660201Y-66566799D02*
X117075201Y-65981799D01*
X128319601Y-75851801D02*
X131738201Y-72433201D01*
X121720797Y-75851801D02*
X128319601Y-75851801D01*
X120388599Y-77183999D02*
X121720797Y-75851801D01*
X128232803Y-68231801D02*
X118535199Y-68231801D01*
X118294401Y-80358199D02*
X120388599Y-78264001D01*
X82991403Y-80358199D02*
X118294401Y-80358199D01*
X82462201Y-80887401D02*
X82991403Y-80358199D01*
X120388599Y-78264001D02*
X120388599Y-77183999D01*
X82462201Y-79668201D02*
X82462201Y-80887401D01*
X131738201Y-72433201D02*
X131738201Y-71737199D01*
X82462201Y-80887401D02*
X82462201Y-84568199D01*
%TO.N,Net-(U1-Pad18)*%
X53644800Y-74930000D02*
X54965600Y-76250800D01*
X54965600Y-76250800D02*
X89255600Y-76250800D01*
X89255600Y-76250800D02*
X101549200Y-76250800D01*
X101549200Y-76250800D02*
X101600000Y-76301600D01*
X104271653Y-69972347D02*
X106751547Y-69972347D01*
X106751547Y-69972347D02*
X106781600Y-70002400D01*
%TO.N,Net-(U1-Pad37)*%
X61468000Y-50546000D02*
X74066400Y-50546000D01*
X74218800Y-50393600D02*
X74218800Y-48818800D01*
X74066400Y-50546000D02*
X74218800Y-50393600D01*
%TO.N,Net-(U1-Pad17)*%
X49428400Y-57099200D02*
X49530000Y-56997600D01*
X49530000Y-56997600D02*
X107492800Y-56997600D01*
X92354400Y-108661200D02*
X92354400Y-108051600D01*
X92354400Y-108051600D02*
X90932000Y-106629200D01*
%TO.N,Net-(U1-Pad16)*%
X61929197Y-86504999D02*
X68032598Y-92608400D01*
X50749200Y-85090000D02*
X52164199Y-86504999D01*
X52164199Y-86504999D02*
X61929197Y-86504999D01*
X68032598Y-92608400D02*
X94335600Y-92608400D01*
X94437200Y-92506800D02*
X94437200Y-89408000D01*
X94335600Y-92608400D02*
X94437200Y-92506800D01*
X94437200Y-89408000D02*
X95562201Y-88282999D01*
X95562201Y-88282999D02*
X96062800Y-87782400D01*
X96062800Y-87782400D02*
X105156000Y-87782400D01*
X103122801Y-68775799D02*
X105250199Y-68775799D01*
X102557601Y-68210599D02*
X103122801Y-68775799D01*
X101484599Y-68587599D02*
X101861599Y-68210599D01*
X95902801Y-68587599D02*
X101484599Y-68587599D01*
X94488000Y-70002400D02*
X95902801Y-68587599D01*
X101861599Y-68210599D02*
X102557601Y-68210599D01*
X105823801Y-62933799D02*
X124350999Y-62933799D01*
X104698800Y-64058800D02*
X105823801Y-62933799D01*
X124155200Y-63129598D02*
X124155200Y-67106800D01*
X124350999Y-62933799D02*
X124155200Y-63129598D01*
%TO.N,Net-(U1-Pad15)*%
X102209600Y-69545802D02*
X102209600Y-68935600D01*
X100628001Y-71127401D02*
X102209600Y-69545802D01*
X91948000Y-70002400D02*
X93073001Y-71127401D01*
X93073001Y-71127401D02*
X100628001Y-71127401D01*
X97153590Y-62230000D02*
X53695600Y-62230000D01*
X95086202Y-57861200D02*
X100743801Y-63518799D01*
X98493799Y-63570209D02*
X97153590Y-62230000D01*
X98493799Y-64598801D02*
X98493799Y-63570209D01*
X90373200Y-57861200D02*
X95086202Y-57861200D01*
X100743801Y-64598801D02*
X100158801Y-65183801D01*
X100158801Y-65183801D02*
X99078799Y-65183801D01*
X100743801Y-63518799D02*
X100743801Y-64598801D01*
X99078799Y-65183801D02*
X98493799Y-64598801D01*
X112478601Y-78849001D02*
X111353600Y-77724000D01*
X116973601Y-78849001D02*
X112478601Y-78849001D01*
X117805200Y-78017402D02*
X116973601Y-78849001D01*
X117805200Y-75946000D02*
X117805200Y-78017402D01*
X102209600Y-68935600D02*
X105599400Y-72325400D01*
X105599400Y-72325400D02*
X110286800Y-72325400D01*
%TO.N,Net-(U1-Pad34)*%
X67716400Y-51271000D02*
X81801800Y-51271000D01*
X81838800Y-51234000D02*
X81838800Y-48818800D01*
X81801800Y-51271000D02*
X81838800Y-51234000D01*
X48107600Y-103315950D02*
X54773650Y-109982000D01*
X48107600Y-90176998D02*
X48107600Y-103315950D01*
X49174189Y-89110409D02*
X48107600Y-90176998D01*
X66649600Y-46465200D02*
X63693801Y-49420999D01*
X49174189Y-65593987D02*
X49174189Y-89110409D01*
X48703399Y-56751199D02*
X48703399Y-65123197D01*
X48703399Y-65123197D02*
X49174189Y-65593987D01*
X66649600Y-45415200D02*
X66649600Y-46465200D01*
X63693801Y-49420999D02*
X56033599Y-49420999D01*
X56033599Y-49420999D02*
X48703399Y-56751199D01*
X150578601Y-90533001D02*
X149453600Y-89408000D01*
X156426803Y-90533001D02*
X150578601Y-90533001D01*
X159678201Y-93784399D02*
X156426803Y-90533001D01*
X155745399Y-98413203D02*
X159678201Y-94480401D01*
X159678201Y-94480401D02*
X159678201Y-93784399D01*
X152533601Y-105773001D02*
X155745399Y-102561203D01*
X143314201Y-105773001D02*
X152533601Y-105773001D01*
X142958601Y-105417401D02*
X143314201Y-105773001D01*
X155745399Y-102561203D02*
X155745399Y-98413203D01*
X142958601Y-104107999D02*
X142958601Y-105417401D01*
X142373601Y-103522999D02*
X142958601Y-104107999D01*
X141293599Y-103522999D02*
X142373601Y-103522999D01*
X140708599Y-104107999D02*
X141293599Y-103522999D01*
X140708599Y-104898003D02*
X140708599Y-104107999D01*
X139383592Y-106223010D02*
X140708599Y-104898003D01*
X108914990Y-106223010D02*
X139383592Y-106223010D01*
X107499401Y-107638599D02*
X108914990Y-106223010D01*
X107499401Y-109212401D02*
X107499401Y-107638599D01*
X106729802Y-109982000D02*
X107499401Y-109212401D01*
X54773650Y-109982000D02*
X106729802Y-109982000D01*
%TO.N,Net-(U1-Pad14)*%
X99618800Y-64058800D02*
X94843600Y-59283600D01*
X49624199Y-73804999D02*
X50749200Y-74930000D01*
X54577999Y-59291001D02*
X49624199Y-64244801D01*
X49624199Y-64244801D02*
X49624199Y-73804999D01*
X94836199Y-59291001D02*
X54577999Y-59291001D01*
X94843600Y-59283600D02*
X94836199Y-59291001D01*
X89408000Y-69246602D02*
X89408000Y-70002400D01*
X92622514Y-66032088D02*
X89408000Y-69246602D01*
X97816455Y-66032088D02*
X92622514Y-66032088D01*
X99618800Y-61315600D02*
X113639600Y-61315600D01*
X113639600Y-61315600D02*
X113741200Y-61417200D01*
%TO.N,Net-(U1-Pad33)*%
X82813929Y-68080180D02*
X74226980Y-68080180D01*
X83213928Y-67680181D02*
X82813929Y-68080180D01*
X74168000Y-68139160D02*
X74168000Y-70002400D01*
X74226980Y-68080180D02*
X74168000Y-68139160D01*
X163568599Y-82034599D02*
X164033200Y-82499200D01*
X136569199Y-82034599D02*
X163568599Y-82034599D01*
X136021199Y-82582599D02*
X136569199Y-82034599D01*
X124564999Y-83167599D02*
X130904199Y-83167599D01*
X121513600Y-89408000D02*
X122928599Y-87993001D01*
X122928599Y-84803999D02*
X124564999Y-83167599D01*
X122928599Y-87993001D02*
X122928599Y-84803999D01*
X130904199Y-83167599D02*
X131489199Y-82582599D01*
X131489199Y-82582599D02*
X136021199Y-82582599D01*
X152603200Y-55473600D02*
X152349200Y-55219600D01*
X163779200Y-55473600D02*
X152603200Y-55473600D01*
X103776999Y-99357399D02*
X103987600Y-99568000D01*
X94597599Y-99357399D02*
X103776999Y-99357399D01*
X74574400Y-99618800D02*
X94336198Y-99618800D01*
X94336198Y-99618800D02*
X94597599Y-99357399D01*
%TO.N,Net-(U1-Pad13)*%
X51874201Y-72284403D02*
X53394797Y-73804999D01*
X51874201Y-70975001D02*
X51874201Y-72284403D01*
X86657399Y-73804999D02*
X86868000Y-74015600D01*
X50749200Y-69850000D02*
X51874201Y-70975001D01*
X53394797Y-73804999D02*
X86657399Y-73804999D01*
X98653811Y-65633811D02*
X107442211Y-65633811D01*
X107442211Y-65633811D02*
X108915200Y-67106800D01*
X97078800Y-64058800D02*
X98653811Y-65633811D01*
X108915200Y-67106800D02*
X113182400Y-71374000D01*
X113182400Y-71374000D02*
X125425200Y-71374000D01*
X123139200Y-79349600D02*
X121513600Y-77724000D01*
X125323600Y-79349600D02*
X123139200Y-79349600D01*
X86868000Y-74015600D02*
X87281801Y-73601799D01*
X125062199Y-73601799D02*
X125425200Y-73964800D01*
X87281801Y-73601799D02*
X125062199Y-73601799D01*
%TO.N,Net-(U1-Pad32)*%
X72847200Y-55626000D02*
X86918800Y-55626000D01*
X152349200Y-57759600D02*
X161747200Y-57759600D01*
X128520003Y-85082599D02*
X126836202Y-86766400D01*
X132443001Y-85082599D02*
X128520003Y-85082599D01*
X132951001Y-84574599D02*
X132443001Y-85082599D01*
X161391600Y-84988400D02*
X160977799Y-84574599D01*
X160977799Y-84574599D02*
X132951001Y-84574599D01*
X126836202Y-86766400D02*
X124307600Y-86766400D01*
X124053600Y-87020400D02*
X124053600Y-89408000D01*
X124307600Y-86766400D02*
X124053600Y-87020400D01*
X138469402Y-55524400D02*
X150940600Y-55524400D01*
X86997201Y-55547599D02*
X105630197Y-55547599D01*
X137649201Y-56344601D02*
X138469402Y-55524400D01*
X105630197Y-55547599D02*
X106077999Y-55995401D01*
X86918800Y-55626000D02*
X86997201Y-55547599D01*
X136219999Y-55995401D02*
X136569199Y-56344601D01*
X106077999Y-55995401D02*
X136219999Y-55995401D01*
X136569199Y-56344601D02*
X137649201Y-56344601D01*
%TO.N,Net-(U1-Pad12)*%
X85453001Y-71127401D02*
X89948001Y-71127401D01*
X90822999Y-70252403D02*
X90822999Y-69462399D01*
X84328000Y-70002400D02*
X85453001Y-71127401D01*
X90822999Y-69462399D02*
X91857798Y-68427600D01*
X89948001Y-71127401D02*
X90822999Y-70252403D01*
X91857798Y-68427600D02*
X94234000Y-68427600D01*
X106273600Y-85344000D02*
X108102400Y-87172800D01*
X108102400Y-87172800D02*
X115570000Y-87172800D01*
X85742999Y-84702399D02*
X85742999Y-85629391D01*
X86327999Y-84117399D02*
X85742999Y-84702399D01*
X87408001Y-84117399D02*
X86327999Y-84117399D01*
X87993001Y-84702399D02*
X87408001Y-84117399D01*
X87993001Y-85782401D02*
X87993001Y-84702399D01*
X85742999Y-85629391D02*
X84277200Y-87095190D01*
X88679601Y-86469001D02*
X87993001Y-85782401D01*
X105148599Y-86469001D02*
X88679601Y-86469001D01*
X106273600Y-85344000D02*
X105148599Y-86469001D01*
X83108800Y-73050400D02*
X130048000Y-73050400D01*
X130048000Y-73050400D02*
X131013200Y-72085200D01*
%TO.N,Net-(U1-Pad31)*%
X66453999Y-52005399D02*
X66076999Y-52382399D01*
X89458800Y-48818800D02*
X86272201Y-52005399D01*
X66076999Y-52382399D02*
X66076999Y-53078401D01*
X86272201Y-52005399D02*
X66453999Y-52005399D01*
X66076999Y-53078401D02*
X67862598Y-54864000D01*
X67862598Y-54864000D02*
X68884800Y-54864000D01*
X86272201Y-52005399D02*
X108471801Y-52005399D01*
X108471801Y-52005399D02*
X108508800Y-51968400D01*
X138084203Y-50829599D02*
X150215600Y-50829599D01*
X137649201Y-51264601D02*
X138084203Y-50829599D01*
X111556800Y-52171600D02*
X112463799Y-51264601D01*
X112463799Y-51264601D02*
X137649201Y-51264601D01*
X152349200Y-60299600D02*
X157073600Y-60299600D01*
X157073600Y-60299600D02*
X157480000Y-60706000D01*
X126593600Y-91801802D02*
X126593600Y-89408000D01*
X132849599Y-98057801D02*
X126593600Y-91801802D01*
X155027799Y-98057801D02*
X132849599Y-98057801D01*
X158953200Y-94132400D02*
X155027799Y-98057801D01*
%TO.N,Net-(U1-Pad11)*%
X80662999Y-86128198D02*
X81148801Y-86614000D01*
X81737200Y-83667600D02*
X80662999Y-84741801D01*
X80662999Y-84741801D02*
X80662999Y-86128198D01*
X82593399Y-65183801D02*
X90873799Y-65183801D01*
X90873799Y-65183801D02*
X91998800Y-64058800D01*
X81889600Y-65887600D02*
X82593399Y-65183801D01*
X152349200Y-47599600D02*
X151949199Y-47199599D01*
X151949199Y-47199599D02*
X141427200Y-47199599D01*
X125468599Y-88578001D02*
X125468599Y-92854999D01*
X134315200Y-94538800D02*
X131927600Y-94538800D01*
X127718601Y-88867999D02*
X127133601Y-88282999D01*
X131927600Y-94538800D02*
X127718601Y-90329801D01*
X127718601Y-90329801D02*
X127718601Y-88867999D01*
X127133601Y-88282999D02*
X125763601Y-88282999D01*
X125763601Y-88282999D02*
X125468599Y-88578001D01*
X125468599Y-92854999D02*
X125069600Y-92456000D01*
X125069600Y-92456000D02*
X114249200Y-92456000D01*
X114249200Y-92456000D02*
X113893600Y-92100400D01*
X81838800Y-98653600D02*
X105359200Y-98653600D01*
X105359200Y-98653600D02*
X105664000Y-98958400D01*
X113893600Y-92100400D02*
X113893600Y-91694000D01*
X113893600Y-91694000D02*
X113893600Y-89408000D01*
%TO.N,Net-(U1-Pad30)*%
X91737401Y-56483199D02*
X91948000Y-56272600D01*
X64617600Y-56083200D02*
X65017599Y-56483199D01*
X65017599Y-56483199D02*
X91737401Y-56483199D01*
X152349200Y-62839600D02*
X158343600Y-62839600D01*
X158343600Y-62839600D02*
X158394400Y-62890400D01*
X101287799Y-105773001D02*
X101346000Y-105714800D01*
X66497200Y-104648000D02*
X67622201Y-105773001D01*
X67622201Y-105773001D02*
X101287799Y-105773001D01*
X153351399Y-98565800D02*
X153568400Y-98782801D01*
X107950000Y-98565800D02*
X129198200Y-98565800D01*
X129198200Y-98565800D02*
X153351399Y-98565800D01*
%TO.N,Net-(U1-Pad10)*%
X78122999Y-86047799D02*
X78943200Y-86868000D01*
X79044800Y-83464400D02*
X78122999Y-84386201D01*
X78122999Y-84386201D02*
X78122999Y-86047799D01*
X88704201Y-68877399D02*
X89408000Y-68173600D01*
X79248000Y-70002400D02*
X80373001Y-68877399D01*
X80373001Y-68877399D02*
X88704201Y-68877399D01*
X112478601Y-88282999D02*
X115780601Y-88282999D01*
X111353600Y-89408000D02*
X112478601Y-88282999D01*
X116433600Y-87630000D02*
X116433600Y-85344000D01*
X115780601Y-88282999D02*
X116433600Y-87630000D01*
X118008400Y-52171600D02*
X135077200Y-52171600D01*
X135077200Y-52171600D02*
X135331200Y-52425600D01*
X148386451Y-40132000D02*
X150215600Y-40132000D01*
X150215600Y-40132000D02*
X150418800Y-40335200D01*
X78943200Y-86868000D02*
X80010000Y-87934800D01*
X110388400Y-83210400D02*
X110540800Y-83362800D01*
X84694998Y-83210400D02*
X85902800Y-83210400D01*
X83202999Y-84702399D02*
X84694998Y-83210400D01*
X83202999Y-85632804D02*
X83202999Y-84702399D01*
X80728148Y-88107655D02*
X83202999Y-85632804D01*
X85902800Y-83210400D02*
X110388400Y-83210400D01*
X79698801Y-88107655D02*
X80728148Y-88107655D01*
X85750400Y-83210400D02*
X85902800Y-83210400D01*
%TO.N,Net-(U1-Pad29)*%
X152349200Y-65379600D02*
X156667200Y-65379600D01*
X156667200Y-65379600D02*
X156870400Y-65582800D01*
X141833600Y-93421200D02*
X131876800Y-93421200D01*
X131876800Y-93421200D02*
X131673600Y-93218000D01*
X67868800Y-96621600D02*
X130200400Y-96621600D01*
X131673600Y-93218000D02*
X131673600Y-93014800D01*
X131673600Y-93014800D02*
X131673600Y-89408000D01*
X69392800Y-72085200D02*
X70358000Y-71120000D01*
X70358000Y-71120000D02*
X70358000Y-67919600D01*
X70307200Y-60248800D02*
X71323200Y-61264800D01*
X71323200Y-61264800D02*
X94589600Y-61264800D01*
%TO.N,Net-(U1-Pad9)*%
X77876400Y-60502800D02*
X86817200Y-60502800D01*
X86817200Y-60502800D02*
X86969600Y-60350400D01*
X152349200Y-42519600D02*
X152095200Y-42265600D01*
X152095200Y-42265600D02*
X139750800Y-42265600D01*
X120713601Y-82029797D02*
X120713601Y-84544001D01*
X122530198Y-80213200D02*
X120713601Y-82029797D01*
X120713601Y-84544001D02*
X121513600Y-85344000D01*
X131521200Y-80213200D02*
X122530198Y-80213200D01*
X108813600Y-89408000D02*
X112826800Y-93421200D01*
X112826800Y-93421200D02*
X122885200Y-93421200D01*
X101230599Y-109386201D02*
X103632000Y-106984800D01*
X78130400Y-106680000D02*
X80836601Y-109386201D01*
X80836601Y-109386201D02*
X101230599Y-109386201D01*
%TO.N,Net-(U1-Pad28)*%
X152349200Y-67919600D02*
X160375600Y-67919600D01*
X160375600Y-67919600D02*
X160629600Y-67665600D01*
X135636000Y-87985600D02*
X134213600Y-89408000D01*
X159969200Y-87985600D02*
X135636000Y-87985600D01*
X71577200Y-95379201D02*
X127835999Y-95379201D01*
X127835999Y-95379201D02*
X127965200Y-95250000D01*
X132638800Y-87833200D02*
X134213600Y-89408000D01*
X128066800Y-87833200D02*
X132638800Y-87833200D01*
X138555590Y-48056800D02*
X147421600Y-48056800D01*
X137597791Y-49014599D02*
X138555590Y-48056800D01*
X136569199Y-49014599D02*
X137597791Y-49014599D01*
X118211600Y-50088800D02*
X135494998Y-50088800D01*
X135494998Y-50088800D02*
X136569199Y-49014599D01*
X152044400Y-68224400D02*
X152349200Y-67919600D01*
X147370800Y-68224400D02*
X152044400Y-68224400D01*
%TO.N,Net-(U1-Pad27)*%
X152349200Y-70459600D02*
X140309600Y-70459600D01*
X140309600Y-70459600D02*
X139852400Y-70916800D01*
X138084203Y-58449599D02*
X140360400Y-58449599D01*
X137548601Y-58985201D02*
X138084203Y-58449599D01*
X99720400Y-59385200D02*
X100120399Y-58985201D01*
X100120399Y-58985201D02*
X137548601Y-58985201D01*
X72694800Y-98958400D02*
X50647600Y-98958400D01*
X50647600Y-98958400D02*
X49022000Y-100584000D01*
X66974213Y-55358199D02*
X67291265Y-55675251D01*
X52476400Y-55930800D02*
X53049001Y-55358199D01*
X53049001Y-55358199D02*
X66974213Y-55358199D01*
X89010802Y-58810799D02*
X89255600Y-58566001D01*
X67288799Y-58521600D02*
X67577998Y-58810799D01*
X67577998Y-58810799D02*
X89010802Y-58810799D01*
X97586800Y-50850800D02*
X99618800Y-48818800D01*
X93522800Y-50850800D02*
X97586800Y-50850800D01*
%TO.N,Net-(U1-Pad26)*%
X152349200Y-72999600D02*
X140970000Y-72999600D01*
X140970000Y-72999600D02*
X140512800Y-73456800D01*
X102057200Y-59710201D02*
X133832200Y-59710201D01*
X133832200Y-59710201D02*
X134269199Y-60147200D01*
X138555590Y-73456800D02*
X140512800Y-73456800D01*
X137887789Y-74124601D02*
X138555590Y-73456800D01*
X136569199Y-74124601D02*
X137887789Y-74124601D01*
X136561798Y-74117200D02*
X136569199Y-74124601D01*
X135940800Y-74117200D02*
X136561798Y-74117200D01*
X132834599Y-103522999D02*
X132892800Y-103581200D01*
X76657200Y-104648000D02*
X77782201Y-103522999D01*
X77782201Y-103522999D02*
X132834599Y-103522999D01*
%TO.N,Net-(U1-Pad25)*%
X76606400Y-41300400D02*
X76606400Y-39725600D01*
X76606400Y-39725600D02*
X76555600Y-39674800D01*
X90881200Y-39674800D02*
X104394000Y-39674800D01*
X104394000Y-39674800D02*
X104495600Y-39776400D01*
X76488285Y-41418515D02*
X76606400Y-41300400D01*
X63613028Y-41418515D02*
X76488285Y-41418515D01*
%TO.N,Net-(U1-Pad24)*%
X61264800Y-74930000D02*
X99568000Y-74930000D01*
%TO.N,Net-(U1-Pad4)*%
X64465200Y-97840800D02*
X130569983Y-97840800D01*
X130569983Y-97840800D02*
X131081058Y-97329725D01*
X131876800Y-95656400D02*
X139039600Y-95656400D01*
X139039600Y-95656400D02*
X139395200Y-95300800D01*
X152654000Y-85394800D02*
X152349200Y-85699600D01*
X157269401Y-85394800D02*
X152654000Y-85394800D01*
%TO.N,Net-(U1-Pad23)*%
X93319600Y-53079601D02*
X109480399Y-53079601D01*
X109480399Y-53079601D02*
X109829600Y-52730400D01*
X109829600Y-48869600D02*
X109778800Y-48818800D01*
X109829600Y-52730400D02*
X109829600Y-48869600D01*
%TO.N,Net-(U1-Pad22)*%
X58572401Y-94654201D02*
X58369200Y-94451000D01*
X92926209Y-94654201D02*
X58572401Y-94654201D01*
X96977200Y-89408000D02*
X96977200Y-90603210D01*
X96977200Y-90603210D02*
X92926209Y-94654201D01*
X98552000Y-46939200D02*
X112572800Y-46939200D01*
X112318800Y-47193200D02*
X112318800Y-48818800D01*
X112572800Y-46939200D02*
X112318800Y-47193200D01*
%TO.N,Net-(U2-Pad24)*%
X81889600Y-32687600D02*
X148728822Y-32687600D01*
X148728822Y-32687600D02*
X149511450Y-33470228D01*
%TO.N,Net-(U11-Pad11)*%
X79349600Y-37795200D02*
X79349600Y-39268400D01*
X79349600Y-39268400D02*
X81610789Y-41529589D01*
X81610789Y-41529589D02*
X115447410Y-41529589D01*
X115447410Y-41529589D02*
X115722400Y-41254599D01*
X138322791Y-40669599D02*
X146202400Y-40669599D01*
X115722400Y-41254599D02*
X137737791Y-41254599D01*
X137737791Y-41254599D02*
X138322791Y-40669599D01*
X145440400Y-80619600D02*
X152349200Y-80619600D01*
%TO.N,Net-(U11-Pad12)*%
X63862485Y-42367200D02*
X64014885Y-42519600D01*
X63296800Y-42367200D02*
X63862485Y-42367200D01*
X64014885Y-42519600D02*
X110337600Y-42519600D01*
X110744000Y-42926000D02*
X110744000Y-45466000D01*
X110337600Y-42519600D02*
X110744000Y-42926000D01*
%TO.N,Net-(U4-Pad1)*%
X80047999Y-83394597D02*
X78035002Y-81381600D01*
X79248000Y-85242400D02*
X80047999Y-84442401D01*
X80047999Y-84442401D02*
X80047999Y-83394597D01*
X78035002Y-81381600D02*
X56235600Y-81381600D01*
X56235600Y-81381600D02*
X56134000Y-81483200D01*
X53797200Y-64770000D02*
X53644800Y-64770000D01*
X56032400Y-67005200D02*
X53797200Y-64770000D01*
%TO.N,Net-(U5-Pad24)*%
X136569199Y-43644601D02*
X137649201Y-43644601D01*
X134904197Y-41979599D02*
X136569199Y-43644601D01*
X137649201Y-43644601D02*
X138266202Y-43027600D01*
X80993999Y-41979599D02*
X134904197Y-41979599D01*
X76809600Y-37795200D02*
X80993999Y-41979599D01*
X138266202Y-43027600D02*
X143865600Y-43027600D01*
%TO.N,Net-(U11-Pad6)*%
X74168000Y-33412600D02*
X110323800Y-33412600D01*
X110323800Y-33412600D02*
X110693200Y-33782000D01*
X110744000Y-37846000D02*
X110744000Y-39674800D01*
X110744000Y-39674800D02*
X111353600Y-40284400D01*
X111353600Y-40284400D02*
X133553200Y-40284400D01*
X138988800Y-97332800D02*
X146913600Y-89408000D01*
X133197600Y-97332800D02*
X138988800Y-97332800D01*
%TO.N,Net-(U6-Pad27)*%
X75488800Y-54529601D02*
X96875600Y-54529601D01*
%TO.N,Net-(U10-Pad2)*%
X69189600Y-45415200D02*
X71360200Y-43244600D01*
X71360200Y-43244600D02*
X86203963Y-43244600D01*
X88341200Y-78638400D02*
X87934800Y-79044800D01*
X87934800Y-79044800D02*
X84378800Y-79044800D01*
%TO.N,Net-(U11-Pad10)*%
X122157195Y-47352912D02*
X113799312Y-47352912D01*
X113284000Y-46837600D02*
X113284000Y-45466000D01*
X113799312Y-47352912D02*
X113284000Y-46837600D01*
%TO.N,Net-(U11-Pad8)*%
X70376201Y-36608599D02*
X70376201Y-34119399D01*
X69189600Y-37795200D02*
X70376201Y-36608599D01*
X70376201Y-34119399D02*
X70394402Y-34137600D01*
X70394402Y-34137600D02*
X106527600Y-34137600D01*
%TO.N,Net-(U10-Pad13)*%
X89408000Y-36576000D02*
X89408000Y-37846000D01*
X86320598Y-36576000D02*
X89408000Y-36576000D01*
X84332208Y-34587610D02*
X86320598Y-36576000D01*
X71729600Y-37795200D02*
X74937190Y-34587610D01*
X74937190Y-34587610D02*
X84332208Y-34587610D01*
%TO.N,Net-(U11-Pad4)*%
X119475201Y-54914800D02*
X106781600Y-54914800D01*
X106781600Y-54914800D02*
X106426000Y-55270400D01*
%TD*%
M02*
