M48
; DRILL file {KiCad 5.1.12-84ad8e8a86~92~ubuntu18.04.1} date Sat 14 May 2022 09:19:34 AM EDT
; FORMAT={-:-/ absolute / metric / decimal}
; #@! TF.CreationDate,2022-05-14T09:19:34-04:00
; #@! TF.GenerationSoftware,Kicad,Pcbnew,5.1.12-84ad8e8a86~92~ubuntu18.04.1
; #@! TF.FileFunction,Plated,1,4,PTH
FMAT,2
METRIC
T1C0.400
T2C0.700
T3C0.800
T4C0.965
T5C1.000
T6C2.362
%
G90
G05
T1
X49.022Y-100.584
X49.428Y-57.099
X52.476Y-55.931
X53.696Y-62.23
X55.067Y-93.726
X56.032Y-67.005
X56.134Y-81.483
X58.369Y-94.451
X63.297Y-42.367
X63.613Y-41.419
X64.465Y-97.841
X64.618Y-56.083
X66.802Y-52.73
X67.289Y-58.522
X67.291Y-55.675
X67.716Y-51.271
X67.869Y-96.622
X68.885Y-54.864
X69.393Y-72.085
X70.307Y-60.249
X70.358Y-67.92
X71.577Y-95.379
X72.695Y-98.958
X72.847Y-55.626
X74.168Y-33.413
X74.219Y-53.08
X74.574Y-99.619
X75.489Y-54.53
X76.556Y-39.675
X76.556Y-53.08
X76.606Y-41.3
X77.876Y-60.503
X78.13Y-106.68
X78.943Y-86.868
X79.045Y-83.464
X79.699Y-88.108
X81.149Y-86.614
X81.737Y-83.668
X81.839Y-98.654
X81.89Y-32.688
X81.89Y-65.888
X83.109Y-73.05
X83.214Y-67.68
X84.277Y-87.095
X84.379Y-79.045
X86.204Y-43.245
X86.563Y-91.796
X86.665Y-93.929
X86.868Y-74.016
X86.919Y-55.626
X86.97Y-60.35
X88.341Y-78.638
X89.256Y-58.566
X89.256Y-76.251
X89.408Y-68.174
X90.373Y-57.861
X90.881Y-39.675
X90.932Y-106.629
X91.897Y-43.586
X91.948Y-56.273
X92.354Y-108.661
X93.32Y-53.08
X93.523Y-50.851
X94.234Y-68.428
X94.59Y-61.265
X96.876Y-54.53
X97.816Y-66.032
X98.552Y-46.939
X99.568Y-74.93
X99.619Y-61.316
X99.72Y-59.385
X101.346Y-105.715
X101.6Y-76.302
X102.057Y-59.71
X102.21Y-68.936
X103.632Y-106.985
X103.988Y-99.568
X104.272Y-69.972
X104.496Y-39.776
X105.156Y-87.782
X105.25Y-68.776
X105.664Y-98.958
X106.426Y-55.27
X106.477Y-87.173
X106.528Y-34.138
X106.782Y-70.002
X107.493Y-56.998
X107.95Y-98.566
X108.509Y-51.968
X110.287Y-72.325
X110.541Y-83.363
X110.693Y-33.782
X111.557Y-52.172
X113.741Y-61.417
X113.894Y-91.694
X115.57Y-87.173
X115.722Y-41.255
X117.805Y-75.946
X118.008Y-52.172
X118.212Y-50.089
X119.475Y-54.915
X120.149Y-53.805
X122.157Y-47.353
X122.885Y-93.421
X125.324Y-79.35
X125.425Y-71.374
X125.425Y-73.965
X127.965Y-95.25
X128.067Y-87.833
X129.198Y-98.566
X130.2Y-96.622
X131.013Y-72.085
X131.081Y-97.33
X131.521Y-80.213
X131.674Y-93.015
X131.877Y-95.656
X132.893Y-103.581
X133.198Y-97.333
X133.553Y-40.284
X134.269Y-60.147
X134.315Y-94.539
X135.331Y-52.426
X135.941Y-74.117
X139.395Y-95.301
X139.751Y-42.266
X139.852Y-70.917
X140.36Y-58.45
X140.513Y-73.457
X141.427Y-47.2
X141.834Y-93.421
X143.866Y-43.028
X145.44Y-80.62
X146.202Y-40.67
X147.371Y-68.224
X147.422Y-48.057
X148.386Y-40.132
X149.511Y-33.47
X150.216Y-50.83
X150.419Y-40.335
X150.941Y-55.524
X153.568Y-98.783
X155.143Y-35.966
X156.87Y-65.583
X157.269Y-85.395
X157.48Y-60.706
X158.394Y-62.89
X158.953Y-94.132
X159.969Y-87.986
X160.63Y-67.666
X161.392Y-84.988
X161.747Y-57.76
X163.779Y-55.474
X164.033Y-82.499
T2
X44.094Y-90.627
X49.174Y-90.627
X51.206Y-90.627
X56.286Y-90.627
X58.471Y-43.79
X58.471Y-45.923
X63.551Y-43.79
X63.551Y-45.923
X64.059Y-66.802
X69.139Y-66.802
X74.219Y-66.853
X79.299Y-66.853
X134.569Y-73.965
X134.569Y-79.045
X134.569Y-81.229
X134.569Y-86.309
X145.44Y-34.29
X150.52Y-34.29
X152.756Y-34.29
X157.836Y-34.29
T3
X41.554Y-52.618
X41.554Y-55.118
X43.129Y-64.77
X43.129Y-67.31
X43.129Y-69.85
X43.129Y-72.39
X43.129Y-74.93
X43.129Y-77.47
X43.129Y-80.01
X43.129Y-82.55
X43.129Y-85.09
X43.129Y-87.63
X45.263Y-36.881
X46.228Y-50.546
X46.228Y-58.166
X47.6Y-65.684
X47.6Y-68.184
X50.263Y-36.881
X50.749Y-64.77
X50.749Y-67.31
X50.749Y-69.85
X50.749Y-72.39
X50.749Y-74.93
X50.749Y-77.47
X50.749Y-80.01
X50.749Y-82.55
X50.749Y-85.09
X50.749Y-87.63
X53.645Y-64.77
X53.645Y-67.31
X53.645Y-69.85
X53.645Y-72.39
X53.645Y-74.93
X53.645Y-77.47
X53.645Y-80.01
X53.645Y-82.55
X53.645Y-85.09
X53.645Y-87.63
X57.658Y-96.063
X57.861Y-65.735
X57.861Y-68.235
X60.158Y-96.063
X61.265Y-64.77
X61.265Y-67.31
X61.265Y-69.85
X61.265Y-72.39
X61.265Y-74.93
X61.265Y-77.47
X61.265Y-80.01
X61.265Y-82.55
X61.265Y-85.09
X61.265Y-87.63
X61.468Y-50.546
X61.468Y-58.166
X66.497Y-89.408
X66.497Y-104.648
X66.548Y-70.002
X66.548Y-85.242
X66.599Y-48.819
X66.599Y-64.059
X66.65Y-37.795
X66.65Y-45.415
X66.751Y-35.357
X69.037Y-89.408
X69.037Y-104.648
X69.088Y-70.002
X69.088Y-85.242
X69.139Y-48.819
X69.139Y-64.059
X69.19Y-37.795
X69.19Y-45.415
X69.251Y-35.357
X71.577Y-89.408
X71.577Y-104.648
X71.628Y-70.002
X71.628Y-85.242
X71.679Y-48.819
X71.679Y-64.059
X71.73Y-37.795
X71.73Y-45.415
X74.117Y-89.408
X74.117Y-104.648
X74.168Y-70.002
X74.168Y-85.242
X74.219Y-48.819
X74.219Y-64.059
X74.27Y-37.795
X74.27Y-45.415
X76.657Y-89.408
X76.657Y-104.648
X76.708Y-70.002
X76.708Y-85.242
X76.759Y-48.819
X76.759Y-64.059
X76.81Y-37.795
X76.81Y-45.415
X79.197Y-89.408
X79.197Y-104.648
X79.248Y-70.002
X79.248Y-85.242
X79.299Y-48.819
X79.299Y-64.059
X79.35Y-37.795
X79.35Y-45.415
X81.737Y-89.408
X81.737Y-104.648
X81.788Y-70.002
X81.788Y-85.242
X81.839Y-48.819
X81.839Y-64.059
X81.89Y-37.795
X81.89Y-45.415
X84.277Y-89.408
X84.277Y-104.648
X84.328Y-70.002
X84.328Y-85.242
X84.379Y-48.819
X84.379Y-64.059
X84.379Y-66.904
X86.817Y-35.408
X86.817Y-89.408
X86.817Y-104.648
X86.868Y-37.846
X86.868Y-45.466
X86.868Y-70.002
X86.868Y-85.242
X86.879Y-66.904
X86.919Y-48.819
X86.919Y-64.059
X89.317Y-35.408
X89.357Y-89.408
X89.357Y-104.648
X89.408Y-37.846
X89.408Y-45.466
X89.408Y-70.002
X89.408Y-85.242
X89.459Y-48.819
X89.459Y-64.059
X91.897Y-89.408
X91.897Y-104.648
X91.948Y-37.846
X91.948Y-45.466
X91.948Y-70.002
X91.948Y-85.242
X91.999Y-48.819
X91.999Y-64.059
X94.437Y-89.408
X94.437Y-104.648
X94.488Y-37.846
X94.488Y-45.466
X94.488Y-70.002
X94.488Y-85.242
X94.539Y-48.819
X94.539Y-64.059
X95.138Y-81.483
X95.138Y-100.482
X96.977Y-89.408
X96.977Y-104.648
X97.028Y-37.846
X97.028Y-45.466
X97.028Y-70.002
X97.028Y-85.242
X97.079Y-48.819
X97.079Y-64.059
X97.638Y-81.483
X97.638Y-100.482
X98.49Y-67.259
X99.517Y-89.408
X99.517Y-104.648
X99.568Y-37.846
X99.568Y-45.466
X99.568Y-70.002
X99.568Y-85.242
X99.619Y-48.819
X99.619Y-64.059
X100.99Y-67.259
X102.108Y-37.846
X102.108Y-45.466
X102.159Y-48.819
X102.159Y-64.059
X103.734Y-77.724
X103.734Y-85.344
X103.734Y-89.408
X103.734Y-104.648
X103.835Y-67.107
X103.835Y-74.727
X104.699Y-48.819
X104.699Y-64.059
X106.274Y-77.724
X106.274Y-85.344
X106.274Y-89.408
X106.274Y-104.648
X106.375Y-67.107
X106.375Y-74.727
X107.239Y-48.819
X107.239Y-64.059
X108.204Y-37.846
X108.204Y-45.466
X108.814Y-77.724
X108.814Y-85.344
X108.814Y-89.408
X108.814Y-104.648
X108.915Y-67.107
X108.915Y-74.727
X109.779Y-48.819
X109.779Y-64.059
X110.744Y-37.846
X110.744Y-45.466
X111.354Y-77.724
X111.354Y-85.344
X111.354Y-89.408
X111.354Y-104.648
X111.455Y-67.107
X111.455Y-74.727
X112.319Y-48.819
X112.319Y-64.059
X113.284Y-37.846
X113.284Y-45.466
X113.894Y-77.724
X113.894Y-85.344
X113.894Y-89.408
X113.894Y-104.648
X113.995Y-67.107
X113.995Y-74.727
X114.859Y-48.819
X114.859Y-64.059
X115.824Y-37.846
X115.824Y-45.466
X116.434Y-77.724
X116.434Y-85.344
X116.434Y-89.408
X116.434Y-104.648
X116.535Y-67.107
X116.535Y-74.727
X118.364Y-37.846
X118.364Y-45.466
X118.974Y-77.724
X118.974Y-85.344
X118.974Y-89.408
X118.974Y-104.648
X119.075Y-67.107
X119.075Y-74.727
X120.904Y-37.846
X120.904Y-45.466
X121.514Y-77.724
X121.514Y-85.344
X121.514Y-89.408
X121.514Y-104.648
X121.615Y-67.107
X121.615Y-74.727
X122.57Y-81.839
X123.444Y-37.846
X123.444Y-45.466
X123.444Y-47.904
X124.054Y-77.724
X124.054Y-85.344
X124.054Y-89.408
X124.054Y-104.648
X124.155Y-67.107
X124.155Y-74.727
X125.07Y-81.839
X125.944Y-47.904
X126.594Y-77.724
X126.594Y-85.344
X126.594Y-89.408
X126.594Y-104.648
X126.695Y-67.107
X126.695Y-74.727
X129.134Y-89.408
X129.134Y-104.648
X131.674Y-89.408
X131.674Y-104.648
X132.029Y-83.708
X132.029Y-86.208
X134.214Y-89.408
X134.214Y-104.648
X136.754Y-89.408
X136.754Y-104.648
X137.109Y-37.44
X137.109Y-39.98
X137.109Y-42.52
X137.109Y-45.06
X137.109Y-47.6
X137.109Y-50.14
X137.109Y-52.68
X137.109Y-55.22
X137.109Y-57.76
X137.109Y-60.3
X137.109Y-62.84
X137.109Y-65.38
X137.109Y-67.92
X137.109Y-70.46
X137.109Y-73.0
X137.109Y-75.54
X137.109Y-78.08
X137.109Y-80.62
X137.109Y-83.16
X137.109Y-85.7
X139.294Y-89.408
X139.294Y-104.648
X141.834Y-89.408
X141.834Y-104.648
X144.374Y-89.408
X144.374Y-104.648
X146.914Y-89.408
X146.914Y-104.648
X147.868Y-100.33
X149.454Y-89.408
X149.454Y-104.648
X150.368Y-100.33
X151.994Y-89.408
X151.994Y-104.648
X152.349Y-37.44
X152.349Y-39.98
X152.349Y-42.52
X152.349Y-45.06
X152.349Y-47.6
X152.349Y-50.14
X152.349Y-52.68
X152.349Y-55.22
X152.349Y-57.76
X152.349Y-60.3
X152.349Y-62.84
X152.349Y-65.38
X152.349Y-67.92
X152.349Y-70.46
X152.349Y-73.0
X152.349Y-75.54
X152.349Y-78.08
X152.349Y-80.62
X152.349Y-83.16
X152.349Y-85.7
X156.87Y-101.448
X157.023Y-41.25
X161.87Y-101.448
X162.023Y-41.25
T4
X51.257Y-100.076
X51.257Y-102.565
X52.934Y-102.565
X54.61Y-102.565
X56.286Y-100.076
X56.286Y-102.565
T5
X40.437Y-34.29
X40.437Y-36.83
X40.437Y-39.37
X40.437Y-41.91
X40.437Y-44.45
X40.437Y-97.993
X40.437Y-100.533
X40.437Y-103.073
X40.437Y-105.613
X40.437Y-108.153
X55.324Y-34.9
X55.324Y-39.4
X61.824Y-34.9
X61.824Y-39.4
X106.324Y-108.102
X108.864Y-108.102
X111.404Y-108.102
X113.944Y-108.102
X116.484Y-108.102
X119.024Y-108.102
X121.564Y-108.102
X122.53Y-33.985
X124.104Y-108.102
X125.07Y-33.985
X126.644Y-108.102
X127.61Y-33.985
X129.184Y-108.102
X130.15Y-33.985
X131.724Y-108.102
X132.69Y-33.985
X134.264Y-108.102
X136.804Y-108.102
X139.344Y-108.102
X141.884Y-108.102
X144.424Y-108.102
X166.776Y-39.98
X166.776Y-42.52
X166.776Y-45.06
X166.776Y-47.6
X166.776Y-50.14
X166.776Y-52.68
X166.776Y-55.22
X166.776Y-57.76
X166.776Y-60.3
X166.776Y-62.84
X166.776Y-65.38
X166.776Y-67.92
X166.776Y-70.46
X166.776Y-73.0
X166.776Y-75.54
X166.776Y-78.08
X166.776Y-98.654
X166.776Y-101.194
X166.776Y-103.734
X166.776Y-106.274
X166.776Y-108.814
T6
X47.015Y-105.562
X53.772Y-106.375
X60.528Y-105.562
T0
M30
